ISO-10303-21;
HEADER;
/* Generated by software containing ST-Developer
 * from STEP Tools, Inc. (www.steptools.com) 
 */

FILE_DESCRIPTION(
/* description */ (''),
/* implementation_level */ '2;1');

FILE_NAME(
/* name */ 'foot 1.step',
/* time_stamp */ '2026-08-21T19:49:39+05:30',
/* author */ (''),
/* organization */ (''),
/* preprocessor_version */ 'ST-DEVELOPER v20.1',
/* originating_system */ 'Autodesk Translation Framework v15.8.0.0',
/* authorisation */ '');

FILE_SCHEMA (('AUTOMOTIVE_DESIGN { 1 0 10303 214 3 1 1 }'));
ENDSEC;

DATA;
#10=MECHANICAL_DESIGN_GEOMETRIC_PRESENTATION_REPRESENTATION('',(#13,#14,
#15),#956);
#11=SHAPE_REPRESENTATION_RELATIONSHIP('SRR','None',#963,#12);
#12=ADVANCED_BREP_SHAPE_REPRESENTATION('',(#16,#17,#18),#955);
#13=STYLED_ITEM('',(#972),#16);
#14=STYLED_ITEM('',(#972),#17);
#15=STYLED_ITEM('',(#972),#18);
#16=MANIFOLD_SOLID_BREP('Body1',#566);
#17=MANIFOLD_SOLID_BREP('Body2',#567);
#18=MANIFOLD_SOLID_BREP('Body3',#568);
#19=FACE_BOUND('',#83,.T.);
#20=FACE_BOUND('',#90,.T.);
#21=FACE_BOUND('',#99,.T.);
#22=FACE_BOUND('',#100,.T.);
#23=FACE_BOUND('',#103,.T.);
#24=FACE_BOUND('',#104,.T.);
#25=FACE_BOUND('',#112,.T.);
#26=FACE_BOUND('',#113,.T.);
#27=FACE_BOUND('',#116,.T.);
#28=FACE_BOUND('',#117,.T.);
#29=PLANE('',#588);
#30=PLANE('',#590);
#31=PLANE('',#593);
#32=PLANE('',#594);
#33=PLANE('',#597);
#34=PLANE('',#598);
#35=PLANE('',#601);
#36=PLANE('',#604);
#37=PLANE('',#614);
#38=PLANE('',#615);
#39=PLANE('',#616);
#40=PLANE('',#617);
#41=PLANE('',#618);
#42=PLANE('',#619);
#43=PLANE('',#629);
#44=PLANE('',#630);
#45=PLANE('',#631);
#46=PLANE('',#632);
#47=PLANE('',#633);
#48=PLANE('',#634);
#49=FACE_OUTER_BOUND('',#80,.T.);
#50=FACE_OUTER_BOUND('',#81,.T.);
#51=FACE_OUTER_BOUND('',#82,.T.);
#52=FACE_OUTER_BOUND('',#84,.T.);
#53=FACE_OUTER_BOUND('',#85,.T.);
#54=FACE_OUTER_BOUND('',#86,.T.);
#55=FACE_OUTER_BOUND('',#87,.T.);
#56=FACE_OUTER_BOUND('',#88,.T.);
#57=FACE_OUTER_BOUND('',#89,.T.);
#58=FACE_OUTER_BOUND('',#91,.T.);
#59=FACE_OUTER_BOUND('',#92,.T.);
#60=FACE_OUTER_BOUND('',#93,.T.);
#61=FACE_OUTER_BOUND('',#94,.T.);
#62=FACE_OUTER_BOUND('',#95,.T.);
#63=FACE_OUTER_BOUND('',#96,.T.);
#64=FACE_OUTER_BOUND('',#97,.T.);
#65=FACE_OUTER_BOUND('',#98,.T.);
#66=FACE_OUTER_BOUND('',#101,.T.);
#67=FACE_OUTER_BOUND('',#102,.T.);
#68=FACE_OUTER_BOUND('',#105,.T.);
#69=FACE_OUTER_BOUND('',#106,.T.);
#70=FACE_OUTER_BOUND('',#107,.T.);
#71=FACE_OUTER_BOUND('',#108,.T.);
#72=FACE_OUTER_BOUND('',#109,.T.);
#73=FACE_OUTER_BOUND('',#110,.T.);
#74=FACE_OUTER_BOUND('',#111,.T.);
#75=FACE_OUTER_BOUND('',#114,.T.);
#76=FACE_OUTER_BOUND('',#115,.T.);
#77=FACE_OUTER_BOUND('',#118,.T.);
#78=FACE_OUTER_BOUND('',#119,.T.);
#79=FACE_OUTER_BOUND('',#120,.T.);
#80=EDGE_LOOP('',(#374,#375,#376,#377));
#81=EDGE_LOOP('',(#378,#379,#380,#381));
#82=EDGE_LOOP('',(#382,#383,#384,#385,#386,#387));
#83=EDGE_LOOP('',(#388));
#84=EDGE_LOOP('',(#389,#390,#391,#392));
#85=EDGE_LOOP('',(#393,#394,#395,#396));
#86=EDGE_LOOP('',(#397,#398,#399,#400,#401,#402));
#87=EDGE_LOOP('',(#403,#404,#405,#406,#407,#408));
#88=EDGE_LOOP('',(#409,#410,#411,#412,#413,#414));
#89=EDGE_LOOP('',(#415,#416,#417,#418,#419,#420));
#90=EDGE_LOOP('',(#421));
#91=EDGE_LOOP('',(#422,#423,#424,#425));
#92=EDGE_LOOP('',(#426,#427,#428,#429));
#93=EDGE_LOOP('',(#430,#431,#432,#433));
#94=EDGE_LOOP('',(#434,#435,#436,#437,#438,#439));
#95=EDGE_LOOP('',(#440,#441,#442,#443));
#96=EDGE_LOOP('',(#444,#445,#446,#447));
#97=EDGE_LOOP('',(#448,#449,#450,#451));
#98=EDGE_LOOP('',(#452,#453,#454,#455,#456));
#99=EDGE_LOOP('',(#457));
#100=EDGE_LOOP('',(#458));
#101=EDGE_LOOP('',(#459,#460,#461,#462));
#102=EDGE_LOOP('',(#463,#464,#465,#466,#467));
#103=EDGE_LOOP('',(#468));
#104=EDGE_LOOP('',(#469));
#105=EDGE_LOOP('',(#470,#471,#472,#473));
#106=EDGE_LOOP('',(#474,#475,#476,#477));
#107=EDGE_LOOP('',(#478,#479,#480,#481));
#108=EDGE_LOOP('',(#482,#483,#484,#485));
#109=EDGE_LOOP('',(#486,#487,#488,#489));
#110=EDGE_LOOP('',(#490,#491,#492,#493));
#111=EDGE_LOOP('',(#494,#495,#496,#497,#498));
#112=EDGE_LOOP('',(#499));
#113=EDGE_LOOP('',(#500));
#114=EDGE_LOOP('',(#501,#502,#503,#504));
#115=EDGE_LOOP('',(#505,#506,#507,#508,#509));
#116=EDGE_LOOP('',(#510));
#117=EDGE_LOOP('',(#511));
#118=EDGE_LOOP('',(#512,#513,#514,#515));
#119=EDGE_LOOP('',(#516,#517,#518,#519));
#120=EDGE_LOOP('',(#520,#521,#522,#523));
#121=LINE('',#801,#174);
#122=LINE('',#808,#175);
#123=LINE('',#811,#176);
#124=LINE('',#814,#177);
#125=LINE('',#818,#178);
#126=LINE('',#820,#179);
#127=LINE('',#821,#180);
#128=LINE('',#824,#181);
#129=LINE('',#825,#182);
#130=LINE('',#829,#183);
#131=LINE('',#832,#184);
#132=LINE('',#834,#185);
#133=LINE('',#836,#186);
#134=LINE('',#837,#187);
#135=LINE('',#841,#188);
#136=LINE('',#845,#189);
#137=LINE('',#847,#190);
#138=LINE('',#850,#191);
#139=LINE('',#851,#192);
#140=LINE('',#852,#193);
#141=LINE('',#857,#194);
#142=LINE('',#860,#195);
#143=LINE('',#861,#196);
#144=LINE('',#869,#197);
#145=LINE('',#875,#198);
#146=LINE('',#882,#199);
#147=LINE('',#885,#200);
#148=LINE('',#888,#201);
#149=LINE('',#890,#202);
#150=LINE('',#892,#203);
#151=LINE('',#893,#204);
#152=LINE('',#896,#205);
#153=LINE('',#897,#206);
#154=LINE('',#900,#207);
#155=LINE('',#902,#208);
#156=LINE('',#903,#209);
#157=LINE('',#905,#210);
#158=LINE('',#906,#211);
#159=LINE('',#913,#212);
#160=LINE('',#919,#213);
#161=LINE('',#926,#214);
#162=LINE('',#929,#215);
#163=LINE('',#932,#216);
#164=LINE('',#934,#217);
#165=LINE('',#936,#218);
#166=LINE('',#937,#219);
#167=LINE('',#940,#220);
#168=LINE('',#941,#221);
#169=LINE('',#944,#222);
#170=LINE('',#946,#223);
#171=LINE('',#947,#224);
#172=LINE('',#949,#225);
#173=LINE('',#950,#226);
#174=VECTOR('',#641,1.75);
#175=VECTOR('',#648,10.);
#176=VECTOR('',#651,10.);
#177=VECTOR('',#654,10.);
#178=VECTOR('',#657,10.);
#179=VECTOR('',#658,10.);
#180=VECTOR('',#659,10.);
#181=VECTOR('',#662,10.);
#182=VECTOR('',#663,10.);
#183=VECTOR('',#668,10.);
#184=VECTOR('',#671,10.);
#185=VECTOR('',#672,10.);
#186=VECTOR('',#673,10.);
#187=VECTOR('',#674,10.);
#188=VECTOR('',#677,10.);
#189=VECTOR('',#680,10.);
#190=VECTOR('',#683,10.);
#191=VECTOR('',#686,10.);
#192=VECTOR('',#687,10.);
#193=VECTOR('',#688,10.);
#194=VECTOR('',#695,10.);
#195=VECTOR('',#698,10.);
#196=VECTOR('',#699,10.);
#197=VECTOR('',#710,1.75);
#198=VECTOR('',#717,1.75);
#199=VECTOR('',#724,10.);
#200=VECTOR('',#727,10.);
#201=VECTOR('',#730,10.);
#202=VECTOR('',#731,10.);
#203=VECTOR('',#732,10.);
#204=VECTOR('',#733,10.);
#205=VECTOR('',#736,10.);
#206=VECTOR('',#737,10.);
#207=VECTOR('',#740,10.);
#208=VECTOR('',#741,10.);
#209=VECTOR('',#742,10.);
#210=VECTOR('',#745,10.);
#211=VECTOR('',#746,10.);
#212=VECTOR('',#755,1.75);
#213=VECTOR('',#762,1.75);
#214=VECTOR('',#769,10.);
#215=VECTOR('',#772,10.);
#216=VECTOR('',#775,10.);
#217=VECTOR('',#776,10.);
#218=VECTOR('',#777,10.);
#219=VECTOR('',#778,10.);
#220=VECTOR('',#781,10.);
#221=VECTOR('',#782,10.);
#222=VECTOR('',#785,10.);
#223=VECTOR('',#786,10.);
#224=VECTOR('',#787,10.);
#225=VECTOR('',#790,10.);
#226=VECTOR('',#791,10.);
#227=CIRCLE('',#583,1.75);
#228=CIRCLE('',#584,1.75);
#229=CIRCLE('',#586,10.);
#230=CIRCLE('',#587,10.);
#231=CIRCLE('',#589,10.);
#232=CIRCLE('',#592,10.);
#233=CIRCLE('',#595,10.);
#234=CIRCLE('',#596,10.);
#235=CIRCLE('',#600,10.);
#236=CIRCLE('',#603,10.);
#237=CIRCLE('',#606,1.75);
#238=CIRCLE('',#607,1.75);
#239=CIRCLE('',#609,1.75);
#240=CIRCLE('',#610,1.75);
#241=CIRCLE('',#612,5.);
#242=CIRCLE('',#613,5.);
#243=CIRCLE('',#621,1.75);
#244=CIRCLE('',#622,1.75);
#245=CIRCLE('',#624,1.75);
#246=CIRCLE('',#625,1.75);
#247=CIRCLE('',#627,5.);
#248=CIRCLE('',#628,5.);
#249=VERTEX_POINT('',#798);
#250=VERTEX_POINT('',#800);
#251=VERTEX_POINT('',#804);
#252=VERTEX_POINT('',#805);
#253=VERTEX_POINT('',#807);
#254=VERTEX_POINT('',#809);
#255=VERTEX_POINT('',#813);
#256=VERTEX_POINT('',#815);
#257=VERTEX_POINT('',#817);
#258=VERTEX_POINT('',#819);
#259=VERTEX_POINT('',#823);
#260=VERTEX_POINT('',#827);
#261=VERTEX_POINT('',#831);
#262=VERTEX_POINT('',#833);
#263=VERTEX_POINT('',#835);
#264=VERTEX_POINT('',#839);
#265=VERTEX_POINT('',#840);
#266=VERTEX_POINT('',#842);
#267=VERTEX_POINT('',#844);
#268=VERTEX_POINT('',#849);
#269=VERTEX_POINT('',#855);
#270=VERTEX_POINT('',#859);
#271=VERTEX_POINT('',#866);
#272=VERTEX_POINT('',#868);
#273=VERTEX_POINT('',#872);
#274=VERTEX_POINT('',#874);
#275=VERTEX_POINT('',#878);
#276=VERTEX_POINT('',#879);
#277=VERTEX_POINT('',#881);
#278=VERTEX_POINT('',#883);
#279=VERTEX_POINT('',#887);
#280=VERTEX_POINT('',#889);
#281=VERTEX_POINT('',#891);
#282=VERTEX_POINT('',#895);
#283=VERTEX_POINT('',#899);
#284=VERTEX_POINT('',#901);
#285=VERTEX_POINT('',#910);
#286=VERTEX_POINT('',#912);
#287=VERTEX_POINT('',#916);
#288=VERTEX_POINT('',#918);
#289=VERTEX_POINT('',#922);
#290=VERTEX_POINT('',#923);
#291=VERTEX_POINT('',#925);
#292=VERTEX_POINT('',#927);
#293=VERTEX_POINT('',#931);
#294=VERTEX_POINT('',#933);
#295=VERTEX_POINT('',#935);
#296=VERTEX_POINT('',#939);
#297=VERTEX_POINT('',#943);
#298=VERTEX_POINT('',#945);
#299=EDGE_CURVE('',#249,#249,#227,.T.);
#300=EDGE_CURVE('',#249,#250,#121,.T.);
#301=EDGE_CURVE('',#250,#250,#228,.T.);
#302=EDGE_CURVE('',#251,#252,#229,.T.);
#303=EDGE_CURVE('',#252,#253,#122,.T.);
#304=EDGE_CURVE('',#253,#254,#230,.T.);
#305=EDGE_CURVE('',#254,#251,#123,.T.);
#306=EDGE_CURVE('',#255,#253,#124,.T.);
#307=EDGE_CURVE('',#256,#255,#231,.T.);
#308=EDGE_CURVE('',#257,#256,#125,.T.);
#309=EDGE_CURVE('',#258,#257,#126,.T.);
#310=EDGE_CURVE('',#258,#254,#127,.T.);
#311=EDGE_CURVE('',#252,#259,#128,.T.);
#312=EDGE_CURVE('',#255,#259,#129,.T.);
#313=EDGE_CURVE('',#259,#260,#232,.T.);
#314=EDGE_CURVE('',#260,#256,#130,.T.);
#315=EDGE_CURVE('',#261,#260,#131,.T.);
#316=EDGE_CURVE('',#261,#262,#132,.T.);
#317=EDGE_CURVE('',#262,#263,#133,.T.);
#318=EDGE_CURVE('',#257,#263,#134,.T.);
#319=EDGE_CURVE('',#264,#265,#135,.T.);
#320=EDGE_CURVE('',#264,#266,#233,.T.);
#321=EDGE_CURVE('',#267,#266,#136,.T.);
#322=EDGE_CURVE('',#267,#262,#234,.T.);
#323=EDGE_CURVE('',#265,#261,#137,.T.);
#324=EDGE_CURVE('',#268,#258,#138,.T.);
#325=EDGE_CURVE('',#264,#268,#139,.T.);
#326=EDGE_CURVE('',#265,#251,#140,.T.);
#327=EDGE_CURVE('',#269,#268,#235,.T.);
#328=EDGE_CURVE('',#266,#269,#141,.T.);
#329=EDGE_CURVE('',#270,#269,#142,.T.);
#330=EDGE_CURVE('',#267,#270,#143,.T.);
#331=EDGE_CURVE('',#263,#270,#236,.T.);
#332=EDGE_CURVE('',#271,#271,#237,.T.);
#333=EDGE_CURVE('',#271,#272,#144,.T.);
#334=EDGE_CURVE('',#272,#272,#238,.T.);
#335=EDGE_CURVE('',#273,#273,#239,.T.);
#336=EDGE_CURVE('',#273,#274,#145,.T.);
#337=EDGE_CURVE('',#274,#274,#240,.T.);
#338=EDGE_CURVE('',#275,#276,#241,.T.);
#339=EDGE_CURVE('',#276,#277,#146,.T.);
#340=EDGE_CURVE('',#277,#278,#242,.T.);
#341=EDGE_CURVE('',#278,#275,#147,.T.);
#342=EDGE_CURVE('',#279,#275,#148,.T.);
#343=EDGE_CURVE('',#280,#279,#149,.T.);
#344=EDGE_CURVE('',#280,#281,#150,.T.);
#345=EDGE_CURVE('',#276,#281,#151,.T.);
#346=EDGE_CURVE('',#282,#278,#152,.T.);
#347=EDGE_CURVE('',#279,#282,#153,.T.);
#348=EDGE_CURVE('',#283,#277,#154,.T.);
#349=EDGE_CURVE('',#284,#283,#155,.T.);
#350=EDGE_CURVE('',#282,#284,#156,.T.);
#351=EDGE_CURVE('',#284,#280,#157,.T.);
#352=EDGE_CURVE('',#281,#283,#158,.T.);
#353=EDGE_CURVE('',#285,#285,#243,.T.);
#354=EDGE_CURVE('',#285,#286,#159,.T.);
#355=EDGE_CURVE('',#286,#286,#244,.T.);
#356=EDGE_CURVE('',#287,#287,#245,.T.);
#357=EDGE_CURVE('',#287,#288,#160,.T.);
#358=EDGE_CURVE('',#288,#288,#246,.T.);
#359=EDGE_CURVE('',#289,#290,#247,.T.);
#360=EDGE_CURVE('',#290,#291,#161,.T.);
#361=EDGE_CURVE('',#291,#292,#248,.T.);
#362=EDGE_CURVE('',#292,#289,#162,.T.);
#363=EDGE_CURVE('',#293,#289,#163,.T.);
#364=EDGE_CURVE('',#294,#293,#164,.T.);
#365=EDGE_CURVE('',#294,#295,#165,.T.);
#366=EDGE_CURVE('',#290,#295,#166,.T.);
#367=EDGE_CURVE('',#296,#292,#167,.T.);
#368=EDGE_CURVE('',#293,#296,#168,.T.);
#369=EDGE_CURVE('',#297,#291,#169,.T.);
#370=EDGE_CURVE('',#298,#297,#170,.T.);
#371=EDGE_CURVE('',#296,#298,#171,.T.);
#372=EDGE_CURVE('',#298,#294,#172,.T.);
#373=EDGE_CURVE('',#295,#297,#173,.T.);
#374=ORIENTED_EDGE('',*,*,#299,.F.);
#375=ORIENTED_EDGE('',*,*,#300,.T.);
#376=ORIENTED_EDGE('',*,*,#301,.F.);
#377=ORIENTED_EDGE('',*,*,#300,.F.);
#378=ORIENTED_EDGE('',*,*,#302,.T.);
#379=ORIENTED_EDGE('',*,*,#303,.T.);
#380=ORIENTED_EDGE('',*,*,#304,.T.);
#381=ORIENTED_EDGE('',*,*,#305,.T.);
#382=ORIENTED_EDGE('',*,*,#304,.F.);
#383=ORIENTED_EDGE('',*,*,#306,.F.);
#384=ORIENTED_EDGE('',*,*,#307,.F.);
#385=ORIENTED_EDGE('',*,*,#308,.F.);
#386=ORIENTED_EDGE('',*,*,#309,.F.);
#387=ORIENTED_EDGE('',*,*,#310,.T.);
#388=ORIENTED_EDGE('',*,*,#301,.T.);
#389=ORIENTED_EDGE('',*,*,#303,.F.);
#390=ORIENTED_EDGE('',*,*,#311,.T.);
#391=ORIENTED_EDGE('',*,*,#312,.F.);
#392=ORIENTED_EDGE('',*,*,#306,.T.);
#393=ORIENTED_EDGE('',*,*,#307,.T.);
#394=ORIENTED_EDGE('',*,*,#312,.T.);
#395=ORIENTED_EDGE('',*,*,#313,.T.);
#396=ORIENTED_EDGE('',*,*,#314,.T.);
#397=ORIENTED_EDGE('',*,*,#314,.F.);
#398=ORIENTED_EDGE('',*,*,#315,.F.);
#399=ORIENTED_EDGE('',*,*,#316,.T.);
#400=ORIENTED_EDGE('',*,*,#317,.T.);
#401=ORIENTED_EDGE('',*,*,#318,.F.);
#402=ORIENTED_EDGE('',*,*,#308,.T.);
#403=ORIENTED_EDGE('',*,*,#319,.F.);
#404=ORIENTED_EDGE('',*,*,#320,.T.);
#405=ORIENTED_EDGE('',*,*,#321,.F.);
#406=ORIENTED_EDGE('',*,*,#322,.T.);
#407=ORIENTED_EDGE('',*,*,#316,.F.);
#408=ORIENTED_EDGE('',*,*,#323,.F.);
#409=ORIENTED_EDGE('',*,*,#305,.F.);
#410=ORIENTED_EDGE('',*,*,#310,.F.);
#411=ORIENTED_EDGE('',*,*,#324,.F.);
#412=ORIENTED_EDGE('',*,*,#325,.F.);
#413=ORIENTED_EDGE('',*,*,#319,.T.);
#414=ORIENTED_EDGE('',*,*,#326,.T.);
#415=ORIENTED_EDGE('',*,*,#302,.F.);
#416=ORIENTED_EDGE('',*,*,#326,.F.);
#417=ORIENTED_EDGE('',*,*,#323,.T.);
#418=ORIENTED_EDGE('',*,*,#315,.T.);
#419=ORIENTED_EDGE('',*,*,#313,.F.);
#420=ORIENTED_EDGE('',*,*,#311,.F.);
#421=ORIENTED_EDGE('',*,*,#299,.T.);
#422=ORIENTED_EDGE('',*,*,#320,.F.);
#423=ORIENTED_EDGE('',*,*,#325,.T.);
#424=ORIENTED_EDGE('',*,*,#327,.F.);
#425=ORIENTED_EDGE('',*,*,#328,.F.);
#426=ORIENTED_EDGE('',*,*,#321,.T.);
#427=ORIENTED_EDGE('',*,*,#328,.T.);
#428=ORIENTED_EDGE('',*,*,#329,.F.);
#429=ORIENTED_EDGE('',*,*,#330,.F.);
#430=ORIENTED_EDGE('',*,*,#322,.F.);
#431=ORIENTED_EDGE('',*,*,#330,.T.);
#432=ORIENTED_EDGE('',*,*,#331,.F.);
#433=ORIENTED_EDGE('',*,*,#317,.F.);
#434=ORIENTED_EDGE('',*,*,#309,.T.);
#435=ORIENTED_EDGE('',*,*,#318,.T.);
#436=ORIENTED_EDGE('',*,*,#331,.T.);
#437=ORIENTED_EDGE('',*,*,#329,.T.);
#438=ORIENTED_EDGE('',*,*,#327,.T.);
#439=ORIENTED_EDGE('',*,*,#324,.T.);
#440=ORIENTED_EDGE('',*,*,#332,.F.);
#441=ORIENTED_EDGE('',*,*,#333,.T.);
#442=ORIENTED_EDGE('',*,*,#334,.F.);
#443=ORIENTED_EDGE('',*,*,#333,.F.);
#444=ORIENTED_EDGE('',*,*,#335,.F.);
#445=ORIENTED_EDGE('',*,*,#336,.T.);
#446=ORIENTED_EDGE('',*,*,#337,.F.);
#447=ORIENTED_EDGE('',*,*,#336,.F.);
#448=ORIENTED_EDGE('',*,*,#338,.T.);
#449=ORIENTED_EDGE('',*,*,#339,.T.);
#450=ORIENTED_EDGE('',*,*,#340,.T.);
#451=ORIENTED_EDGE('',*,*,#341,.T.);
#452=ORIENTED_EDGE('',*,*,#338,.F.);
#453=ORIENTED_EDGE('',*,*,#342,.F.);
#454=ORIENTED_EDGE('',*,*,#343,.F.);
#455=ORIENTED_EDGE('',*,*,#344,.T.);
#456=ORIENTED_EDGE('',*,*,#345,.F.);
#457=ORIENTED_EDGE('',*,*,#332,.T.);
#458=ORIENTED_EDGE('',*,*,#335,.T.);
#459=ORIENTED_EDGE('',*,*,#341,.F.);
#460=ORIENTED_EDGE('',*,*,#346,.F.);
#461=ORIENTED_EDGE('',*,*,#347,.F.);
#462=ORIENTED_EDGE('',*,*,#342,.T.);
#463=ORIENTED_EDGE('',*,*,#340,.F.);
#464=ORIENTED_EDGE('',*,*,#348,.F.);
#465=ORIENTED_EDGE('',*,*,#349,.F.);
#466=ORIENTED_EDGE('',*,*,#350,.F.);
#467=ORIENTED_EDGE('',*,*,#346,.T.);
#468=ORIENTED_EDGE('',*,*,#334,.T.);
#469=ORIENTED_EDGE('',*,*,#337,.T.);
#470=ORIENTED_EDGE('',*,*,#351,.F.);
#471=ORIENTED_EDGE('',*,*,#349,.T.);
#472=ORIENTED_EDGE('',*,*,#352,.F.);
#473=ORIENTED_EDGE('',*,*,#344,.F.);
#474=ORIENTED_EDGE('',*,*,#339,.F.);
#475=ORIENTED_EDGE('',*,*,#345,.T.);
#476=ORIENTED_EDGE('',*,*,#352,.T.);
#477=ORIENTED_EDGE('',*,*,#348,.T.);
#478=ORIENTED_EDGE('',*,*,#343,.T.);
#479=ORIENTED_EDGE('',*,*,#347,.T.);
#480=ORIENTED_EDGE('',*,*,#350,.T.);
#481=ORIENTED_EDGE('',*,*,#351,.T.);
#482=ORIENTED_EDGE('',*,*,#353,.F.);
#483=ORIENTED_EDGE('',*,*,#354,.T.);
#484=ORIENTED_EDGE('',*,*,#355,.F.);
#485=ORIENTED_EDGE('',*,*,#354,.F.);
#486=ORIENTED_EDGE('',*,*,#356,.F.);
#487=ORIENTED_EDGE('',*,*,#357,.T.);
#488=ORIENTED_EDGE('',*,*,#358,.F.);
#489=ORIENTED_EDGE('',*,*,#357,.F.);
#490=ORIENTED_EDGE('',*,*,#359,.T.);
#491=ORIENTED_EDGE('',*,*,#360,.T.);
#492=ORIENTED_EDGE('',*,*,#361,.T.);
#493=ORIENTED_EDGE('',*,*,#362,.T.);
#494=ORIENTED_EDGE('',*,*,#359,.F.);
#495=ORIENTED_EDGE('',*,*,#363,.F.);
#496=ORIENTED_EDGE('',*,*,#364,.F.);
#497=ORIENTED_EDGE('',*,*,#365,.T.);
#498=ORIENTED_EDGE('',*,*,#366,.F.);
#499=ORIENTED_EDGE('',*,*,#353,.T.);
#500=ORIENTED_EDGE('',*,*,#356,.T.);
#501=ORIENTED_EDGE('',*,*,#362,.F.);
#502=ORIENTED_EDGE('',*,*,#367,.F.);
#503=ORIENTED_EDGE('',*,*,#368,.F.);
#504=ORIENTED_EDGE('',*,*,#363,.T.);
#505=ORIENTED_EDGE('',*,*,#361,.F.);
#506=ORIENTED_EDGE('',*,*,#369,.F.);
#507=ORIENTED_EDGE('',*,*,#370,.F.);
#508=ORIENTED_EDGE('',*,*,#371,.F.);
#509=ORIENTED_EDGE('',*,*,#367,.T.);
#510=ORIENTED_EDGE('',*,*,#355,.T.);
#511=ORIENTED_EDGE('',*,*,#358,.T.);
#512=ORIENTED_EDGE('',*,*,#372,.F.);
#513=ORIENTED_EDGE('',*,*,#370,.T.);
#514=ORIENTED_EDGE('',*,*,#373,.F.);
#515=ORIENTED_EDGE('',*,*,#365,.F.);
#516=ORIENTED_EDGE('',*,*,#360,.F.);
#517=ORIENTED_EDGE('',*,*,#366,.T.);
#518=ORIENTED_EDGE('',*,*,#373,.T.);
#519=ORIENTED_EDGE('',*,*,#369,.T.);
#520=ORIENTED_EDGE('',*,*,#364,.T.);
#521=ORIENTED_EDGE('',*,*,#368,.T.);
#522=ORIENTED_EDGE('',*,*,#371,.T.);
#523=ORIENTED_EDGE('',*,*,#372,.T.);
#524=CYLINDRICAL_SURFACE('',#582,1.75);
#525=CYLINDRICAL_SURFACE('',#585,10.);
#526=CYLINDRICAL_SURFACE('',#591,10.);
#527=CYLINDRICAL_SURFACE('',#599,10.);
#528=CYLINDRICAL_SURFACE('',#602,10.);
#529=CYLINDRICAL_SURFACE('',#605,1.75);
#530=CYLINDRICAL_SURFACE('',#608,1.75);
#531=CYLINDRICAL_SURFACE('',#611,5.);
#532=CYLINDRICAL_SURFACE('',#620,1.75);
#533=CYLINDRICAL_SURFACE('',#623,1.75);
#534=CYLINDRICAL_SURFACE('',#626,5.);
#535=ADVANCED_FACE('',(#49),#524,.F.);
#536=ADVANCED_FACE('',(#50),#525,.T.);
#537=ADVANCED_FACE('',(#51,#19),#29,.T.);
#538=ADVANCED_FACE('',(#52),#30,.T.);
#539=ADVANCED_FACE('',(#53),#526,.T.);
#540=ADVANCED_FACE('',(#54),#31,.T.);
#541=ADVANCED_FACE('',(#55),#32,.F.);
#542=ADVANCED_FACE('',(#56),#33,.T.);
#543=ADVANCED_FACE('',(#57,#20),#34,.T.);
#544=ADVANCED_FACE('',(#58),#527,.F.);
#545=ADVANCED_FACE('',(#59),#35,.T.);
#546=ADVANCED_FACE('',(#60),#528,.F.);
#547=ADVANCED_FACE('',(#61),#36,.T.);
#548=ADVANCED_FACE('',(#62),#529,.F.);
#549=ADVANCED_FACE('',(#63),#530,.F.);
#550=ADVANCED_FACE('',(#64),#531,.T.);
#551=ADVANCED_FACE('',(#65,#21,#22),#37,.T.);
#552=ADVANCED_FACE('',(#66),#38,.T.);
#553=ADVANCED_FACE('',(#67,#23,#24),#39,.T.);
#554=ADVANCED_FACE('',(#68),#40,.T.);
#555=ADVANCED_FACE('',(#69),#41,.T.);
#556=ADVANCED_FACE('',(#70),#42,.F.);
#557=ADVANCED_FACE('',(#71),#532,.F.);
#558=ADVANCED_FACE('',(#72),#533,.F.);
#559=ADVANCED_FACE('',(#73),#534,.T.);
#560=ADVANCED_FACE('',(#74,#25,#26),#43,.T.);
#561=ADVANCED_FACE('',(#75),#44,.T.);
#562=ADVANCED_FACE('',(#76,#27,#28),#45,.T.);
#563=ADVANCED_FACE('',(#77),#46,.T.);
#564=ADVANCED_FACE('',(#78),#47,.T.);
#565=ADVANCED_FACE('',(#79),#48,.F.);
#566=CLOSED_SHELL('',(#535,#536,#537,#538,#539,#540,#541,#542,#543,#544,
#545,#546,#547));
#567=CLOSED_SHELL('',(#548,#549,#550,#551,#552,#553,#554,#555,#556));
#568=CLOSED_SHELL('',(#557,#558,#559,#560,#561,#562,#563,#564,#565));
#569=DERIVED_UNIT_ELEMENT(#571,1.);
#570=DERIVED_UNIT_ELEMENT(#958,-3.);
#571=(
MASS_UNIT()
NAMED_UNIT(*)
SI_UNIT(.KILO.,.GRAM.)
);
#572=DERIVED_UNIT((#569,#570));
#573=MEASURE_REPRESENTATION_ITEM('density measure',
POSITIVE_RATIO_MEASURE(7850.),#572);
#574=PROPERTY_DEFINITION_REPRESENTATION(#579,#576);
#575=PROPERTY_DEFINITION_REPRESENTATION(#580,#577);
#576=REPRESENTATION('material name',(#578),#955);
#577=REPRESENTATION('density',(#573),#955);
#578=DESCRIPTIVE_REPRESENTATION_ITEM('Steel','Steel');
#579=PROPERTY_DEFINITION('material property','material name',#965);
#580=PROPERTY_DEFINITION('material property','density of part',#965);
#581=AXIS2_PLACEMENT_3D('',#796,#635,#636);
#582=AXIS2_PLACEMENT_3D('',#797,#637,#638);
#583=AXIS2_PLACEMENT_3D('',#799,#639,#640);
#584=AXIS2_PLACEMENT_3D('',#802,#642,#643);
#585=AXIS2_PLACEMENT_3D('',#803,#644,#645);
#586=AXIS2_PLACEMENT_3D('',#806,#646,#647);
#587=AXIS2_PLACEMENT_3D('',#810,#649,#650);
#588=AXIS2_PLACEMENT_3D('',#812,#652,#653);
#589=AXIS2_PLACEMENT_3D('',#816,#655,#656);
#590=AXIS2_PLACEMENT_3D('',#822,#660,#661);
#591=AXIS2_PLACEMENT_3D('',#826,#664,#665);
#592=AXIS2_PLACEMENT_3D('',#828,#666,#667);
#593=AXIS2_PLACEMENT_3D('',#830,#669,#670);
#594=AXIS2_PLACEMENT_3D('',#838,#675,#676);
#595=AXIS2_PLACEMENT_3D('',#843,#678,#679);
#596=AXIS2_PLACEMENT_3D('',#846,#681,#682);
#597=AXIS2_PLACEMENT_3D('',#848,#684,#685);
#598=AXIS2_PLACEMENT_3D('',#853,#689,#690);
#599=AXIS2_PLACEMENT_3D('',#854,#691,#692);
#600=AXIS2_PLACEMENT_3D('',#856,#693,#694);
#601=AXIS2_PLACEMENT_3D('',#858,#696,#697);
#602=AXIS2_PLACEMENT_3D('',#862,#700,#701);
#603=AXIS2_PLACEMENT_3D('',#863,#702,#703);
#604=AXIS2_PLACEMENT_3D('',#864,#704,#705);
#605=AXIS2_PLACEMENT_3D('',#865,#706,#707);
#606=AXIS2_PLACEMENT_3D('',#867,#708,#709);
#607=AXIS2_PLACEMENT_3D('',#870,#711,#712);
#608=AXIS2_PLACEMENT_3D('',#871,#713,#714);
#609=AXIS2_PLACEMENT_3D('',#873,#715,#716);
#610=AXIS2_PLACEMENT_3D('',#876,#718,#719);
#611=AXIS2_PLACEMENT_3D('',#877,#720,#721);
#612=AXIS2_PLACEMENT_3D('',#880,#722,#723);
#613=AXIS2_PLACEMENT_3D('',#884,#725,#726);
#614=AXIS2_PLACEMENT_3D('',#886,#728,#729);
#615=AXIS2_PLACEMENT_3D('',#894,#734,#735);
#616=AXIS2_PLACEMENT_3D('',#898,#738,#739);
#617=AXIS2_PLACEMENT_3D('',#904,#743,#744);
#618=AXIS2_PLACEMENT_3D('',#907,#747,#748);
#619=AXIS2_PLACEMENT_3D('',#908,#749,#750);
#620=AXIS2_PLACEMENT_3D('',#909,#751,#752);
#621=AXIS2_PLACEMENT_3D('',#911,#753,#754);
#622=AXIS2_PLACEMENT_3D('',#914,#756,#757);
#623=AXIS2_PLACEMENT_3D('',#915,#758,#759);
#624=AXIS2_PLACEMENT_3D('',#917,#760,#761);
#625=AXIS2_PLACEMENT_3D('',#920,#763,#764);
#626=AXIS2_PLACEMENT_3D('',#921,#765,#766);
#627=AXIS2_PLACEMENT_3D('',#924,#767,#768);
#628=AXIS2_PLACEMENT_3D('',#928,#770,#771);
#629=AXIS2_PLACEMENT_3D('',#930,#773,#774);
#630=AXIS2_PLACEMENT_3D('',#938,#779,#780);
#631=AXIS2_PLACEMENT_3D('',#942,#783,#784);
#632=AXIS2_PLACEMENT_3D('',#948,#788,#789);
#633=AXIS2_PLACEMENT_3D('',#951,#792,#793);
#634=AXIS2_PLACEMENT_3D('',#952,#794,#795);
#635=DIRECTION('axis',(0.,0.,1.));
#636=DIRECTION('refdir',(1.,0.,0.));
#637=DIRECTION('center_axis',(0.,1.,0.));
#638=DIRECTION('ref_axis',(1.,0.,0.));
#639=DIRECTION('center_axis',(0.,1.,0.));
#640=DIRECTION('ref_axis',(1.,0.,0.));
#641=DIRECTION('',(0.,1.,0.));
#642=DIRECTION('center_axis',(0.,-1.,0.));
#643=DIRECTION('ref_axis',(1.,0.,0.));
#644=DIRECTION('center_axis',(0.,-1.,0.));
#645=DIRECTION('ref_axis',(-0.707106781186547,0.,0.707106781186547));
#646=DIRECTION('center_axis',(0.,1.,0.));
#647=DIRECTION('ref_axis',(-0.707106781186547,0.,0.707106781186547));
#648=DIRECTION('',(0.,1.,0.));
#649=DIRECTION('center_axis',(0.,-1.,0.));
#650=DIRECTION('ref_axis',(-0.707106781186547,0.,0.707106781186547));
#651=DIRECTION('',(0.,-1.,0.));
#652=DIRECTION('center_axis',(0.,1.,0.));
#653=DIRECTION('ref_axis',(-1.,0.,0.));
#654=DIRECTION('',(-1.,0.,0.));
#655=DIRECTION('center_axis',(0.,-1.,0.));
#656=DIRECTION('ref_axis',(0.707106781186547,0.,0.707106781186547));
#657=DIRECTION('',(0.,0.,1.));
#658=DIRECTION('',(1.,0.,0.));
#659=DIRECTION('',(0.,0.,1.));
#660=DIRECTION('center_axis',(0.,0.,1.));
#661=DIRECTION('ref_axis',(1.,0.,0.));
#662=DIRECTION('',(1.,0.,0.));
#663=DIRECTION('',(0.,-1.,0.));
#664=DIRECTION('center_axis',(0.,1.,0.));
#665=DIRECTION('ref_axis',(0.707106781186547,0.,0.707106781186547));
#666=DIRECTION('center_axis',(0.,1.,0.));
#667=DIRECTION('ref_axis',(0.707106781186547,0.,0.707106781186547));
#668=DIRECTION('',(0.,1.,0.));
#669=DIRECTION('center_axis',(1.,0.,0.));
#670=DIRECTION('ref_axis',(0.,1.,0.));
#671=DIRECTION('',(0.,0.,1.));
#672=DIRECTION('',(0.,1.,0.));
#673=DIRECTION('',(0.,0.,1.));
#674=DIRECTION('',(0.,1.,0.));
#675=DIRECTION('center_axis',(0.,0.,1.));
#676=DIRECTION('ref_axis',(1.,0.,0.));
#677=DIRECTION('',(0.,-1.,0.));
#678=DIRECTION('center_axis',(0.,0.,1.));
#679=DIRECTION('ref_axis',(0.,-1.,0.));
#680=DIRECTION('',(-1.,0.,0.));
#681=DIRECTION('center_axis',(0.,0.,1.));
#682=DIRECTION('ref_axis',(-1.,0.,0.));
#683=DIRECTION('',(1.,0.,0.));
#684=DIRECTION('center_axis',(-1.,0.,0.));
#685=DIRECTION('ref_axis',(0.,-1.,0.));
#686=DIRECTION('',(0.,-1.,0.));
#687=DIRECTION('',(0.,0.,1.));
#688=DIRECTION('',(0.,0.,1.));
#689=DIRECTION('center_axis',(0.,-1.,0.));
#690=DIRECTION('ref_axis',(1.,0.,0.));
#691=DIRECTION('center_axis',(0.,0.,1.));
#692=DIRECTION('ref_axis',(0.,-1.,0.));
#693=DIRECTION('center_axis',(0.,0.,-1.));
#694=DIRECTION('ref_axis',(0.,-1.,0.));
#695=DIRECTION('',(0.,0.,1.));
#696=DIRECTION('center_axis',(0.,1.,0.));
#697=DIRECTION('ref_axis',(-1.,0.,0.));
#698=DIRECTION('',(-1.,0.,0.));
#699=DIRECTION('',(0.,0.,1.));
#700=DIRECTION('center_axis',(0.,0.,1.));
#701=DIRECTION('ref_axis',(-1.,0.,0.));
#702=DIRECTION('center_axis',(0.,0.,-1.));
#703=DIRECTION('ref_axis',(-1.,0.,0.));
#704=DIRECTION('center_axis',(0.,0.,1.));
#705=DIRECTION('ref_axis',(1.,0.,0.));
#706=DIRECTION('center_axis',(0.,1.,0.));
#707=DIRECTION('ref_axis',(1.,0.,0.));
#708=DIRECTION('center_axis',(0.,1.,0.));
#709=DIRECTION('ref_axis',(1.,0.,0.));
#710=DIRECTION('',(0.,1.,0.));
#711=DIRECTION('center_axis',(0.,-1.,0.));
#712=DIRECTION('ref_axis',(1.,0.,0.));
#713=DIRECTION('center_axis',(0.,1.,0.));
#714=DIRECTION('ref_axis',(1.,0.,0.));
#715=DIRECTION('center_axis',(0.,1.,0.));
#716=DIRECTION('ref_axis',(1.,0.,0.));
#717=DIRECTION('',(0.,1.,0.));
#718=DIRECTION('center_axis',(0.,-1.,0.));
#719=DIRECTION('ref_axis',(1.,0.,0.));
#720=DIRECTION('center_axis',(0.,-1.,0.));
#721=DIRECTION('ref_axis',(-0.707106781186547,0.,0.707106781186547));
#722=DIRECTION('center_axis',(0.,1.,0.));
#723=DIRECTION('ref_axis',(-0.707106781186547,0.,0.707106781186547));
#724=DIRECTION('',(0.,1.,0.));
#725=DIRECTION('center_axis',(0.,-1.,0.));
#726=DIRECTION('ref_axis',(-0.707106781186547,0.,0.707106781186547));
#727=DIRECTION('',(0.,-1.,0.));
#728=DIRECTION('center_axis',(0.,-1.,0.));
#729=DIRECTION('ref_axis',(1.,0.,0.));
#730=DIRECTION('',(0.,0.,1.));
#731=DIRECTION('',(-1.,0.,0.));
#732=DIRECTION('',(0.,0.,1.));
#733=DIRECTION('',(1.,0.,0.));
#734=DIRECTION('center_axis',(-1.,0.,0.));
#735=DIRECTION('ref_axis',(0.,-1.,0.));
#736=DIRECTION('',(0.,0.,1.));
#737=DIRECTION('',(0.,1.,0.));
#738=DIRECTION('center_axis',(0.,1.,0.));
#739=DIRECTION('ref_axis',(-1.,0.,0.));
#740=DIRECTION('',(-1.,0.,0.));
#741=DIRECTION('',(0.,0.,1.));
#742=DIRECTION('',(1.,0.,0.));
#743=DIRECTION('center_axis',(1.,0.,0.));
#744=DIRECTION('ref_axis',(0.,1.,0.));
#745=DIRECTION('',(0.,-1.,0.));
#746=DIRECTION('',(0.,1.,0.));
#747=DIRECTION('center_axis',(0.,0.,1.));
#748=DIRECTION('ref_axis',(1.,0.,0.));
#749=DIRECTION('center_axis',(0.,0.,1.));
#750=DIRECTION('ref_axis',(1.,0.,0.));
#751=DIRECTION('center_axis',(-1.22464679914735E-16,-1.,0.));
#752=DIRECTION('ref_axis',(-1.,1.22464679914735E-16,0.));
#753=DIRECTION('center_axis',(-1.22464679914735E-16,-1.,0.));
#754=DIRECTION('ref_axis',(-1.,1.22464679914735E-16,0.));
#755=DIRECTION('',(-1.22464679914735E-16,-1.,0.));
#756=DIRECTION('center_axis',(1.22464679914735E-16,1.,0.));
#757=DIRECTION('ref_axis',(-1.,1.22464679914735E-16,0.));
#758=DIRECTION('center_axis',(-1.22464679914735E-16,-1.,0.));
#759=DIRECTION('ref_axis',(-1.,1.22464679914735E-16,0.));
#760=DIRECTION('center_axis',(-1.22464679914735E-16,-1.,0.));
#761=DIRECTION('ref_axis',(-1.,1.22464679914735E-16,0.));
#762=DIRECTION('',(-1.22464679914735E-16,-1.,0.));
#763=DIRECTION('center_axis',(1.22464679914735E-16,1.,0.));
#764=DIRECTION('ref_axis',(-1.,1.22464679914735E-16,0.));
#765=DIRECTION('center_axis',(1.22464679914735E-16,1.,0.));
#766=DIRECTION('ref_axis',(0.707106781186547,-8.65956056235493E-17,0.707106781186547));
#767=DIRECTION('center_axis',(-1.22464679914735E-16,-1.,0.));
#768=DIRECTION('ref_axis',(0.707106781186547,-8.65956056235493E-17,0.707106781186547));
#769=DIRECTION('',(-1.22464679914735E-16,-1.,0.));
#770=DIRECTION('center_axis',(1.22464679914735E-16,1.,0.));
#771=DIRECTION('ref_axis',(0.707106781186547,-8.65956056235493E-17,0.707106781186547));
#772=DIRECTION('',(1.22464679914735E-16,1.,0.));
#773=DIRECTION('center_axis',(1.22464679914735E-16,1.,0.));
#774=DIRECTION('ref_axis',(-1.,1.22464679914735E-16,0.));
#775=DIRECTION('',(0.,0.,1.));
#776=DIRECTION('',(1.,-1.22464679914735E-16,0.));
#777=DIRECTION('',(0.,0.,1.));
#778=DIRECTION('',(-1.,1.22464679914735E-16,0.));
#779=DIRECTION('center_axis',(1.,-1.22464679914735E-16,0.));
#780=DIRECTION('ref_axis',(1.22464679914735E-16,1.,0.));
#781=DIRECTION('',(0.,0.,1.));
#782=DIRECTION('',(-1.22464679914735E-16,-1.,0.));
#783=DIRECTION('center_axis',(-1.22464679914735E-16,-1.,0.));
#784=DIRECTION('ref_axis',(1.,-1.22464679914735E-16,0.));
#785=DIRECTION('',(1.,-1.22464679914735E-16,0.));
#786=DIRECTION('',(0.,0.,1.));
#787=DIRECTION('',(-1.,1.22464679914735E-16,0.));
#788=DIRECTION('center_axis',(-1.,1.22464679914735E-16,0.));
#789=DIRECTION('ref_axis',(-1.22464679914735E-16,-1.,0.));
#790=DIRECTION('',(1.22464679914735E-16,1.,0.));
#791=DIRECTION('',(-1.22464679914735E-16,-1.,0.));
#792=DIRECTION('center_axis',(0.,0.,1.));
#793=DIRECTION('ref_axis',(-1.,1.22464679914735E-16,0.));
#794=DIRECTION('center_axis',(0.,0.,1.));
#795=DIRECTION('ref_axis',(-1.,1.22464679914735E-16,0.));
#796=CARTESIAN_POINT('',(0.,0.,0.));
#797=CARTESIAN_POINT('Origin',(20.0000002980232,0.,13.0000001937151));
#798=CARTESIAN_POINT('',(18.2500002980232,0.,13.0000001937151));
#799=CARTESIAN_POINT('Origin',(20.0000002980232,0.,13.0000001937151));
#800=CARTESIAN_POINT('',(18.2500002980232,5.,13.0000001937151));
#801=CARTESIAN_POINT('',(18.2500002980232,0.,13.0000001937151));
#802=CARTESIAN_POINT('Origin',(20.0000002980232,5.,13.0000001937151));
#803=CARTESIAN_POINT('Origin',(10.,21.25,10.));
#804=CARTESIAN_POINT('',(0.,0.,10.));
#805=CARTESIAN_POINT('',(10.,0.,20.));
#806=CARTESIAN_POINT('Origin',(10.,0.,10.));
#807=CARTESIAN_POINT('',(10.,5.,20.));
#808=CARTESIAN_POINT('',(10.,21.25,20.));
#809=CARTESIAN_POINT('',(0.,5.,10.));
#810=CARTESIAN_POINT('Origin',(10.,5.,10.));
#811=CARTESIAN_POINT('',(0.,21.25,10.));
#812=CARTESIAN_POINT('Origin',(60.,5.,0.));
#813=CARTESIAN_POINT('',(50.,5.,20.));
#814=CARTESIAN_POINT('',(60.,5.,20.));
#815=CARTESIAN_POINT('',(60.,5.,10.));
#816=CARTESIAN_POINT('Origin',(50.,5.,10.));
#817=CARTESIAN_POINT('',(60.,5.,4.));
#818=CARTESIAN_POINT('',(60.,5.,0.));
#819=CARTESIAN_POINT('',(0.,5.,4.));
#820=CARTESIAN_POINT('',(45.,5.,4.));
#821=CARTESIAN_POINT('',(0.,5.,0.));
#822=CARTESIAN_POINT('Origin',(30.,2.5,20.));
#823=CARTESIAN_POINT('',(50.,0.,20.));
#824=CARTESIAN_POINT('',(0.,0.,20.));
#825=CARTESIAN_POINT('',(50.,1.25,20.));
#826=CARTESIAN_POINT('Origin',(50.,1.25,10.));
#827=CARTESIAN_POINT('',(60.,0.,10.));
#828=CARTESIAN_POINT('Origin',(50.,0.,10.));
#829=CARTESIAN_POINT('',(60.,1.25,10.));
#830=CARTESIAN_POINT('Origin',(60.,0.,0.));
#831=CARTESIAN_POINT('',(60.,0.,0.));
#832=CARTESIAN_POINT('',(60.,0.,0.));
#833=CARTESIAN_POINT('',(60.,40.,0.));
#834=CARTESIAN_POINT('',(60.,0.,0.));
#835=CARTESIAN_POINT('',(60.,40.,4.));
#836=CARTESIAN_POINT('',(60.,40.,0.));
#837=CARTESIAN_POINT('',(60.,0.,4.));
#838=CARTESIAN_POINT('Origin',(30.,25.,0.));
#839=CARTESIAN_POINT('',(0.,40.,0.));
#840=CARTESIAN_POINT('',(0.,0.,0.));
#841=CARTESIAN_POINT('',(0.,40.,0.));
#842=CARTESIAN_POINT('',(10.,50.,0.));
#843=CARTESIAN_POINT('Origin',(0.,50.,0.));
#844=CARTESIAN_POINT('',(50.,50.,0.));
#845=CARTESIAN_POINT('',(60.,50.,0.));
#846=CARTESIAN_POINT('Origin',(60.,50.,0.));
#847=CARTESIAN_POINT('',(0.,0.,0.));
#848=CARTESIAN_POINT('Origin',(0.,40.,0.));
#849=CARTESIAN_POINT('',(0.,40.,4.));
#850=CARTESIAN_POINT('',(0.,40.,4.));
#851=CARTESIAN_POINT('',(0.,40.,0.));
#852=CARTESIAN_POINT('',(0.,0.,0.));
#853=CARTESIAN_POINT('Origin',(0.,0.,0.));
#854=CARTESIAN_POINT('Origin',(0.,50.,0.));
#855=CARTESIAN_POINT('',(10.,50.,4.));
#856=CARTESIAN_POINT('Origin',(0.,50.,4.));
#857=CARTESIAN_POINT('',(10.,50.,0.));
#858=CARTESIAN_POINT('Origin',(50.,50.,0.));
#859=CARTESIAN_POINT('',(50.,50.,4.));
#860=CARTESIAN_POINT('',(60.,50.,4.));
#861=CARTESIAN_POINT('',(50.,50.,0.));
#862=CARTESIAN_POINT('Origin',(60.,50.,0.));
#863=CARTESIAN_POINT('Origin',(60.,50.,4.));
#864=CARTESIAN_POINT('Origin',(30.,25.,4.));
#865=CARTESIAN_POINT('Origin',(5.00000007450581,28.,15.0000002235174));
#866=CARTESIAN_POINT('',(3.25000007450581,36.5,15.0000002235174));
#867=CARTESIAN_POINT('Origin',(5.00000007450581,36.5,15.0000002235174));
#868=CARTESIAN_POINT('',(3.25000007450581,40.,15.0000002235174));
#869=CARTESIAN_POINT('',(3.25000007450581,28.,15.0000002235174));
#870=CARTESIAN_POINT('Origin',(5.00000007450581,40.,15.0000002235174));
#871=CARTESIAN_POINT('Origin',(5.00000007450581,28.,9.00000013411045));
#872=CARTESIAN_POINT('',(3.25000007450581,36.5,9.00000013411045));
#873=CARTESIAN_POINT('Origin',(5.00000007450581,36.5,9.00000013411045));
#874=CARTESIAN_POINT('',(3.25000007450581,40.,9.00000013411045));
#875=CARTESIAN_POINT('',(3.25000007450581,28.,9.00000013411045));
#876=CARTESIAN_POINT('Origin',(5.00000007450581,40.,9.00000013411045));
#877=CARTESIAN_POINT('Origin',(5.,39.125,15.));
#878=CARTESIAN_POINT('',(0.,36.5,15.));
#879=CARTESIAN_POINT('',(5.,36.5,20.));
#880=CARTESIAN_POINT('Origin',(5.,36.5,15.));
#881=CARTESIAN_POINT('',(5.,40.,20.));
#882=CARTESIAN_POINT('',(5.,39.125,20.));
#883=CARTESIAN_POINT('',(0.,40.,15.));
#884=CARTESIAN_POINT('Origin',(5.,40.,15.));
#885=CARTESIAN_POINT('',(0.,39.125,15.));
#886=CARTESIAN_POINT('Origin',(0.,36.5,0.));
#887=CARTESIAN_POINT('',(0.,36.5,0.));
#888=CARTESIAN_POINT('',(0.,36.5,0.));
#889=CARTESIAN_POINT('',(10.,36.5,0.));
#890=CARTESIAN_POINT('',(10.,36.5,0.));
#891=CARTESIAN_POINT('',(10.,36.5,20.));
#892=CARTESIAN_POINT('',(10.,36.5,0.));
#893=CARTESIAN_POINT('',(10.,36.5,20.));
#894=CARTESIAN_POINT('Origin',(0.,40.,0.));
#895=CARTESIAN_POINT('',(0.,40.,0.));
#896=CARTESIAN_POINT('',(0.,40.,0.));
#897=CARTESIAN_POINT('',(0.,36.5,0.));
#898=CARTESIAN_POINT('Origin',(10.,40.,0.));
#899=CARTESIAN_POINT('',(10.,40.,20.));
#900=CARTESIAN_POINT('',(0.,40.,20.));
#901=CARTESIAN_POINT('',(10.,40.,0.));
#902=CARTESIAN_POINT('',(10.,40.,0.));
#903=CARTESIAN_POINT('',(0.,40.,0.));
#904=CARTESIAN_POINT('Origin',(10.,36.5,0.));
#905=CARTESIAN_POINT('',(10.,40.,0.));
#906=CARTESIAN_POINT('',(10.,40.,20.));
#907=CARTESIAN_POINT('Origin',(5.,38.25,20.));
#908=CARTESIAN_POINT('Origin',(5.,38.25,0.));
#909=CARTESIAN_POINT('Origin',(54.9999999254942,48.5,15.0000002235174));
#910=CARTESIAN_POINT('',(56.7499999254942,40.,15.0000002235174));
#911=CARTESIAN_POINT('Origin',(54.9999999254942,40.,15.0000002235174));
#912=CARTESIAN_POINT('',(56.7499999254942,36.5,15.0000002235174));
#913=CARTESIAN_POINT('',(56.7499999254942,48.5,15.0000002235174));
#914=CARTESIAN_POINT('Origin',(54.9999999254942,36.5,15.0000002235174));
#915=CARTESIAN_POINT('Origin',(54.9999999254942,48.5,9.00000013411045));
#916=CARTESIAN_POINT('',(56.7499999254942,40.,9.00000013411045));
#917=CARTESIAN_POINT('Origin',(54.9999999254942,40.,9.00000013411045));
#918=CARTESIAN_POINT('',(56.7499999254942,36.5,9.00000013411045));
#919=CARTESIAN_POINT('',(56.7499999254942,48.5,9.00000013411045));
#920=CARTESIAN_POINT('Origin',(54.9999999254942,36.5,9.00000013411045));
#921=CARTESIAN_POINT('Origin',(55.,37.375,15.));
#922=CARTESIAN_POINT('',(60.,40.,15.));
#923=CARTESIAN_POINT('',(55.,40.,20.));
#924=CARTESIAN_POINT('Origin',(55.,40.,15.));
#925=CARTESIAN_POINT('',(55.,36.5,20.));
#926=CARTESIAN_POINT('',(55.,37.375,20.));
#927=CARTESIAN_POINT('',(60.,36.5,15.));
#928=CARTESIAN_POINT('Origin',(55.,36.5,15.));
#929=CARTESIAN_POINT('',(60.,37.375,15.));
#930=CARTESIAN_POINT('Origin',(60.,40.,0.));
#931=CARTESIAN_POINT('',(60.,40.,0.));
#932=CARTESIAN_POINT('',(60.,40.,0.));
#933=CARTESIAN_POINT('',(50.,40.,0.));
#934=CARTESIAN_POINT('',(50.,40.,0.));
#935=CARTESIAN_POINT('',(50.,40.,20.));
#936=CARTESIAN_POINT('',(50.,40.,0.));
#937=CARTESIAN_POINT('',(50.,40.,20.));
#938=CARTESIAN_POINT('Origin',(60.,36.5,0.));
#939=CARTESIAN_POINT('',(60.,36.5,0.));
#940=CARTESIAN_POINT('',(60.,36.5,0.));
#941=CARTESIAN_POINT('',(60.,40.,0.));
#942=CARTESIAN_POINT('Origin',(50.,36.5,0.));
#943=CARTESIAN_POINT('',(50.,36.5,20.));
#944=CARTESIAN_POINT('',(60.,36.5,20.));
#945=CARTESIAN_POINT('',(50.,36.5,0.));
#946=CARTESIAN_POINT('',(50.,36.5,0.));
#947=CARTESIAN_POINT('',(60.,36.5,0.));
#948=CARTESIAN_POINT('Origin',(50.,40.,0.));
#949=CARTESIAN_POINT('',(50.,36.5,0.));
#950=CARTESIAN_POINT('',(50.,36.5,20.));
#951=CARTESIAN_POINT('Origin',(55.,38.25,20.));
#952=CARTESIAN_POINT('Origin',(55.,38.25,0.));
#953=UNCERTAINTY_MEASURE_WITH_UNIT(LENGTH_MEASURE(0.01),#957,
'DISTANCE_ACCURACY_VALUE',
'Maximum model space distance between geometric entities at asserted c
onnectivities');
#954=UNCERTAINTY_MEASURE_WITH_UNIT(LENGTH_MEASURE(0.01),#957,
'DISTANCE_ACCURACY_VALUE',
'Maximum model space distance between geometric entities at asserted c
onnectivities');
#955=(
GEOMETRIC_REPRESENTATION_CONTEXT(3)
GLOBAL_UNCERTAINTY_ASSIGNED_CONTEXT((#953))
GLOBAL_UNIT_ASSIGNED_CONTEXT((#957,#959,#960))
REPRESENTATION_CONTEXT('','3D')
);
#956=(
GEOMETRIC_REPRESENTATION_CONTEXT(3)
GLOBAL_UNCERTAINTY_ASSIGNED_CONTEXT((#954))
GLOBAL_UNIT_ASSIGNED_CONTEXT((#957,#959,#960))
REPRESENTATION_CONTEXT('','3D')
);
#957=(
LENGTH_UNIT()
NAMED_UNIT(*)
SI_UNIT(.MILLI.,.METRE.)
);
#958=(
LENGTH_UNIT()
NAMED_UNIT(*)
SI_UNIT($,.METRE.)
);
#959=(
NAMED_UNIT(*)
PLANE_ANGLE_UNIT()
SI_UNIT($,.RADIAN.)
);
#960=(
NAMED_UNIT(*)
SI_UNIT($,.STERADIAN.)
SOLID_ANGLE_UNIT()
);
#961=SHAPE_DEFINITION_REPRESENTATION(#962,#963);
#962=PRODUCT_DEFINITION_SHAPE('',$,#965);
#963=SHAPE_REPRESENTATION('',(#581),#955);
#964=PRODUCT_DEFINITION_CONTEXT('part definition',#969,'design');
#965=PRODUCT_DEFINITION('foot 1','foot 1',#966,#964);
#966=PRODUCT_DEFINITION_FORMATION('',$,#971);
#967=PRODUCT_RELATED_PRODUCT_CATEGORY('foot 1','foot 1',(#971));
#968=APPLICATION_PROTOCOL_DEFINITION('international standard',
'automotive_design',2009,#969);
#969=APPLICATION_CONTEXT(
'Core Data for Automotive Mechanical Design Process');
#970=PRODUCT_CONTEXT('part definition',#969,'mechanical');
#971=PRODUCT('foot 1','foot 1',$,(#970));
#972=PRESENTATION_STYLE_ASSIGNMENT((#973));
#973=SURFACE_STYLE_USAGE(.BOTH.,#974);
#974=SURFACE_SIDE_STYLE('',(#975));
#975=SURFACE_STYLE_FILL_AREA(#976);
#976=FILL_AREA_STYLE('Steel - Satin',(#977));
#977=FILL_AREA_STYLE_COLOUR('Steel - Satin',#978);
#978=COLOUR_RGB('Steel - Satin',0.627450980392157,0.627450980392157,0.627450980392157);
ENDSEC;
END-ISO-10303-21;
