ISO-10303-21;
HEADER;
/* Generated by software containing ST-Developer
 * from STEP Tools, Inc. (www.steptools.com) 
 */

FILE_DESCRIPTION(
/* description */ (''),
/* implementation_level */ '2;1');

FILE_NAME(
/* name */ 'foot connector 1.step',
/* time_stamp */ '2026-08-21T19:49:52+05:30',
/* author */ (''),
/* organization */ (''),
/* preprocessor_version */ 'ST-DEVELOPER v20.1',
/* originating_system */ 'Autodesk Translation Framework v15.8.0.0',
/* authorisation */ '');

FILE_SCHEMA (('AUTOMOTIVE_DESIGN { 1 0 10303 214 3 1 1 }'));
ENDSEC;

DATA;
#10=MECHANICAL_DESIGN_GEOMETRIC_PRESENTATION_REPRESENTATION('',(#13),#512);
#11=SHAPE_REPRESENTATION_RELATIONSHIP('SRR','None',#519,#12);
#12=ADVANCED_BREP_SHAPE_REPRESENTATION('',(#14),#511);
#13=STYLED_ITEM('',(#528),#14);
#14=MANIFOLD_SOLID_BREP('Body1',#304);
#15=FACE_BOUND('',#56,.T.);
#16=FACE_BOUND('',#57,.T.);
#17=FACE_BOUND('',#59,.T.);
#18=FACE_BOUND('',#60,.T.);
#19=FACE_BOUND('',#61,.T.);
#20=FACE_BOUND('',#69,.T.);
#21=FACE_BOUND('',#70,.T.);
#22=FACE_BOUND('',#71,.T.);
#23=FACE_BOUND('',#72,.T.);
#24=FACE_BOUND('',#73,.T.);
#25=PLANE('',#333);
#26=PLANE('',#334);
#27=PLANE('',#335);
#28=PLANE('',#337);
#29=PLANE('',#340);
#30=PLANE('',#341);
#31=PLANE('',#342);
#32=PLANE('',#343);
#33=PLANE('',#344);
#34=FACE_OUTER_BOUND('',#49,.T.);
#35=FACE_OUTER_BOUND('',#50,.T.);
#36=FACE_OUTER_BOUND('',#51,.T.);
#37=FACE_OUTER_BOUND('',#52,.T.);
#38=FACE_OUTER_BOUND('',#53,.T.);
#39=FACE_OUTER_BOUND('',#54,.T.);
#40=FACE_OUTER_BOUND('',#55,.T.);
#41=FACE_OUTER_BOUND('',#58,.T.);
#42=FACE_OUTER_BOUND('',#62,.T.);
#43=FACE_OUTER_BOUND('',#63,.T.);
#44=FACE_OUTER_BOUND('',#64,.T.);
#45=FACE_OUTER_BOUND('',#65,.T.);
#46=FACE_OUTER_BOUND('',#66,.T.);
#47=FACE_OUTER_BOUND('',#67,.T.);
#48=FACE_OUTER_BOUND('',#68,.T.);
#49=EDGE_LOOP('',(#205,#206,#207,#208));
#50=EDGE_LOOP('',(#209,#210,#211,#212));
#51=EDGE_LOOP('',(#213,#214,#215,#216));
#52=EDGE_LOOP('',(#217,#218,#219,#220));
#53=EDGE_LOOP('',(#221,#222,#223,#224));
#54=EDGE_LOOP('',(#225,#226,#227,#228));
#55=EDGE_LOOP('',(#229,#230,#231,#232));
#56=EDGE_LOOP('',(#233));
#57=EDGE_LOOP('',(#234));
#58=EDGE_LOOP('',(#235,#236,#237,#238,#239,#240));
#59=EDGE_LOOP('',(#241));
#60=EDGE_LOOP('',(#242));
#61=EDGE_LOOP('',(#243));
#62=EDGE_LOOP('',(#244,#245,#246,#247,#248,#249));
#63=EDGE_LOOP('',(#250,#251,#252,#253));
#64=EDGE_LOOP('',(#254,#255,#256,#257));
#65=EDGE_LOOP('',(#258,#259,#260,#261));
#66=EDGE_LOOP('',(#262,#263,#264,#265,#266,#267));
#67=EDGE_LOOP('',(#268,#269,#270,#271));
#68=EDGE_LOOP('',(#272,#273,#274,#275,#276,#277));
#69=EDGE_LOOP('',(#278));
#70=EDGE_LOOP('',(#279));
#71=EDGE_LOOP('',(#280));
#72=EDGE_LOOP('',(#281));
#73=EDGE_LOOP('',(#282));
#74=LINE('',#433,#101);
#75=LINE('',#439,#102);
#76=LINE('',#445,#103);
#77=LINE('',#451,#104);
#78=LINE('',#457,#105);
#79=LINE('',#462,#106);
#80=LINE('',#464,#107);
#81=LINE('',#466,#108);
#82=LINE('',#467,#109);
#83=LINE('',#471,#110);
#84=LINE('',#472,#111);
#85=LINE('',#473,#112);
#86=LINE('',#476,#113);
#87=LINE('',#478,#114);
#88=LINE('',#482,#115);
#89=LINE('',#483,#116);
#90=LINE('',#487,#117);
#91=LINE('',#488,#118);
#92=LINE('',#489,#119);
#93=LINE('',#494,#120);
#94=LINE('',#495,#121);
#95=LINE('',#497,#122);
#96=LINE('',#500,#123);
#97=LINE('',#501,#124);
#98=LINE('',#504,#125);
#99=LINE('',#505,#126);
#100=LINE('',#507,#127);
#101=VECTOR('',#351,3.);
#102=VECTOR('',#358,1.00000001490116);
#103=VECTOR('',#365,0.999999999999999);
#104=VECTOR('',#372,2.);
#105=VECTOR('',#379,2.);
#106=VECTOR('',#384,10.);
#107=VECTOR('',#385,10.);
#108=VECTOR('',#386,10.);
#109=VECTOR('',#387,10.);
#110=VECTOR('',#390,10.);
#111=VECTOR('',#391,10.);
#112=VECTOR('',#392,10.);
#113=VECTOR('',#395,10.);
#114=VECTOR('',#396,10.);
#115=VECTOR('',#399,10.);
#116=VECTOR('',#400,10.);
#117=VECTOR('',#403,10.);
#118=VECTOR('',#404,10.);
#119=VECTOR('',#405,10.);
#120=VECTOR('',#410,10.);
#121=VECTOR('',#411,10.);
#122=VECTOR('',#414,10.);
#123=VECTOR('',#417,10.);
#124=VECTOR('',#418,10.);
#125=VECTOR('',#421,10.);
#126=VECTOR('',#422,10.);
#127=VECTOR('',#425,10.);
#128=CIRCLE('',#319,3.);
#129=CIRCLE('',#320,3.);
#130=CIRCLE('',#322,1.00000001490116);
#131=CIRCLE('',#323,1.00000001490116);
#132=CIRCLE('',#325,0.999999999999999);
#133=CIRCLE('',#326,0.999999999999999);
#134=CIRCLE('',#328,2.);
#135=CIRCLE('',#329,2.);
#136=CIRCLE('',#331,2.);
#137=CIRCLE('',#332,2.);
#138=CIRCLE('',#336,12.5000001862645);
#139=CIRCLE('',#339,12.5000001862645);
#140=VERTEX_POINT('',#430);
#141=VERTEX_POINT('',#432);
#142=VERTEX_POINT('',#436);
#143=VERTEX_POINT('',#438);
#144=VERTEX_POINT('',#442);
#145=VERTEX_POINT('',#444);
#146=VERTEX_POINT('',#448);
#147=VERTEX_POINT('',#450);
#148=VERTEX_POINT('',#454);
#149=VERTEX_POINT('',#456);
#150=VERTEX_POINT('',#460);
#151=VERTEX_POINT('',#461);
#152=VERTEX_POINT('',#463);
#153=VERTEX_POINT('',#465);
#154=VERTEX_POINT('',#469);
#155=VERTEX_POINT('',#470);
#156=VERTEX_POINT('',#475);
#157=VERTEX_POINT('',#477);
#158=VERTEX_POINT('',#479);
#159=VERTEX_POINT('',#481);
#160=VERTEX_POINT('',#485);
#161=VERTEX_POINT('',#486);
#162=VERTEX_POINT('',#491);
#163=VERTEX_POINT('',#492);
#164=VERTEX_POINT('',#499);
#165=VERTEX_POINT('',#503);
#166=EDGE_CURVE('',#140,#140,#128,.T.);
#167=EDGE_CURVE('',#140,#141,#74,.T.);
#168=EDGE_CURVE('',#141,#141,#129,.T.);
#169=EDGE_CURVE('',#142,#142,#130,.T.);
#170=EDGE_CURVE('',#142,#143,#75,.T.);
#171=EDGE_CURVE('',#143,#143,#131,.T.);
#172=EDGE_CURVE('',#144,#144,#132,.T.);
#173=EDGE_CURVE('',#144,#145,#76,.T.);
#174=EDGE_CURVE('',#145,#145,#133,.T.);
#175=EDGE_CURVE('',#146,#146,#134,.T.);
#176=EDGE_CURVE('',#146,#147,#77,.T.);
#177=EDGE_CURVE('',#147,#147,#135,.T.);
#178=EDGE_CURVE('',#148,#148,#136,.T.);
#179=EDGE_CURVE('',#148,#149,#78,.T.);
#180=EDGE_CURVE('',#149,#149,#137,.T.);
#181=EDGE_CURVE('',#150,#151,#79,.T.);
#182=EDGE_CURVE('',#150,#152,#80,.T.);
#183=EDGE_CURVE('',#153,#152,#81,.T.);
#184=EDGE_CURVE('',#151,#153,#82,.T.);
#185=EDGE_CURVE('',#154,#155,#83,.T.);
#186=EDGE_CURVE('',#155,#153,#84,.T.);
#187=EDGE_CURVE('',#152,#154,#85,.T.);
#188=EDGE_CURVE('',#151,#156,#86,.T.);
#189=EDGE_CURVE('',#156,#157,#87,.T.);
#190=EDGE_CURVE('',#157,#158,#138,.T.);
#191=EDGE_CURVE('',#158,#159,#88,.T.);
#192=EDGE_CURVE('',#159,#150,#89,.T.);
#193=EDGE_CURVE('',#160,#161,#90,.T.);
#194=EDGE_CURVE('',#161,#156,#91,.T.);
#195=EDGE_CURVE('',#160,#155,#92,.T.);
#196=EDGE_CURVE('',#162,#163,#139,.T.);
#197=EDGE_CURVE('',#163,#158,#93,.T.);
#198=EDGE_CURVE('',#162,#157,#94,.T.);
#199=EDGE_CURVE('',#162,#161,#95,.T.);
#200=EDGE_CURVE('',#164,#160,#96,.T.);
#201=EDGE_CURVE('',#164,#154,#97,.T.);
#202=EDGE_CURVE('',#165,#159,#98,.T.);
#203=EDGE_CURVE('',#165,#164,#99,.T.);
#204=EDGE_CURVE('',#163,#165,#100,.T.);
#205=ORIENTED_EDGE('',*,*,#166,.F.);
#206=ORIENTED_EDGE('',*,*,#167,.T.);
#207=ORIENTED_EDGE('',*,*,#168,.F.);
#208=ORIENTED_EDGE('',*,*,#167,.F.);
#209=ORIENTED_EDGE('',*,*,#169,.F.);
#210=ORIENTED_EDGE('',*,*,#170,.T.);
#211=ORIENTED_EDGE('',*,*,#171,.F.);
#212=ORIENTED_EDGE('',*,*,#170,.F.);
#213=ORIENTED_EDGE('',*,*,#172,.F.);
#214=ORIENTED_EDGE('',*,*,#173,.T.);
#215=ORIENTED_EDGE('',*,*,#174,.F.);
#216=ORIENTED_EDGE('',*,*,#173,.F.);
#217=ORIENTED_EDGE('',*,*,#175,.F.);
#218=ORIENTED_EDGE('',*,*,#176,.T.);
#219=ORIENTED_EDGE('',*,*,#177,.F.);
#220=ORIENTED_EDGE('',*,*,#176,.F.);
#221=ORIENTED_EDGE('',*,*,#178,.F.);
#222=ORIENTED_EDGE('',*,*,#179,.T.);
#223=ORIENTED_EDGE('',*,*,#180,.F.);
#224=ORIENTED_EDGE('',*,*,#179,.F.);
#225=ORIENTED_EDGE('',*,*,#181,.F.);
#226=ORIENTED_EDGE('',*,*,#182,.T.);
#227=ORIENTED_EDGE('',*,*,#183,.F.);
#228=ORIENTED_EDGE('',*,*,#184,.F.);
#229=ORIENTED_EDGE('',*,*,#185,.T.);
#230=ORIENTED_EDGE('',*,*,#186,.T.);
#231=ORIENTED_EDGE('',*,*,#183,.T.);
#232=ORIENTED_EDGE('',*,*,#187,.T.);
#233=ORIENTED_EDGE('',*,*,#177,.T.);
#234=ORIENTED_EDGE('',*,*,#180,.T.);
#235=ORIENTED_EDGE('',*,*,#181,.T.);
#236=ORIENTED_EDGE('',*,*,#188,.T.);
#237=ORIENTED_EDGE('',*,*,#189,.T.);
#238=ORIENTED_EDGE('',*,*,#190,.T.);
#239=ORIENTED_EDGE('',*,*,#191,.T.);
#240=ORIENTED_EDGE('',*,*,#192,.T.);
#241=ORIENTED_EDGE('',*,*,#168,.T.);
#242=ORIENTED_EDGE('',*,*,#171,.T.);
#243=ORIENTED_EDGE('',*,*,#174,.T.);
#244=ORIENTED_EDGE('',*,*,#193,.T.);
#245=ORIENTED_EDGE('',*,*,#194,.T.);
#246=ORIENTED_EDGE('',*,*,#188,.F.);
#247=ORIENTED_EDGE('',*,*,#184,.T.);
#248=ORIENTED_EDGE('',*,*,#186,.F.);
#249=ORIENTED_EDGE('',*,*,#195,.F.);
#250=ORIENTED_EDGE('',*,*,#196,.T.);
#251=ORIENTED_EDGE('',*,*,#197,.T.);
#252=ORIENTED_EDGE('',*,*,#190,.F.);
#253=ORIENTED_EDGE('',*,*,#198,.F.);
#254=ORIENTED_EDGE('',*,*,#199,.F.);
#255=ORIENTED_EDGE('',*,*,#198,.T.);
#256=ORIENTED_EDGE('',*,*,#189,.F.);
#257=ORIENTED_EDGE('',*,*,#194,.F.);
#258=ORIENTED_EDGE('',*,*,#200,.T.);
#259=ORIENTED_EDGE('',*,*,#195,.T.);
#260=ORIENTED_EDGE('',*,*,#185,.F.);
#261=ORIENTED_EDGE('',*,*,#201,.F.);
#262=ORIENTED_EDGE('',*,*,#192,.F.);
#263=ORIENTED_EDGE('',*,*,#202,.F.);
#264=ORIENTED_EDGE('',*,*,#203,.T.);
#265=ORIENTED_EDGE('',*,*,#201,.T.);
#266=ORIENTED_EDGE('',*,*,#187,.F.);
#267=ORIENTED_EDGE('',*,*,#182,.F.);
#268=ORIENTED_EDGE('',*,*,#204,.T.);
#269=ORIENTED_EDGE('',*,*,#202,.T.);
#270=ORIENTED_EDGE('',*,*,#191,.F.);
#271=ORIENTED_EDGE('',*,*,#197,.F.);
#272=ORIENTED_EDGE('',*,*,#203,.F.);
#273=ORIENTED_EDGE('',*,*,#204,.F.);
#274=ORIENTED_EDGE('',*,*,#196,.F.);
#275=ORIENTED_EDGE('',*,*,#199,.T.);
#276=ORIENTED_EDGE('',*,*,#193,.F.);
#277=ORIENTED_EDGE('',*,*,#200,.F.);
#278=ORIENTED_EDGE('',*,*,#166,.T.);
#279=ORIENTED_EDGE('',*,*,#169,.T.);
#280=ORIENTED_EDGE('',*,*,#172,.T.);
#281=ORIENTED_EDGE('',*,*,#175,.T.);
#282=ORIENTED_EDGE('',*,*,#178,.T.);
#283=CYLINDRICAL_SURFACE('',#318,3.);
#284=CYLINDRICAL_SURFACE('',#321,1.00000001490116);
#285=CYLINDRICAL_SURFACE('',#324,0.999999999999999);
#286=CYLINDRICAL_SURFACE('',#327,2.);
#287=CYLINDRICAL_SURFACE('',#330,2.);
#288=CYLINDRICAL_SURFACE('',#338,12.5000001862645);
#289=ADVANCED_FACE('',(#34),#283,.F.);
#290=ADVANCED_FACE('',(#35),#284,.F.);
#291=ADVANCED_FACE('',(#36),#285,.F.);
#292=ADVANCED_FACE('',(#37),#286,.F.);
#293=ADVANCED_FACE('',(#38),#287,.F.);
#294=ADVANCED_FACE('',(#39),#25,.T.);
#295=ADVANCED_FACE('',(#40,#15,#16),#26,.T.);
#296=ADVANCED_FACE('',(#41,#17,#18,#19),#27,.T.);
#297=ADVANCED_FACE('',(#42),#28,.T.);
#298=ADVANCED_FACE('',(#43),#288,.T.);
#299=ADVANCED_FACE('',(#44),#29,.T.);
#300=ADVANCED_FACE('',(#45),#30,.T.);
#301=ADVANCED_FACE('',(#46),#31,.T.);
#302=ADVANCED_FACE('',(#47),#32,.T.);
#303=ADVANCED_FACE('',(#48,#20,#21,#22,#23,#24),#33,.F.);
#304=CLOSED_SHELL('',(#289,#290,#291,#292,#293,#294,#295,#296,#297,#298,
#299,#300,#301,#302,#303));
#305=DERIVED_UNIT_ELEMENT(#307,1.);
#306=DERIVED_UNIT_ELEMENT(#514,-3.);
#307=(
MASS_UNIT()
NAMED_UNIT(*)
SI_UNIT(.KILO.,.GRAM.)
);
#308=DERIVED_UNIT((#305,#306));
#309=MEASURE_REPRESENTATION_ITEM('density measure',
POSITIVE_RATIO_MEASURE(7850.),#308);
#310=PROPERTY_DEFINITION_REPRESENTATION(#315,#312);
#311=PROPERTY_DEFINITION_REPRESENTATION(#316,#313);
#312=REPRESENTATION('material name',(#314),#511);
#313=REPRESENTATION('density',(#309),#511);
#314=DESCRIPTIVE_REPRESENTATION_ITEM('Steel','Steel');
#315=PROPERTY_DEFINITION('material property','material name',#521);
#316=PROPERTY_DEFINITION('material property','density of part',#521);
#317=AXIS2_PLACEMENT_3D('',#428,#345,#346);
#318=AXIS2_PLACEMENT_3D('',#429,#347,#348);
#319=AXIS2_PLACEMENT_3D('',#431,#349,#350);
#320=AXIS2_PLACEMENT_3D('',#434,#352,#353);
#321=AXIS2_PLACEMENT_3D('',#435,#354,#355);
#322=AXIS2_PLACEMENT_3D('',#437,#356,#357);
#323=AXIS2_PLACEMENT_3D('',#440,#359,#360);
#324=AXIS2_PLACEMENT_3D('',#441,#361,#362);
#325=AXIS2_PLACEMENT_3D('',#443,#363,#364);
#326=AXIS2_PLACEMENT_3D('',#446,#366,#367);
#327=AXIS2_PLACEMENT_3D('',#447,#368,#369);
#328=AXIS2_PLACEMENT_3D('',#449,#370,#371);
#329=AXIS2_PLACEMENT_3D('',#452,#373,#374);
#330=AXIS2_PLACEMENT_3D('',#453,#375,#376);
#331=AXIS2_PLACEMENT_3D('',#455,#377,#378);
#332=AXIS2_PLACEMENT_3D('',#458,#380,#381);
#333=AXIS2_PLACEMENT_3D('',#459,#382,#383);
#334=AXIS2_PLACEMENT_3D('',#468,#388,#389);
#335=AXIS2_PLACEMENT_3D('',#474,#393,#394);
#336=AXIS2_PLACEMENT_3D('',#480,#397,#398);
#337=AXIS2_PLACEMENT_3D('',#484,#401,#402);
#338=AXIS2_PLACEMENT_3D('',#490,#406,#407);
#339=AXIS2_PLACEMENT_3D('',#493,#408,#409);
#340=AXIS2_PLACEMENT_3D('',#496,#412,#413);
#341=AXIS2_PLACEMENT_3D('',#498,#415,#416);
#342=AXIS2_PLACEMENT_3D('',#502,#419,#420);
#343=AXIS2_PLACEMENT_3D('',#506,#423,#424);
#344=AXIS2_PLACEMENT_3D('',#508,#426,#427);
#345=DIRECTION('axis',(0.,0.,1.));
#346=DIRECTION('refdir',(1.,0.,0.));
#347=DIRECTION('center_axis',(0.,0.,1.));
#348=DIRECTION('ref_axis',(1.,0.,0.));
#349=DIRECTION('center_axis',(0.,0.,1.));
#350=DIRECTION('ref_axis',(1.,0.,0.));
#351=DIRECTION('',(0.,0.,1.));
#352=DIRECTION('center_axis',(0.,0.,-1.));
#353=DIRECTION('ref_axis',(1.,0.,0.));
#354=DIRECTION('center_axis',(0.,0.,1.));
#355=DIRECTION('ref_axis',(1.,0.,0.));
#356=DIRECTION('center_axis',(0.,0.,1.));
#357=DIRECTION('ref_axis',(1.,0.,0.));
#358=DIRECTION('',(0.,0.,1.));
#359=DIRECTION('center_axis',(0.,0.,-1.));
#360=DIRECTION('ref_axis',(1.,0.,0.));
#361=DIRECTION('center_axis',(0.,0.,1.));
#362=DIRECTION('ref_axis',(1.,0.,0.));
#363=DIRECTION('center_axis',(0.,0.,1.));
#364=DIRECTION('ref_axis',(1.,0.,0.));
#365=DIRECTION('',(0.,0.,1.));
#366=DIRECTION('center_axis',(0.,0.,-1.));
#367=DIRECTION('ref_axis',(1.,0.,0.));
#368=DIRECTION('center_axis',(0.,0.,1.));
#369=DIRECTION('ref_axis',(1.,0.,0.));
#370=DIRECTION('center_axis',(0.,0.,1.));
#371=DIRECTION('ref_axis',(1.,0.,0.));
#372=DIRECTION('',(0.,0.,1.));
#373=DIRECTION('center_axis',(0.,0.,-1.));
#374=DIRECTION('ref_axis',(1.,0.,0.));
#375=DIRECTION('center_axis',(0.,0.,1.));
#376=DIRECTION('ref_axis',(1.,0.,0.));
#377=DIRECTION('center_axis',(0.,0.,1.));
#378=DIRECTION('ref_axis',(1.,0.,0.));
#379=DIRECTION('',(0.,0.,1.));
#380=DIRECTION('center_axis',(0.,0.,-1.));
#381=DIRECTION('ref_axis',(1.,0.,0.));
#382=DIRECTION('center_axis',(0.,1.,0.));
#383=DIRECTION('ref_axis',(-1.,0.,0.));
#384=DIRECTION('',(1.,0.,0.));
#385=DIRECTION('',(0.,0.,1.));
#386=DIRECTION('',(-1.,0.,0.));
#387=DIRECTION('',(0.,0.,1.));
#388=DIRECTION('center_axis',(0.,0.,1.));
#389=DIRECTION('ref_axis',(1.,0.,0.));
#390=DIRECTION('',(1.,0.,0.));
#391=DIRECTION('',(0.,1.,0.));
#392=DIRECTION('',(0.,-1.,0.));
#393=DIRECTION('center_axis',(0.,0.,1.));
#394=DIRECTION('ref_axis',(1.,0.,0.));
#395=DIRECTION('',(0.,1.,0.));
#396=DIRECTION('',(0.140046878292454,0.990144874187883,0.));
#397=DIRECTION('center_axis',(0.,0.,1.));
#398=DIRECTION('ref_axis',(1.,0.,0.));
#399=DIRECTION('',(0.154419585197341,-0.988005360161311,0.));
#400=DIRECTION('',(0.,-1.,0.));
#401=DIRECTION('center_axis',(1.,0.,0.));
#402=DIRECTION('ref_axis',(0.,1.,0.));
#403=DIRECTION('',(0.,1.,0.));
#404=DIRECTION('',(0.,0.,1.));
#405=DIRECTION('',(0.,0.,1.));
#406=DIRECTION('center_axis',(0.,0.,1.));
#407=DIRECTION('ref_axis',(1.,0.,0.));
#408=DIRECTION('center_axis',(0.,0.,1.));
#409=DIRECTION('ref_axis',(1.,0.,0.));
#410=DIRECTION('',(0.,0.,1.));
#411=DIRECTION('',(0.,0.,1.));
#412=DIRECTION('center_axis',(0.990144874187883,-0.140046878292454,0.));
#413=DIRECTION('ref_axis',(0.140046878292454,0.990144874187883,0.));
#414=DIRECTION('',(-0.140046878292454,-0.990144874187883,0.));
#415=DIRECTION('center_axis',(0.,-1.,0.));
#416=DIRECTION('ref_axis',(1.,0.,0.));
#417=DIRECTION('',(1.,0.,0.));
#418=DIRECTION('',(0.,0.,1.));
#419=DIRECTION('center_axis',(-1.,0.,0.));
#420=DIRECTION('ref_axis',(0.,-1.,0.));
#421=DIRECTION('',(0.,0.,1.));
#422=DIRECTION('',(0.,-1.,0.));
#423=DIRECTION('center_axis',(-0.988005360161311,-0.154419585197341,0.));
#424=DIRECTION('ref_axis',(0.154419585197341,-0.988005360161311,0.));
#425=DIRECTION('',(0.154419585197341,-0.988005360161311,0.));
#426=DIRECTION('center_axis',(0.,0.,1.));
#427=DIRECTION('ref_axis',(1.,0.,0.));
#428=CARTESIAN_POINT('',(0.,0.,0.));
#429=CARTESIAN_POINT('Origin',(10.0000001490116,25.000000372529,0.));
#430=CARTESIAN_POINT('',(7.00000014901161,25.000000372529,0.));
#431=CARTESIAN_POINT('Origin',(10.0000001490116,25.000000372529,0.));
#432=CARTESIAN_POINT('',(7.00000014901161,25.000000372529,3.5));
#433=CARTESIAN_POINT('',(7.00000014901161,25.000000372529,0.));
#434=CARTESIAN_POINT('Origin',(10.0000001490116,25.000000372529,3.5));
#435=CARTESIAN_POINT('Origin',(4.00000005960464,25.000000372529,0.));
#436=CARTESIAN_POINT('',(3.00000004470348,25.000000372529,0.));
#437=CARTESIAN_POINT('Origin',(4.00000005960464,25.000000372529,0.));
#438=CARTESIAN_POINT('',(3.00000004470348,25.000000372529,3.5));
#439=CARTESIAN_POINT('',(3.00000004470348,25.000000372529,0.));
#440=CARTESIAN_POINT('Origin',(4.00000005960464,25.000000372529,3.5));
#441=CARTESIAN_POINT('Origin',(16.0000002384186,25.000000372529,0.));
#442=CARTESIAN_POINT('',(15.0000002384186,25.000000372529,0.));
#443=CARTESIAN_POINT('Origin',(16.0000002384186,25.000000372529,0.));
#444=CARTESIAN_POINT('',(15.0000002384186,25.000000372529,3.5));
#445=CARTESIAN_POINT('',(15.0000002384186,25.000000372529,0.));
#446=CARTESIAN_POINT('Origin',(16.0000002384186,25.000000372529,3.5));
#447=CARTESIAN_POINT('Origin',(3.47665667166274,4.00342283403589,0.));
#448=CARTESIAN_POINT('',(1.47665667166274,4.00342283403589,0.));
#449=CARTESIAN_POINT('Origin',(3.47665667166274,4.00342283403589,0.));
#450=CARTESIAN_POINT('',(1.47665667166274,4.00342283403589,20.));
#451=CARTESIAN_POINT('',(1.47665667166274,4.00342283403589,0.));
#452=CARTESIAN_POINT('Origin',(3.47665667166274,4.00342283403589,20.));
#453=CARTESIAN_POINT('Origin',(17.0000002533197,4.00000005960464,0.));
#454=CARTESIAN_POINT('',(15.0000002533197,4.00000005960464,0.));
#455=CARTESIAN_POINT('Origin',(17.0000002533197,4.00000005960464,0.));
#456=CARTESIAN_POINT('',(15.0000002533197,4.00000005960464,20.));
#457=CARTESIAN_POINT('',(15.0000002533197,4.00000005960464,0.));
#458=CARTESIAN_POINT('Origin',(17.0000002533197,4.00000005960464,20.));
#459=CARTESIAN_POINT('Origin',(20.0000002980232,7.90751099429164,0.));
#460=CARTESIAN_POINT('',(0.,7.90751099429164,3.5));
#461=CARTESIAN_POINT('',(20.,7.90751099429164,3.5));
#462=CARTESIAN_POINT('',(14.9376398240727,7.90751099429164,3.5));
#463=CARTESIAN_POINT('',(0.,7.90751099429164,20.));
#464=CARTESIAN_POINT('',(0.,7.90751099429164,0.));
#465=CARTESIAN_POINT('',(20.0000002980232,7.90751099429164,20.));
#466=CARTESIAN_POINT('',(0.,7.90751099429164,20.));
#467=CARTESIAN_POINT('',(20.0000002980232,7.90751099429164,0.));
#468=CARTESIAN_POINT('Origin',(10.0000001490116,3.95375549714582,20.));
#469=CARTESIAN_POINT('',(0.,0.,20.));
#470=CARTESIAN_POINT('',(20.0000002980232,0.,20.));
#471=CARTESIAN_POINT('',(20.0000002980232,0.,20.));
#472=CARTESIAN_POINT('',(20.0000002980232,7.90751099429164,20.));
#473=CARTESIAN_POINT('',(0.,0.,20.));
#474=CARTESIAN_POINT('Origin',(9.87527935012218,18.6467272690331,3.5));
#475=CARTESIAN_POINT('',(20.,8.,3.5));
#476=CARTESIAN_POINT('',(20.,0.,3.5));
#477=CARTESIAN_POINT('',(22.3752795363867,24.7934543518018,3.5));
#478=CARTESIAN_POINT('',(22.3752795363867,24.7934543518018,3.5));
#479=CARTESIAN_POINT('',(-2.62472083614234,24.7934543518018,3.5));
#480=CARTESIAN_POINT('Origin',(9.87527935012218,24.7934543518018,3.5));
#481=CARTESIAN_POINT('',(0.,8.,3.5));
#482=CARTESIAN_POINT('',(-2.62472083614234,24.7934543518018,3.5));
#483=CARTESIAN_POINT('',(0.,8.,3.5));
#484=CARTESIAN_POINT('Origin',(20.,0.,0.));
#485=CARTESIAN_POINT('',(20.,0.,0.));
#486=CARTESIAN_POINT('',(20.,8.,0.));
#487=CARTESIAN_POINT('',(20.,0.,0.));
#488=CARTESIAN_POINT('',(20.,8.,0.));
#489=CARTESIAN_POINT('',(20.,0.,0.));
#490=CARTESIAN_POINT('Origin',(9.87527935012218,24.7934543518018,0.));
#491=CARTESIAN_POINT('',(22.3752795363867,24.7934543518018,0.));
#492=CARTESIAN_POINT('',(-2.62472083614234,24.7934543518018,0.));
#493=CARTESIAN_POINT('Origin',(9.87527935012218,24.7934543518018,0.));
#494=CARTESIAN_POINT('',(-2.62472083614234,24.7934543518018,0.));
#495=CARTESIAN_POINT('',(22.3752795363867,24.7934543518018,0.));
#496=CARTESIAN_POINT('Origin',(20.,8.,0.));
#497=CARTESIAN_POINT('',(22.3752795363867,24.7934543518018,0.));
#498=CARTESIAN_POINT('Origin',(0.,0.,0.));
#499=CARTESIAN_POINT('',(0.,0.,0.));
#500=CARTESIAN_POINT('',(0.,0.,0.));
#501=CARTESIAN_POINT('',(0.,0.,0.));
#502=CARTESIAN_POINT('Origin',(0.,8.,0.));
#503=CARTESIAN_POINT('',(0.,8.,0.));
#504=CARTESIAN_POINT('',(0.,8.,0.));
#505=CARTESIAN_POINT('',(0.,8.,0.));
#506=CARTESIAN_POINT('Origin',(-2.62472083614234,24.7934543518018,0.));
#507=CARTESIAN_POINT('',(-2.62472083614234,24.7934543518018,0.));
#508=CARTESIAN_POINT('Origin',(9.87527935012218,18.6467272690331,0.));
#509=UNCERTAINTY_MEASURE_WITH_UNIT(LENGTH_MEASURE(0.01),#513,
'DISTANCE_ACCURACY_VALUE',
'Maximum model space distance between geometric entities at asserted c
onnectivities');
#510=UNCERTAINTY_MEASURE_WITH_UNIT(LENGTH_MEASURE(0.01),#513,
'DISTANCE_ACCURACY_VALUE',
'Maximum model space distance between geometric entities at asserted c
onnectivities');
#511=(
GEOMETRIC_REPRESENTATION_CONTEXT(3)
GLOBAL_UNCERTAINTY_ASSIGNED_CONTEXT((#509))
GLOBAL_UNIT_ASSIGNED_CONTEXT((#513,#515,#516))
REPRESENTATION_CONTEXT('','3D')
);
#512=(
GEOMETRIC_REPRESENTATION_CONTEXT(3)
GLOBAL_UNCERTAINTY_ASSIGNED_CONTEXT((#510))
GLOBAL_UNIT_ASSIGNED_CONTEXT((#513,#515,#516))
REPRESENTATION_CONTEXT('','3D')
);
#513=(
LENGTH_UNIT()
NAMED_UNIT(*)
SI_UNIT(.MILLI.,.METRE.)
);
#514=(
LENGTH_UNIT()
NAMED_UNIT(*)
SI_UNIT($,.METRE.)
);
#515=(
NAMED_UNIT(*)
PLANE_ANGLE_UNIT()
SI_UNIT($,.RADIAN.)
);
#516=(
NAMED_UNIT(*)
SI_UNIT($,.STERADIAN.)
SOLID_ANGLE_UNIT()
);
#517=SHAPE_DEFINITION_REPRESENTATION(#518,#519);
#518=PRODUCT_DEFINITION_SHAPE('',$,#521);
#519=SHAPE_REPRESENTATION('',(#317),#511);
#520=PRODUCT_DEFINITION_CONTEXT('part definition',#525,'design');
#521=PRODUCT_DEFINITION('foot connector 1','foot connector 1',#522,#520);
#522=PRODUCT_DEFINITION_FORMATION('',$,#527);
#523=PRODUCT_RELATED_PRODUCT_CATEGORY('foot connector 1',
'foot connector 1',(#527));
#524=APPLICATION_PROTOCOL_DEFINITION('international standard',
'automotive_design',2009,#525);
#525=APPLICATION_CONTEXT(
'Core Data for Automotive Mechanical Design Process');
#526=PRODUCT_CONTEXT('part definition',#525,'mechanical');
#527=PRODUCT('foot connector 1','foot connector 1',$,(#526));
#528=PRESENTATION_STYLE_ASSIGNMENT((#529));
#529=SURFACE_STYLE_USAGE(.BOTH.,#530);
#530=SURFACE_SIDE_STYLE('',(#531));
#531=SURFACE_STYLE_FILL_AREA(#532);
#532=FILL_AREA_STYLE('Steel - Satin',(#533));
#533=FILL_AREA_STYLE_COLOUR('Steel - Satin',#534);
#534=COLOUR_RGB('Steel - Satin',0.627450980392157,0.627450980392157,0.627450980392157);
ENDSEC;
END-ISO-10303-21;
