ISO-10303-21;
HEADER;
/* Generated by software containing ST-Developer
 * from STEP Tools, Inc. (www.steptools.com) 
 */

FILE_DESCRIPTION(
/* description */ (''),
/* implementation_level */ '2;1');

FILE_NAME(
/* name */ 'hip connector.step',
/* time_stamp */ '2026-08-21T19:50:06+05:30',
/* author */ (''),
/* organization */ (''),
/* preprocessor_version */ 'ST-DEVELOPER v20.1',
/* originating_system */ 'Autodesk Translation Framework v15.8.0.0',
/* authorisation */ '');

FILE_SCHEMA (('AUTOMOTIVE_DESIGN { 1 0 10303 214 3 1 1 }'));
ENDSEC;

DATA;
#10=MECHANICAL_DESIGN_GEOMETRIC_PRESENTATION_REPRESENTATION('',(#13,#14,
#15),#921);
#11=SHAPE_REPRESENTATION_RELATIONSHIP('SRR','None',#928,#12);
#12=ADVANCED_BREP_SHAPE_REPRESENTATION('',(#16,#17,#18),#920);
#13=STYLED_ITEM('',(#937),#16);
#14=STYLED_ITEM('',(#937),#17);
#15=STYLED_ITEM('',(#937),#18);
#16=MANIFOLD_SOLID_BREP('Body1',#555);
#17=MANIFOLD_SOLID_BREP('Body2',#556);
#18=MANIFOLD_SOLID_BREP('Body3',#557);
#19=FACE_BOUND('',#86,.T.);
#20=FACE_BOUND('',#87,.T.);
#21=FACE_BOUND('',#95,.T.);
#22=FACE_BOUND('',#96,.T.);
#23=FACE_BOUND('',#104,.T.);
#24=FACE_BOUND('',#105,.T.);
#25=FACE_BOUND('',#108,.T.);
#26=FACE_BOUND('',#109,.T.);
#27=FACE_BOUND('',#116,.T.);
#28=FACE_BOUND('',#117,.T.);
#29=FACE_BOUND('',#120,.T.);
#30=FACE_BOUND('',#121,.T.);
#31=PLANE('',#574);
#32=PLANE('',#575);
#33=PLANE('',#581);
#34=PLANE('',#586);
#35=PLANE('',#587);
#36=PLANE('',#588);
#37=PLANE('',#589);
#38=PLANE('',#590);
#39=PLANE('',#591);
#40=PLANE('',#592);
#41=PLANE('',#599);
#42=PLANE('',#600);
#43=PLANE('',#601);
#44=PLANE('',#602);
#45=PLANE('',#603);
#46=PLANE('',#604);
#47=PLANE('',#611);
#48=PLANE('',#612);
#49=PLANE('',#613);
#50=PLANE('',#614);
#51=PLANE('',#615);
#52=PLANE('',#616);
#53=FACE_OUTER_BOUND('',#83,.T.);
#54=FACE_OUTER_BOUND('',#84,.T.);
#55=FACE_OUTER_BOUND('',#85,.T.);
#56=FACE_OUTER_BOUND('',#88,.T.);
#57=FACE_OUTER_BOUND('',#89,.T.);
#58=FACE_OUTER_BOUND('',#90,.T.);
#59=FACE_OUTER_BOUND('',#91,.T.);
#60=FACE_OUTER_BOUND('',#92,.T.);
#61=FACE_OUTER_BOUND('',#93,.T.);
#62=FACE_OUTER_BOUND('',#94,.T.);
#63=FACE_OUTER_BOUND('',#97,.T.);
#64=FACE_OUTER_BOUND('',#98,.T.);
#65=FACE_OUTER_BOUND('',#99,.T.);
#66=FACE_OUTER_BOUND('',#100,.T.);
#67=FACE_OUTER_BOUND('',#101,.T.);
#68=FACE_OUTER_BOUND('',#102,.T.);
#69=FACE_OUTER_BOUND('',#103,.T.);
#70=FACE_OUTER_BOUND('',#106,.T.);
#71=FACE_OUTER_BOUND('',#107,.T.);
#72=FACE_OUTER_BOUND('',#110,.T.);
#73=FACE_OUTER_BOUND('',#111,.T.);
#74=FACE_OUTER_BOUND('',#112,.T.);
#75=FACE_OUTER_BOUND('',#113,.T.);
#76=FACE_OUTER_BOUND('',#114,.T.);
#77=FACE_OUTER_BOUND('',#115,.T.);
#78=FACE_OUTER_BOUND('',#118,.T.);
#79=FACE_OUTER_BOUND('',#119,.T.);
#80=FACE_OUTER_BOUND('',#122,.T.);
#81=FACE_OUTER_BOUND('',#123,.T.);
#82=FACE_OUTER_BOUND('',#124,.T.);
#83=EDGE_LOOP('',(#373,#374,#375,#376));
#84=EDGE_LOOP('',(#377,#378,#379,#380));
#85=EDGE_LOOP('',(#381,#382,#383,#384,#385,#386));
#86=EDGE_LOOP('',(#387));
#87=EDGE_LOOP('',(#388));
#88=EDGE_LOOP('',(#389,#390,#391,#392));
#89=EDGE_LOOP('',(#393,#394,#395,#396));
#90=EDGE_LOOP('',(#397,#398,#399,#400));
#91=EDGE_LOOP('',(#401,#402,#403,#404));
#92=EDGE_LOOP('',(#405,#406,#407,#408));
#93=EDGE_LOOP('',(#409,#410,#411,#412,#413,#414,#415,#416));
#94=EDGE_LOOP('',(#417,#418,#419,#420,#421,#422,#423,#424,#425,#426));
#95=EDGE_LOOP('',(#427));
#96=EDGE_LOOP('',(#428));
#97=EDGE_LOOP('',(#429,#430,#431,#432));
#98=EDGE_LOOP('',(#433,#434,#435,#436));
#99=EDGE_LOOP('',(#437,#438,#439,#440));
#100=EDGE_LOOP('',(#441,#442,#443,#444));
#101=EDGE_LOOP('',(#445,#446,#447,#448));
#102=EDGE_LOOP('',(#449,#450,#451,#452));
#103=EDGE_LOOP('',(#453,#454,#455,#456));
#104=EDGE_LOOP('',(#457));
#105=EDGE_LOOP('',(#458));
#106=EDGE_LOOP('',(#459,#460,#461,#462));
#107=EDGE_LOOP('',(#463,#464,#465,#466));
#108=EDGE_LOOP('',(#467));
#109=EDGE_LOOP('',(#468));
#110=EDGE_LOOP('',(#469,#470,#471,#472));
#111=EDGE_LOOP('',(#473,#474,#475,#476));
#112=EDGE_LOOP('',(#477,#478,#479,#480));
#113=EDGE_LOOP('',(#481,#482,#483,#484));
#114=EDGE_LOOP('',(#485,#486,#487,#488));
#115=EDGE_LOOP('',(#489,#490,#491,#492));
#116=EDGE_LOOP('',(#493));
#117=EDGE_LOOP('',(#494));
#118=EDGE_LOOP('',(#495,#496,#497,#498));
#119=EDGE_LOOP('',(#499,#500,#501,#502));
#120=EDGE_LOOP('',(#503));
#121=EDGE_LOOP('',(#504));
#122=EDGE_LOOP('',(#505,#506,#507,#508));
#123=EDGE_LOOP('',(#509,#510,#511,#512));
#124=EDGE_LOOP('',(#513,#514,#515,#516));
#125=LINE('',#773,#181);
#126=LINE('',#776,#182);
#127=LINE('',#779,#183);
#128=LINE('',#781,#184);
#129=LINE('',#782,#185);
#130=LINE('',#785,#186);
#131=LINE('',#789,#187);
#132=LINE('',#790,#188);
#133=LINE('',#797,#189);
#134=LINE('',#800,#190);
#135=LINE('',#803,#191);
#136=LINE('',#804,#192);
#137=LINE('',#807,#193);
#138=LINE('',#811,#194);
#139=LINE('',#814,#195);
#140=LINE('',#817,#196);
#141=LINE('',#819,#197);
#142=LINE('',#821,#198);
#143=LINE('',#823,#199);
#144=LINE('',#824,#200);
#145=LINE('',#827,#201);
#146=LINE('',#829,#202);
#147=LINE('',#830,#203);
#148=LINE('',#833,#204);
#149=LINE('',#834,#205);
#150=LINE('',#837,#206);
#151=LINE('',#838,#207);
#152=LINE('',#840,#208);
#153=LINE('',#846,#209);
#154=LINE('',#852,#210);
#155=LINE('',#857,#211);
#156=LINE('',#859,#212);
#157=LINE('',#861,#213);
#158=LINE('',#862,#214);
#159=LINE('',#865,#215);
#160=LINE('',#867,#216);
#161=LINE('',#868,#217);
#162=LINE('',#871,#218);
#163=LINE('',#873,#219);
#164=LINE('',#874,#220);
#165=LINE('',#876,#221);
#166=LINE('',#877,#222);
#167=LINE('',#884,#223);
#168=LINE('',#890,#224);
#169=LINE('',#895,#225);
#170=LINE('',#897,#226);
#171=LINE('',#899,#227);
#172=LINE('',#900,#228);
#173=LINE('',#903,#229);
#174=LINE('',#905,#230);
#175=LINE('',#906,#231);
#176=LINE('',#909,#232);
#177=LINE('',#911,#233);
#178=LINE('',#912,#234);
#179=LINE('',#914,#235);
#180=LINE('',#915,#236);
#181=VECTOR('',#623,10.);
#182=VECTOR('',#626,10.);
#183=VECTOR('',#629,10.);
#184=VECTOR('',#630,10.);
#185=VECTOR('',#631,10.);
#186=VECTOR('',#634,10.);
#187=VECTOR('',#637,10.);
#188=VECTOR('',#638,10.);
#189=VECTOR('',#645,10.);
#190=VECTOR('',#648,10.);
#191=VECTOR('',#651,10.);
#192=VECTOR('',#652,10.);
#193=VECTOR('',#655,1.75);
#194=VECTOR('',#660,1.75);
#195=VECTOR('',#665,10.);
#196=VECTOR('',#668,10.);
#197=VECTOR('',#669,10.);
#198=VECTOR('',#670,10.);
#199=VECTOR('',#671,10.);
#200=VECTOR('',#672,10.);
#201=VECTOR('',#675,10.);
#202=VECTOR('',#676,10.);
#203=VECTOR('',#677,10.);
#204=VECTOR('',#680,10.);
#205=VECTOR('',#681,10.);
#206=VECTOR('',#684,10.);
#207=VECTOR('',#685,10.);
#208=VECTOR('',#688,10.);
#209=VECTOR('',#695,1.75);
#210=VECTOR('',#702,1.75);
#211=VECTOR('',#707,10.);
#212=VECTOR('',#708,10.);
#213=VECTOR('',#709,10.);
#214=VECTOR('',#710,10.);
#215=VECTOR('',#713,10.);
#216=VECTOR('',#714,10.);
#217=VECTOR('',#715,10.);
#218=VECTOR('',#718,10.);
#219=VECTOR('',#719,10.);
#220=VECTOR('',#720,10.);
#221=VECTOR('',#723,10.);
#222=VECTOR('',#724,10.);
#223=VECTOR('',#733,1.75);
#224=VECTOR('',#740,1.75);
#225=VECTOR('',#745,10.);
#226=VECTOR('',#746,10.);
#227=VECTOR('',#747,10.);
#228=VECTOR('',#748,10.);
#229=VECTOR('',#751,10.);
#230=VECTOR('',#752,10.);
#231=VECTOR('',#753,10.);
#232=VECTOR('',#756,10.);
#233=VECTOR('',#757,10.);
#234=VECTOR('',#758,10.);
#235=VECTOR('',#761,10.);
#236=VECTOR('',#762,10.);
#237=CIRCLE('',#572,5.5);
#238=CIRCLE('',#573,5.5);
#239=CIRCLE('',#576,5.5);
#240=CIRCLE('',#577,1.75);
#241=CIRCLE('',#578,1.75);
#242=CIRCLE('',#580,5.5);
#243=CIRCLE('',#583,1.75);
#244=CIRCLE('',#585,1.75);
#245=CIRCLE('',#594,1.75);
#246=CIRCLE('',#595,1.75);
#247=CIRCLE('',#597,1.75);
#248=CIRCLE('',#598,1.75);
#249=CIRCLE('',#606,1.75);
#250=CIRCLE('',#607,1.75);
#251=CIRCLE('',#609,1.75);
#252=CIRCLE('',#610,1.75);
#253=VERTEX_POINT('',#769);
#254=VERTEX_POINT('',#770);
#255=VERTEX_POINT('',#772);
#256=VERTEX_POINT('',#774);
#257=VERTEX_POINT('',#778);
#258=VERTEX_POINT('',#780);
#259=VERTEX_POINT('',#784);
#260=VERTEX_POINT('',#786);
#261=VERTEX_POINT('',#788);
#262=VERTEX_POINT('',#791);
#263=VERTEX_POINT('',#793);
#264=VERTEX_POINT('',#796);
#265=VERTEX_POINT('',#798);
#266=VERTEX_POINT('',#802);
#267=VERTEX_POINT('',#806);
#268=VERTEX_POINT('',#810);
#269=VERTEX_POINT('',#816);
#270=VERTEX_POINT('',#818);
#271=VERTEX_POINT('',#820);
#272=VERTEX_POINT('',#822);
#273=VERTEX_POINT('',#826);
#274=VERTEX_POINT('',#828);
#275=VERTEX_POINT('',#832);
#276=VERTEX_POINT('',#836);
#277=VERTEX_POINT('',#843);
#278=VERTEX_POINT('',#845);
#279=VERTEX_POINT('',#849);
#280=VERTEX_POINT('',#851);
#281=VERTEX_POINT('',#855);
#282=VERTEX_POINT('',#856);
#283=VERTEX_POINT('',#858);
#284=VERTEX_POINT('',#860);
#285=VERTEX_POINT('',#864);
#286=VERTEX_POINT('',#866);
#287=VERTEX_POINT('',#870);
#288=VERTEX_POINT('',#872);
#289=VERTEX_POINT('',#881);
#290=VERTEX_POINT('',#883);
#291=VERTEX_POINT('',#887);
#292=VERTEX_POINT('',#889);
#293=VERTEX_POINT('',#893);
#294=VERTEX_POINT('',#894);
#295=VERTEX_POINT('',#896);
#296=VERTEX_POINT('',#898);
#297=VERTEX_POINT('',#902);
#298=VERTEX_POINT('',#904);
#299=VERTEX_POINT('',#908);
#300=VERTEX_POINT('',#910);
#301=EDGE_CURVE('',#253,#254,#237,.T.);
#302=EDGE_CURVE('',#254,#255,#125,.T.);
#303=EDGE_CURVE('',#255,#256,#238,.T.);
#304=EDGE_CURVE('',#256,#253,#126,.T.);
#305=EDGE_CURVE('',#257,#256,#127,.T.);
#306=EDGE_CURVE('',#258,#257,#128,.T.);
#307=EDGE_CURVE('',#258,#253,#129,.T.);
#308=EDGE_CURVE('',#259,#255,#130,.T.);
#309=EDGE_CURVE('',#260,#259,#239,.T.);
#310=EDGE_CURVE('',#261,#260,#131,.T.);
#311=EDGE_CURVE('',#257,#261,#132,.T.);
#312=EDGE_CURVE('',#262,#262,#240,.T.);
#313=EDGE_CURVE('',#263,#263,#241,.T.);
#314=EDGE_CURVE('',#259,#264,#133,.T.);
#315=EDGE_CURVE('',#264,#265,#242,.T.);
#316=EDGE_CURVE('',#265,#260,#134,.T.);
#317=EDGE_CURVE('',#266,#265,#135,.T.);
#318=EDGE_CURVE('',#261,#266,#136,.T.);
#319=EDGE_CURVE('',#262,#267,#137,.T.);
#320=EDGE_CURVE('',#267,#267,#243,.T.);
#321=EDGE_CURVE('',#263,#268,#138,.T.);
#322=EDGE_CURVE('',#268,#268,#244,.T.);
#323=EDGE_CURVE('',#254,#264,#139,.T.);
#324=EDGE_CURVE('',#269,#266,#140,.T.);
#325=EDGE_CURVE('',#270,#269,#141,.T.);
#326=EDGE_CURVE('',#271,#270,#142,.T.);
#327=EDGE_CURVE('',#272,#271,#143,.T.);
#328=EDGE_CURVE('',#258,#272,#144,.T.);
#329=EDGE_CURVE('',#272,#273,#145,.T.);
#330=EDGE_CURVE('',#274,#273,#146,.T.);
#331=EDGE_CURVE('',#269,#274,#147,.T.);
#332=EDGE_CURVE('',#275,#274,#148,.T.);
#333=EDGE_CURVE('',#270,#275,#149,.T.);
#334=EDGE_CURVE('',#276,#275,#150,.T.);
#335=EDGE_CURVE('',#271,#276,#151,.T.);
#336=EDGE_CURVE('',#273,#276,#152,.T.);
#337=EDGE_CURVE('',#277,#277,#245,.T.);
#338=EDGE_CURVE('',#277,#278,#153,.T.);
#339=EDGE_CURVE('',#278,#278,#246,.T.);
#340=EDGE_CURVE('',#279,#279,#247,.T.);
#341=EDGE_CURVE('',#279,#280,#154,.T.);
#342=EDGE_CURVE('',#280,#280,#248,.T.);
#343=EDGE_CURVE('',#281,#282,#155,.T.);
#344=EDGE_CURVE('',#281,#283,#156,.T.);
#345=EDGE_CURVE('',#284,#283,#157,.T.);
#346=EDGE_CURVE('',#282,#284,#158,.T.);
#347=EDGE_CURVE('',#282,#285,#159,.T.);
#348=EDGE_CURVE('',#286,#284,#160,.T.);
#349=EDGE_CURVE('',#285,#286,#161,.T.);
#350=EDGE_CURVE('',#285,#287,#162,.T.);
#351=EDGE_CURVE('',#288,#286,#163,.T.);
#352=EDGE_CURVE('',#287,#288,#164,.T.);
#353=EDGE_CURVE('',#287,#281,#165,.T.);
#354=EDGE_CURVE('',#283,#288,#166,.T.);
#355=EDGE_CURVE('',#289,#289,#249,.T.);
#356=EDGE_CURVE('',#289,#290,#167,.T.);
#357=EDGE_CURVE('',#290,#290,#250,.T.);
#358=EDGE_CURVE('',#291,#291,#251,.T.);
#359=EDGE_CURVE('',#291,#292,#168,.T.);
#360=EDGE_CURVE('',#292,#292,#252,.T.);
#361=EDGE_CURVE('',#293,#294,#169,.T.);
#362=EDGE_CURVE('',#293,#295,#170,.T.);
#363=EDGE_CURVE('',#296,#295,#171,.T.);
#364=EDGE_CURVE('',#294,#296,#172,.T.);
#365=EDGE_CURVE('',#294,#297,#173,.T.);
#366=EDGE_CURVE('',#298,#296,#174,.T.);
#367=EDGE_CURVE('',#297,#298,#175,.T.);
#368=EDGE_CURVE('',#297,#299,#176,.T.);
#369=EDGE_CURVE('',#300,#298,#177,.T.);
#370=EDGE_CURVE('',#299,#300,#178,.T.);
#371=EDGE_CURVE('',#299,#293,#179,.T.);
#372=EDGE_CURVE('',#295,#300,#180,.T.);
#373=ORIENTED_EDGE('',*,*,#301,.T.);
#374=ORIENTED_EDGE('',*,*,#302,.T.);
#375=ORIENTED_EDGE('',*,*,#303,.T.);
#376=ORIENTED_EDGE('',*,*,#304,.T.);
#377=ORIENTED_EDGE('',*,*,#304,.F.);
#378=ORIENTED_EDGE('',*,*,#305,.F.);
#379=ORIENTED_EDGE('',*,*,#306,.F.);
#380=ORIENTED_EDGE('',*,*,#307,.T.);
#381=ORIENTED_EDGE('',*,*,#303,.F.);
#382=ORIENTED_EDGE('',*,*,#308,.F.);
#383=ORIENTED_EDGE('',*,*,#309,.F.);
#384=ORIENTED_EDGE('',*,*,#310,.F.);
#385=ORIENTED_EDGE('',*,*,#311,.F.);
#386=ORIENTED_EDGE('',*,*,#305,.T.);
#387=ORIENTED_EDGE('',*,*,#312,.T.);
#388=ORIENTED_EDGE('',*,*,#313,.T.);
#389=ORIENTED_EDGE('',*,*,#309,.T.);
#390=ORIENTED_EDGE('',*,*,#314,.T.);
#391=ORIENTED_EDGE('',*,*,#315,.T.);
#392=ORIENTED_EDGE('',*,*,#316,.T.);
#393=ORIENTED_EDGE('',*,*,#316,.F.);
#394=ORIENTED_EDGE('',*,*,#317,.F.);
#395=ORIENTED_EDGE('',*,*,#318,.F.);
#396=ORIENTED_EDGE('',*,*,#310,.T.);
#397=ORIENTED_EDGE('',*,*,#312,.F.);
#398=ORIENTED_EDGE('',*,*,#319,.T.);
#399=ORIENTED_EDGE('',*,*,#320,.F.);
#400=ORIENTED_EDGE('',*,*,#319,.F.);
#401=ORIENTED_EDGE('',*,*,#313,.F.);
#402=ORIENTED_EDGE('',*,*,#321,.T.);
#403=ORIENTED_EDGE('',*,*,#322,.F.);
#404=ORIENTED_EDGE('',*,*,#321,.F.);
#405=ORIENTED_EDGE('',*,*,#302,.F.);
#406=ORIENTED_EDGE('',*,*,#323,.T.);
#407=ORIENTED_EDGE('',*,*,#314,.F.);
#408=ORIENTED_EDGE('',*,*,#308,.T.);
#409=ORIENTED_EDGE('',*,*,#306,.T.);
#410=ORIENTED_EDGE('',*,*,#311,.T.);
#411=ORIENTED_EDGE('',*,*,#318,.T.);
#412=ORIENTED_EDGE('',*,*,#324,.F.);
#413=ORIENTED_EDGE('',*,*,#325,.F.);
#414=ORIENTED_EDGE('',*,*,#326,.F.);
#415=ORIENTED_EDGE('',*,*,#327,.F.);
#416=ORIENTED_EDGE('',*,*,#328,.F.);
#417=ORIENTED_EDGE('',*,*,#301,.F.);
#418=ORIENTED_EDGE('',*,*,#307,.F.);
#419=ORIENTED_EDGE('',*,*,#328,.T.);
#420=ORIENTED_EDGE('',*,*,#329,.T.);
#421=ORIENTED_EDGE('',*,*,#330,.F.);
#422=ORIENTED_EDGE('',*,*,#331,.F.);
#423=ORIENTED_EDGE('',*,*,#324,.T.);
#424=ORIENTED_EDGE('',*,*,#317,.T.);
#425=ORIENTED_EDGE('',*,*,#315,.F.);
#426=ORIENTED_EDGE('',*,*,#323,.F.);
#427=ORIENTED_EDGE('',*,*,#320,.T.);
#428=ORIENTED_EDGE('',*,*,#322,.T.);
#429=ORIENTED_EDGE('',*,*,#325,.T.);
#430=ORIENTED_EDGE('',*,*,#331,.T.);
#431=ORIENTED_EDGE('',*,*,#332,.F.);
#432=ORIENTED_EDGE('',*,*,#333,.F.);
#433=ORIENTED_EDGE('',*,*,#326,.T.);
#434=ORIENTED_EDGE('',*,*,#333,.T.);
#435=ORIENTED_EDGE('',*,*,#334,.F.);
#436=ORIENTED_EDGE('',*,*,#335,.F.);
#437=ORIENTED_EDGE('',*,*,#327,.T.);
#438=ORIENTED_EDGE('',*,*,#335,.T.);
#439=ORIENTED_EDGE('',*,*,#336,.F.);
#440=ORIENTED_EDGE('',*,*,#329,.F.);
#441=ORIENTED_EDGE('',*,*,#336,.T.);
#442=ORIENTED_EDGE('',*,*,#334,.T.);
#443=ORIENTED_EDGE('',*,*,#332,.T.);
#444=ORIENTED_EDGE('',*,*,#330,.T.);
#445=ORIENTED_EDGE('',*,*,#337,.F.);
#446=ORIENTED_EDGE('',*,*,#338,.T.);
#447=ORIENTED_EDGE('',*,*,#339,.F.);
#448=ORIENTED_EDGE('',*,*,#338,.F.);
#449=ORIENTED_EDGE('',*,*,#340,.F.);
#450=ORIENTED_EDGE('',*,*,#341,.T.);
#451=ORIENTED_EDGE('',*,*,#342,.F.);
#452=ORIENTED_EDGE('',*,*,#341,.F.);
#453=ORIENTED_EDGE('',*,*,#343,.F.);
#454=ORIENTED_EDGE('',*,*,#344,.T.);
#455=ORIENTED_EDGE('',*,*,#345,.F.);
#456=ORIENTED_EDGE('',*,*,#346,.F.);
#457=ORIENTED_EDGE('',*,*,#337,.T.);
#458=ORIENTED_EDGE('',*,*,#340,.T.);
#459=ORIENTED_EDGE('',*,*,#347,.F.);
#460=ORIENTED_EDGE('',*,*,#346,.T.);
#461=ORIENTED_EDGE('',*,*,#348,.F.);
#462=ORIENTED_EDGE('',*,*,#349,.F.);
#463=ORIENTED_EDGE('',*,*,#350,.F.);
#464=ORIENTED_EDGE('',*,*,#349,.T.);
#465=ORIENTED_EDGE('',*,*,#351,.F.);
#466=ORIENTED_EDGE('',*,*,#352,.F.);
#467=ORIENTED_EDGE('',*,*,#339,.T.);
#468=ORIENTED_EDGE('',*,*,#342,.T.);
#469=ORIENTED_EDGE('',*,*,#353,.F.);
#470=ORIENTED_EDGE('',*,*,#352,.T.);
#471=ORIENTED_EDGE('',*,*,#354,.F.);
#472=ORIENTED_EDGE('',*,*,#344,.F.);
#473=ORIENTED_EDGE('',*,*,#354,.T.);
#474=ORIENTED_EDGE('',*,*,#351,.T.);
#475=ORIENTED_EDGE('',*,*,#348,.T.);
#476=ORIENTED_EDGE('',*,*,#345,.T.);
#477=ORIENTED_EDGE('',*,*,#353,.T.);
#478=ORIENTED_EDGE('',*,*,#343,.T.);
#479=ORIENTED_EDGE('',*,*,#347,.T.);
#480=ORIENTED_EDGE('',*,*,#350,.T.);
#481=ORIENTED_EDGE('',*,*,#355,.F.);
#482=ORIENTED_EDGE('',*,*,#356,.T.);
#483=ORIENTED_EDGE('',*,*,#357,.F.);
#484=ORIENTED_EDGE('',*,*,#356,.F.);
#485=ORIENTED_EDGE('',*,*,#358,.F.);
#486=ORIENTED_EDGE('',*,*,#359,.T.);
#487=ORIENTED_EDGE('',*,*,#360,.F.);
#488=ORIENTED_EDGE('',*,*,#359,.F.);
#489=ORIENTED_EDGE('',*,*,#361,.F.);
#490=ORIENTED_EDGE('',*,*,#362,.T.);
#491=ORIENTED_EDGE('',*,*,#363,.F.);
#492=ORIENTED_EDGE('',*,*,#364,.F.);
#493=ORIENTED_EDGE('',*,*,#355,.T.);
#494=ORIENTED_EDGE('',*,*,#358,.T.);
#495=ORIENTED_EDGE('',*,*,#365,.F.);
#496=ORIENTED_EDGE('',*,*,#364,.T.);
#497=ORIENTED_EDGE('',*,*,#366,.F.);
#498=ORIENTED_EDGE('',*,*,#367,.F.);
#499=ORIENTED_EDGE('',*,*,#368,.F.);
#500=ORIENTED_EDGE('',*,*,#367,.T.);
#501=ORIENTED_EDGE('',*,*,#369,.F.);
#502=ORIENTED_EDGE('',*,*,#370,.F.);
#503=ORIENTED_EDGE('',*,*,#357,.T.);
#504=ORIENTED_EDGE('',*,*,#360,.T.);
#505=ORIENTED_EDGE('',*,*,#371,.F.);
#506=ORIENTED_EDGE('',*,*,#370,.T.);
#507=ORIENTED_EDGE('',*,*,#372,.F.);
#508=ORIENTED_EDGE('',*,*,#362,.F.);
#509=ORIENTED_EDGE('',*,*,#372,.T.);
#510=ORIENTED_EDGE('',*,*,#369,.T.);
#511=ORIENTED_EDGE('',*,*,#366,.T.);
#512=ORIENTED_EDGE('',*,*,#363,.T.);
#513=ORIENTED_EDGE('',*,*,#371,.T.);
#514=ORIENTED_EDGE('',*,*,#361,.T.);
#515=ORIENTED_EDGE('',*,*,#365,.T.);
#516=ORIENTED_EDGE('',*,*,#368,.T.);
#517=CYLINDRICAL_SURFACE('',#571,5.5);
#518=CYLINDRICAL_SURFACE('',#579,5.5);
#519=CYLINDRICAL_SURFACE('',#582,1.75);
#520=CYLINDRICAL_SURFACE('',#584,1.75);
#521=CYLINDRICAL_SURFACE('',#593,1.75);
#522=CYLINDRICAL_SURFACE('',#596,1.75);
#523=CYLINDRICAL_SURFACE('',#605,1.75);
#524=CYLINDRICAL_SURFACE('',#608,1.75);
#525=ADVANCED_FACE('',(#53),#517,.T.);
#526=ADVANCED_FACE('',(#54),#31,.T.);
#527=ADVANCED_FACE('',(#55,#19,#20),#32,.T.);
#528=ADVANCED_FACE('',(#56),#518,.T.);
#529=ADVANCED_FACE('',(#57),#33,.T.);
#530=ADVANCED_FACE('',(#58),#519,.F.);
#531=ADVANCED_FACE('',(#59),#520,.F.);
#532=ADVANCED_FACE('',(#60),#34,.T.);
#533=ADVANCED_FACE('',(#61),#35,.F.);
#534=ADVANCED_FACE('',(#62,#21,#22),#36,.T.);
#535=ADVANCED_FACE('',(#63),#37,.T.);
#536=ADVANCED_FACE('',(#64),#38,.T.);
#537=ADVANCED_FACE('',(#65),#39,.T.);
#538=ADVANCED_FACE('',(#66),#40,.T.);
#539=ADVANCED_FACE('',(#67),#521,.F.);
#540=ADVANCED_FACE('',(#68),#522,.F.);
#541=ADVANCED_FACE('',(#69,#23,#24),#41,.T.);
#542=ADVANCED_FACE('',(#70),#42,.T.);
#543=ADVANCED_FACE('',(#71,#25,#26),#43,.T.);
#544=ADVANCED_FACE('',(#72),#44,.T.);
#545=ADVANCED_FACE('',(#73),#45,.T.);
#546=ADVANCED_FACE('',(#74),#46,.F.);
#547=ADVANCED_FACE('',(#75),#523,.F.);
#548=ADVANCED_FACE('',(#76),#524,.F.);
#549=ADVANCED_FACE('',(#77,#27,#28),#47,.T.);
#550=ADVANCED_FACE('',(#78),#48,.T.);
#551=ADVANCED_FACE('',(#79,#29,#30),#49,.T.);
#552=ADVANCED_FACE('',(#80),#50,.T.);
#553=ADVANCED_FACE('',(#81),#51,.T.);
#554=ADVANCED_FACE('',(#82),#52,.F.);
#555=CLOSED_SHELL('',(#525,#526,#527,#528,#529,#530,#531,#532,#533,#534,
#535,#536,#537,#538));
#556=CLOSED_SHELL('',(#539,#540,#541,#542,#543,#544,#545,#546));
#557=CLOSED_SHELL('',(#547,#548,#549,#550,#551,#552,#553,#554));
#558=DERIVED_UNIT_ELEMENT(#560,1.);
#559=DERIVED_UNIT_ELEMENT(#923,-3.);
#560=(
MASS_UNIT()
NAMED_UNIT(*)
SI_UNIT(.KILO.,.GRAM.)
);
#561=DERIVED_UNIT((#558,#559));
#562=MEASURE_REPRESENTATION_ITEM('density measure',
POSITIVE_RATIO_MEASURE(7850.),#561);
#563=PROPERTY_DEFINITION_REPRESENTATION(#568,#565);
#564=PROPERTY_DEFINITION_REPRESENTATION(#569,#566);
#565=REPRESENTATION('material name',(#567),#920);
#566=REPRESENTATION('density',(#562),#920);
#567=DESCRIPTIVE_REPRESENTATION_ITEM('Steel','Steel');
#568=PROPERTY_DEFINITION('material property','material name',#930);
#569=PROPERTY_DEFINITION('material property','density of part',#930);
#570=AXIS2_PLACEMENT_3D('',#767,#617,#618);
#571=AXIS2_PLACEMENT_3D('',#768,#619,#620);
#572=AXIS2_PLACEMENT_3D('',#771,#621,#622);
#573=AXIS2_PLACEMENT_3D('',#775,#624,#625);
#574=AXIS2_PLACEMENT_3D('',#777,#627,#628);
#575=AXIS2_PLACEMENT_3D('',#783,#632,#633);
#576=AXIS2_PLACEMENT_3D('',#787,#635,#636);
#577=AXIS2_PLACEMENT_3D('',#792,#639,#640);
#578=AXIS2_PLACEMENT_3D('',#794,#641,#642);
#579=AXIS2_PLACEMENT_3D('',#795,#643,#644);
#580=AXIS2_PLACEMENT_3D('',#799,#646,#647);
#581=AXIS2_PLACEMENT_3D('',#801,#649,#650);
#582=AXIS2_PLACEMENT_3D('',#805,#653,#654);
#583=AXIS2_PLACEMENT_3D('',#808,#656,#657);
#584=AXIS2_PLACEMENT_3D('',#809,#658,#659);
#585=AXIS2_PLACEMENT_3D('',#812,#661,#662);
#586=AXIS2_PLACEMENT_3D('',#813,#663,#664);
#587=AXIS2_PLACEMENT_3D('',#815,#666,#667);
#588=AXIS2_PLACEMENT_3D('',#825,#673,#674);
#589=AXIS2_PLACEMENT_3D('',#831,#678,#679);
#590=AXIS2_PLACEMENT_3D('',#835,#682,#683);
#591=AXIS2_PLACEMENT_3D('',#839,#686,#687);
#592=AXIS2_PLACEMENT_3D('',#841,#689,#690);
#593=AXIS2_PLACEMENT_3D('',#842,#691,#692);
#594=AXIS2_PLACEMENT_3D('',#844,#693,#694);
#595=AXIS2_PLACEMENT_3D('',#847,#696,#697);
#596=AXIS2_PLACEMENT_3D('',#848,#698,#699);
#597=AXIS2_PLACEMENT_3D('',#850,#700,#701);
#598=AXIS2_PLACEMENT_3D('',#853,#703,#704);
#599=AXIS2_PLACEMENT_3D('',#854,#705,#706);
#600=AXIS2_PLACEMENT_3D('',#863,#711,#712);
#601=AXIS2_PLACEMENT_3D('',#869,#716,#717);
#602=AXIS2_PLACEMENT_3D('',#875,#721,#722);
#603=AXIS2_PLACEMENT_3D('',#878,#725,#726);
#604=AXIS2_PLACEMENT_3D('',#879,#727,#728);
#605=AXIS2_PLACEMENT_3D('',#880,#729,#730);
#606=AXIS2_PLACEMENT_3D('',#882,#731,#732);
#607=AXIS2_PLACEMENT_3D('',#885,#734,#735);
#608=AXIS2_PLACEMENT_3D('',#886,#736,#737);
#609=AXIS2_PLACEMENT_3D('',#888,#738,#739);
#610=AXIS2_PLACEMENT_3D('',#891,#741,#742);
#611=AXIS2_PLACEMENT_3D('',#892,#743,#744);
#612=AXIS2_PLACEMENT_3D('',#901,#749,#750);
#613=AXIS2_PLACEMENT_3D('',#907,#754,#755);
#614=AXIS2_PLACEMENT_3D('',#913,#759,#760);
#615=AXIS2_PLACEMENT_3D('',#916,#763,#764);
#616=AXIS2_PLACEMENT_3D('',#917,#765,#766);
#617=DIRECTION('axis',(0.,0.,1.));
#618=DIRECTION('refdir',(1.,0.,0.));
#619=DIRECTION('center_axis',(0.,1.,0.));
#620=DIRECTION('ref_axis',(-0.707106781186547,0.,-0.707106781186548));
#621=DIRECTION('center_axis',(0.,-1.,0.));
#622=DIRECTION('ref_axis',(-0.707106781186547,0.,-0.707106781186548));
#623=DIRECTION('',(0.,-1.,0.));
#624=DIRECTION('center_axis',(0.,1.,0.));
#625=DIRECTION('ref_axis',(-0.707106781186547,0.,-0.707106781186548));
#626=DIRECTION('',(0.,1.,0.));
#627=DIRECTION('center_axis',(-1.,0.,0.));
#628=DIRECTION('ref_axis',(0.,1.,0.));
#629=DIRECTION('',(0.,0.,-1.));
#630=DIRECTION('',(0.,-1.,0.));
#631=DIRECTION('',(0.,0.,-1.));
#632=DIRECTION('center_axis',(0.,-1.,0.));
#633=DIRECTION('ref_axis',(-1.,0.,0.));
#634=DIRECTION('',(-1.,0.,0.));
#635=DIRECTION('center_axis',(0.,1.,0.));
#636=DIRECTION('ref_axis',(0.707106781186547,0.,-0.707106781186548));
#637=DIRECTION('',(0.,0.,-1.));
#638=DIRECTION('',(1.,0.,0.));
#639=DIRECTION('center_axis',(0.,1.,0.));
#640=DIRECTION('ref_axis',(1.,0.,0.));
#641=DIRECTION('center_axis',(0.,1.,0.));
#642=DIRECTION('ref_axis',(1.,0.,0.));
#643=DIRECTION('center_axis',(0.,-1.,0.));
#644=DIRECTION('ref_axis',(0.707106781186547,0.,-0.707106781186548));
#645=DIRECTION('',(0.,1.,0.));
#646=DIRECTION('center_axis',(0.,-1.,0.));
#647=DIRECTION('ref_axis',(0.707106781186547,0.,-0.707106781186548));
#648=DIRECTION('',(0.,-1.,0.));
#649=DIRECTION('center_axis',(1.,0.,0.));
#650=DIRECTION('ref_axis',(0.,-1.,0.));
#651=DIRECTION('',(0.,0.,-1.));
#652=DIRECTION('',(0.,1.,0.));
#653=DIRECTION('center_axis',(0.,1.,0.));
#654=DIRECTION('ref_axis',(1.,0.,0.));
#655=DIRECTION('',(0.,1.,0.));
#656=DIRECTION('center_axis',(0.,-1.,0.));
#657=DIRECTION('ref_axis',(1.,0.,0.));
#658=DIRECTION('center_axis',(0.,1.,0.));
#659=DIRECTION('ref_axis',(1.,0.,0.));
#660=DIRECTION('',(0.,1.,0.));
#661=DIRECTION('center_axis',(0.,-1.,0.));
#662=DIRECTION('ref_axis',(1.,0.,0.));
#663=DIRECTION('center_axis',(0.,0.,-1.));
#664=DIRECTION('ref_axis',(-1.,0.,0.));
#665=DIRECTION('',(1.,0.,0.));
#666=DIRECTION('center_axis',(0.,0.,1.));
#667=DIRECTION('ref_axis',(1.,0.,0.));
#668=DIRECTION('',(-1.,0.,0.));
#669=DIRECTION('',(0.,1.,0.));
#670=DIRECTION('',(1.,0.,0.));
#671=DIRECTION('',(0.,-1.,0.));
#672=DIRECTION('',(-1.,0.,0.));
#673=DIRECTION('center_axis',(0.,1.,0.));
#674=DIRECTION('ref_axis',(-1.,0.,0.));
#675=DIRECTION('',(0.,0.,1.));
#676=DIRECTION('',(-1.,0.,0.));
#677=DIRECTION('',(0.,0.,1.));
#678=DIRECTION('center_axis',(1.,0.,0.));
#679=DIRECTION('ref_axis',(0.,1.,0.));
#680=DIRECTION('',(0.,1.,0.));
#681=DIRECTION('',(0.,0.,1.));
#682=DIRECTION('center_axis',(0.,-1.,0.));
#683=DIRECTION('ref_axis',(1.,0.,0.));
#684=DIRECTION('',(1.,0.,0.));
#685=DIRECTION('',(0.,0.,1.));
#686=DIRECTION('center_axis',(-1.,0.,0.));
#687=DIRECTION('ref_axis',(0.,-1.,0.));
#688=DIRECTION('',(0.,-1.,0.));
#689=DIRECTION('center_axis',(0.,0.,1.));
#690=DIRECTION('ref_axis',(1.,0.,0.));
#691=DIRECTION('center_axis',(1.,0.,0.));
#692=DIRECTION('ref_axis',(0.,1.,0.));
#693=DIRECTION('center_axis',(1.,0.,0.));
#694=DIRECTION('ref_axis',(0.,1.,0.));
#695=DIRECTION('',(1.,0.,0.));
#696=DIRECTION('center_axis',(-1.,0.,0.));
#697=DIRECTION('ref_axis',(0.,1.,0.));
#698=DIRECTION('center_axis',(1.,0.,0.));
#699=DIRECTION('ref_axis',(0.,1.,0.));
#700=DIRECTION('center_axis',(1.,0.,0.));
#701=DIRECTION('ref_axis',(0.,1.,0.));
#702=DIRECTION('',(1.,0.,0.));
#703=DIRECTION('center_axis',(-1.,0.,0.));
#704=DIRECTION('ref_axis',(0.,1.,0.));
#705=DIRECTION('center_axis',(-1.,0.,0.));
#706=DIRECTION('ref_axis',(0.,-1.,0.));
#707=DIRECTION('',(0.,1.,0.));
#708=DIRECTION('',(0.,0.,1.));
#709=DIRECTION('',(0.,-1.,0.));
#710=DIRECTION('',(0.,0.,1.));
#711=DIRECTION('center_axis',(0.,1.,0.));
#712=DIRECTION('ref_axis',(-1.,0.,0.));
#713=DIRECTION('',(1.,0.,0.));
#714=DIRECTION('',(-1.,0.,0.));
#715=DIRECTION('',(0.,0.,1.));
#716=DIRECTION('center_axis',(1.,0.,0.));
#717=DIRECTION('ref_axis',(0.,1.,0.));
#718=DIRECTION('',(0.,-1.,0.));
#719=DIRECTION('',(0.,1.,0.));
#720=DIRECTION('',(0.,0.,1.));
#721=DIRECTION('center_axis',(0.,-1.,0.));
#722=DIRECTION('ref_axis',(1.,0.,0.));
#723=DIRECTION('',(-1.,0.,0.));
#724=DIRECTION('',(1.,0.,0.));
#725=DIRECTION('center_axis',(0.,0.,1.));
#726=DIRECTION('ref_axis',(1.,0.,0.));
#727=DIRECTION('center_axis',(0.,0.,1.));
#728=DIRECTION('ref_axis',(1.,0.,0.));
#729=DIRECTION('center_axis',(1.,0.,0.));
#730=DIRECTION('ref_axis',(0.,1.,0.));
#731=DIRECTION('center_axis',(1.,0.,0.));
#732=DIRECTION('ref_axis',(0.,1.,0.));
#733=DIRECTION('',(1.,0.,0.));
#734=DIRECTION('center_axis',(-1.,0.,0.));
#735=DIRECTION('ref_axis',(0.,1.,0.));
#736=DIRECTION('center_axis',(1.,0.,0.));
#737=DIRECTION('ref_axis',(0.,1.,0.));
#738=DIRECTION('center_axis',(1.,0.,0.));
#739=DIRECTION('ref_axis',(0.,1.,0.));
#740=DIRECTION('',(1.,0.,0.));
#741=DIRECTION('center_axis',(-1.,0.,0.));
#742=DIRECTION('ref_axis',(0.,1.,0.));
#743=DIRECTION('center_axis',(-1.,0.,0.));
#744=DIRECTION('ref_axis',(0.,-1.,0.));
#745=DIRECTION('',(0.,1.,0.));
#746=DIRECTION('',(0.,0.,1.));
#747=DIRECTION('',(0.,-1.,0.));
#748=DIRECTION('',(0.,0.,1.));
#749=DIRECTION('center_axis',(0.,1.,0.));
#750=DIRECTION('ref_axis',(-1.,0.,0.));
#751=DIRECTION('',(1.,0.,0.));
#752=DIRECTION('',(-1.,0.,0.));
#753=DIRECTION('',(0.,0.,1.));
#754=DIRECTION('center_axis',(1.,0.,0.));
#755=DIRECTION('ref_axis',(0.,1.,0.));
#756=DIRECTION('',(0.,-1.,0.));
#757=DIRECTION('',(0.,1.,0.));
#758=DIRECTION('',(0.,0.,1.));
#759=DIRECTION('center_axis',(0.,-1.,0.));
#760=DIRECTION('ref_axis',(1.,0.,0.));
#761=DIRECTION('',(-1.,0.,0.));
#762=DIRECTION('',(1.,0.,0.));
#763=DIRECTION('center_axis',(0.,0.,1.));
#764=DIRECTION('ref_axis',(1.,0.,0.));
#765=DIRECTION('center_axis',(0.,0.,1.));
#766=DIRECTION('ref_axis',(1.,0.,0.));
#767=CARTESIAN_POINT('',(0.,0.,0.));
#768=CARTESIAN_POINT('Origin',(30.5,21.625,-4.5));
#769=CARTESIAN_POINT('',(25.,25.,-4.5));
#770=CARTESIAN_POINT('',(30.5,25.,-10.));
#771=CARTESIAN_POINT('Origin',(30.5,25.,-4.5));
#772=CARTESIAN_POINT('',(30.5,20.5,-10.));
#773=CARTESIAN_POINT('',(30.5,21.625,-10.));
#774=CARTESIAN_POINT('',(25.,20.5,-4.5));
#775=CARTESIAN_POINT('Origin',(30.5,20.5,-4.5));
#776=CARTESIAN_POINT('',(25.,21.625,-4.5));
#777=CARTESIAN_POINT('Origin',(25.,20.5,0.));
#778=CARTESIAN_POINT('',(25.,20.5,0.));
#779=CARTESIAN_POINT('',(25.,20.5,0.));
#780=CARTESIAN_POINT('',(25.,25.,0.));
#781=CARTESIAN_POINT('',(25.,16.5,0.));
#782=CARTESIAN_POINT('',(25.,25.,0.));
#783=CARTESIAN_POINT('Origin',(50.,20.5,0.));
#784=CARTESIAN_POINT('',(44.5,20.5,-10.));
#785=CARTESIAN_POINT('',(50.,20.5,-10.));
#786=CARTESIAN_POINT('',(50.,20.5,-4.5));
#787=CARTESIAN_POINT('Origin',(44.5,20.5,-4.5));
#788=CARTESIAN_POINT('',(50.,20.5,0.));
#789=CARTESIAN_POINT('',(50.,20.5,0.));
#790=CARTESIAN_POINT('',(45.,20.5,0.));
#791=CARTESIAN_POINT('',(28.2500004470348,20.5,-5.00000007450581));
#792=CARTESIAN_POINT('Origin',(30.0000004470348,20.5,-5.00000007450581));
#793=CARTESIAN_POINT('',(43.2500006705523,20.5,-5.00000007450581));
#794=CARTESIAN_POINT('Origin',(45.0000006705523,20.5,-5.00000007450581));
#795=CARTESIAN_POINT('Origin',(44.5,23.875,-4.5));
#796=CARTESIAN_POINT('',(44.5,25.,-10.));
#797=CARTESIAN_POINT('',(44.5,23.875,-10.));
#798=CARTESIAN_POINT('',(50.,25.,-4.5));
#799=CARTESIAN_POINT('Origin',(44.5,25.,-4.5));
#800=CARTESIAN_POINT('',(50.,23.875,-4.5));
#801=CARTESIAN_POINT('Origin',(50.,25.,0.));
#802=CARTESIAN_POINT('',(50.,25.,0.));
#803=CARTESIAN_POINT('',(50.,25.,0.));
#804=CARTESIAN_POINT('',(50.,18.75,0.));
#805=CARTESIAN_POINT('Origin',(30.0000004470348,0.,-5.00000007450581));
#806=CARTESIAN_POINT('',(28.2500004470348,25.,-5.00000007450581));
#807=CARTESIAN_POINT('',(28.2500004470348,0.,-5.00000007450581));
#808=CARTESIAN_POINT('Origin',(30.0000004470348,25.,-5.00000007450581));
#809=CARTESIAN_POINT('Origin',(45.0000006705523,0.,-5.00000007450581));
#810=CARTESIAN_POINT('',(43.2500006705523,25.,-5.00000007450581));
#811=CARTESIAN_POINT('',(43.2500006705523,0.,-5.00000007450581));
#812=CARTESIAN_POINT('Origin',(45.0000006705523,25.,-5.00000007450581));
#813=CARTESIAN_POINT('Origin',(37.5,22.75,-10.));
#814=CARTESIAN_POINT('',(25.,25.,-10.));
#815=CARTESIAN_POINT('Origin',(40.,12.5,0.));
#816=CARTESIAN_POINT('',(80.,25.,0.));
#817=CARTESIAN_POINT('',(80.,25.,0.));
#818=CARTESIAN_POINT('',(80.,0.,0.));
#819=CARTESIAN_POINT('',(80.,0.,0.));
#820=CARTESIAN_POINT('',(0.,0.,0.));
#821=CARTESIAN_POINT('',(0.,0.,0.));
#822=CARTESIAN_POINT('',(0.,25.,0.));
#823=CARTESIAN_POINT('',(0.,25.,0.));
#824=CARTESIAN_POINT('',(80.,25.,0.));
#825=CARTESIAN_POINT('Origin',(80.,25.,0.));
#826=CARTESIAN_POINT('',(0.,25.,4.));
#827=CARTESIAN_POINT('',(0.,25.,0.));
#828=CARTESIAN_POINT('',(80.,25.,4.));
#829=CARTESIAN_POINT('',(80.,25.,4.));
#830=CARTESIAN_POINT('',(80.,25.,0.));
#831=CARTESIAN_POINT('Origin',(80.,0.,0.));
#832=CARTESIAN_POINT('',(80.,0.,4.));
#833=CARTESIAN_POINT('',(80.,0.,4.));
#834=CARTESIAN_POINT('',(80.,0.,0.));
#835=CARTESIAN_POINT('Origin',(0.,0.,0.));
#836=CARTESIAN_POINT('',(0.,0.,4.));
#837=CARTESIAN_POINT('',(0.,0.,4.));
#838=CARTESIAN_POINT('',(0.,0.,0.));
#839=CARTESIAN_POINT('Origin',(0.,25.,0.));
#840=CARTESIAN_POINT('',(0.,25.,4.));
#841=CARTESIAN_POINT('Origin',(40.,12.5,4.));
#842=CARTESIAN_POINT('Origin',(0.,5.,10.));
#843=CARTESIAN_POINT('',(0.,3.25,10.));
#844=CARTESIAN_POINT('Origin',(0.,5.,10.));
#845=CARTESIAN_POINT('',(4.5,3.25,10.));
#846=CARTESIAN_POINT('',(0.,3.25,10.));
#847=CARTESIAN_POINT('Origin',(4.5,5.,10.));
#848=CARTESIAN_POINT('Origin',(0.,20.,10.));
#849=CARTESIAN_POINT('',(0.,18.25,10.));
#850=CARTESIAN_POINT('Origin',(0.,20.,10.));
#851=CARTESIAN_POINT('',(4.5,18.25,10.));
#852=CARTESIAN_POINT('',(0.,18.25,10.));
#853=CARTESIAN_POINT('Origin',(4.5,20.,10.));
#854=CARTESIAN_POINT('Origin',(0.,25.000000372529,0.));
#855=CARTESIAN_POINT('',(0.,3.72529029846191E-7,0.));
#856=CARTESIAN_POINT('',(0.,25.000000372529,0.));
#857=CARTESIAN_POINT('',(0.,3.72529029846191E-7,0.));
#858=CARTESIAN_POINT('',(0.,3.72529029846191E-7,14.));
#859=CARTESIAN_POINT('',(0.,3.72529029846191E-7,0.));
#860=CARTESIAN_POINT('',(0.,25.000000372529,14.));
#861=CARTESIAN_POINT('',(0.,3.72529029846191E-7,14.));
#862=CARTESIAN_POINT('',(0.,25.000000372529,0.));
#863=CARTESIAN_POINT('Origin',(4.5,25.000000372529,0.));
#864=CARTESIAN_POINT('',(4.5,25.000000372529,0.));
#865=CARTESIAN_POINT('',(0.,25.000000372529,0.));
#866=CARTESIAN_POINT('',(4.5,25.000000372529,14.));
#867=CARTESIAN_POINT('',(0.,25.000000372529,14.));
#868=CARTESIAN_POINT('',(4.5,25.000000372529,0.));
#869=CARTESIAN_POINT('Origin',(4.5,3.72529029846191E-7,0.));
#870=CARTESIAN_POINT('',(4.5,3.72529029846191E-7,0.));
#871=CARTESIAN_POINT('',(4.5,25.000000372529,0.));
#872=CARTESIAN_POINT('',(4.5,3.72529029846191E-7,14.));
#873=CARTESIAN_POINT('',(4.5,25.000000372529,14.));
#874=CARTESIAN_POINT('',(4.5,3.72529029846191E-7,0.));
#875=CARTESIAN_POINT('Origin',(0.,3.72529029846191E-7,0.));
#876=CARTESIAN_POINT('',(4.5,3.72529029846191E-7,0.));
#877=CARTESIAN_POINT('',(4.5,3.72529029846191E-7,14.));
#878=CARTESIAN_POINT('Origin',(2.25,12.500000372529,14.));
#879=CARTESIAN_POINT('Origin',(2.25,12.500000372529,0.));
#880=CARTESIAN_POINT('Origin',(75.5,5.,10.));
#881=CARTESIAN_POINT('',(75.5,3.25,10.));
#882=CARTESIAN_POINT('Origin',(75.5,5.,10.));
#883=CARTESIAN_POINT('',(80.,3.25,10.));
#884=CARTESIAN_POINT('',(75.5,3.25,10.));
#885=CARTESIAN_POINT('Origin',(80.,5.,10.));
#886=CARTESIAN_POINT('Origin',(75.5,20.,10.));
#887=CARTESIAN_POINT('',(75.5,18.25,10.));
#888=CARTESIAN_POINT('Origin',(75.5,20.,10.));
#889=CARTESIAN_POINT('',(80.,18.25,10.));
#890=CARTESIAN_POINT('',(75.5,18.25,10.));
#891=CARTESIAN_POINT('Origin',(80.,20.,10.));
#892=CARTESIAN_POINT('Origin',(75.5,25.000000372529,0.));
#893=CARTESIAN_POINT('',(75.5,3.72529029846191E-7,0.));
#894=CARTESIAN_POINT('',(75.5,25.000000372529,0.));
#895=CARTESIAN_POINT('',(75.5,3.72529029846191E-7,0.));
#896=CARTESIAN_POINT('',(75.5,3.72529029846191E-7,14.));
#897=CARTESIAN_POINT('',(75.5,3.72529029846191E-7,0.));
#898=CARTESIAN_POINT('',(75.5,25.000000372529,14.));
#899=CARTESIAN_POINT('',(75.5,3.72529029846191E-7,14.));
#900=CARTESIAN_POINT('',(75.5,25.000000372529,0.));
#901=CARTESIAN_POINT('Origin',(80.,25.000000372529,0.));
#902=CARTESIAN_POINT('',(80.,25.000000372529,0.));
#903=CARTESIAN_POINT('',(75.5,25.000000372529,0.));
#904=CARTESIAN_POINT('',(80.,25.000000372529,14.));
#905=CARTESIAN_POINT('',(75.5,25.000000372529,14.));
#906=CARTESIAN_POINT('',(80.,25.000000372529,0.));
#907=CARTESIAN_POINT('Origin',(80.,3.72529029846191E-7,0.));
#908=CARTESIAN_POINT('',(80.,3.72529029846191E-7,0.));
#909=CARTESIAN_POINT('',(80.,25.000000372529,0.));
#910=CARTESIAN_POINT('',(80.,3.72529029846191E-7,14.));
#911=CARTESIAN_POINT('',(80.,25.000000372529,14.));
#912=CARTESIAN_POINT('',(80.,3.72529029846191E-7,0.));
#913=CARTESIAN_POINT('Origin',(75.5,3.72529029846191E-7,0.));
#914=CARTESIAN_POINT('',(80.,3.72529029846191E-7,0.));
#915=CARTESIAN_POINT('',(80.,3.72529029846191E-7,14.));
#916=CARTESIAN_POINT('Origin',(77.75,12.500000372529,14.));
#917=CARTESIAN_POINT('Origin',(77.75,12.500000372529,0.));
#918=UNCERTAINTY_MEASURE_WITH_UNIT(LENGTH_MEASURE(0.01),#922,
'DISTANCE_ACCURACY_VALUE',
'Maximum model space distance between geometric entities at asserted c
onnectivities');
#919=UNCERTAINTY_MEASURE_WITH_UNIT(LENGTH_MEASURE(0.01),#922,
'DISTANCE_ACCURACY_VALUE',
'Maximum model space distance between geometric entities at asserted c
onnectivities');
#920=(
GEOMETRIC_REPRESENTATION_CONTEXT(3)
GLOBAL_UNCERTAINTY_ASSIGNED_CONTEXT((#918))
GLOBAL_UNIT_ASSIGNED_CONTEXT((#922,#924,#925))
REPRESENTATION_CONTEXT('','3D')
);
#921=(
GEOMETRIC_REPRESENTATION_CONTEXT(3)
GLOBAL_UNCERTAINTY_ASSIGNED_CONTEXT((#919))
GLOBAL_UNIT_ASSIGNED_CONTEXT((#922,#924,#925))
REPRESENTATION_CONTEXT('','3D')
);
#922=(
LENGTH_UNIT()
NAMED_UNIT(*)
SI_UNIT(.MILLI.,.METRE.)
);
#923=(
LENGTH_UNIT()
NAMED_UNIT(*)
SI_UNIT($,.METRE.)
);
#924=(
NAMED_UNIT(*)
PLANE_ANGLE_UNIT()
SI_UNIT($,.RADIAN.)
);
#925=(
NAMED_UNIT(*)
SI_UNIT($,.STERADIAN.)
SOLID_ANGLE_UNIT()
);
#926=SHAPE_DEFINITION_REPRESENTATION(#927,#928);
#927=PRODUCT_DEFINITION_SHAPE('',$,#930);
#928=SHAPE_REPRESENTATION('',(#570),#920);
#929=PRODUCT_DEFINITION_CONTEXT('part definition',#934,'design');
#930=PRODUCT_DEFINITION('hip connector','hip connector',#931,#929);
#931=PRODUCT_DEFINITION_FORMATION('',$,#936);
#932=PRODUCT_RELATED_PRODUCT_CATEGORY('hip connector','hip connector',(#936));
#933=APPLICATION_PROTOCOL_DEFINITION('international standard',
'automotive_design',2009,#934);
#934=APPLICATION_CONTEXT(
'Core Data for Automotive Mechanical Design Process');
#935=PRODUCT_CONTEXT('part definition',#934,'mechanical');
#936=PRODUCT('hip connector','hip connector',$,(#935));
#937=PRESENTATION_STYLE_ASSIGNMENT((#938));
#938=SURFACE_STYLE_USAGE(.BOTH.,#939);
#939=SURFACE_SIDE_STYLE('',(#940));
#940=SURFACE_STYLE_FILL_AREA(#941);
#941=FILL_AREA_STYLE('Steel - Satin',(#942));
#942=FILL_AREA_STYLE_COLOUR('Steel - Satin',#943);
#943=COLOUR_RGB('Steel - Satin',0.627450980392157,0.627450980392157,0.627450980392157);
ENDSEC;
END-ISO-10303-21;
