ISO-10303-21;
HEADER;
/* Generated by software containing ST-Developer
 * from STEP Tools, Inc. (www.steptools.com) 
 */

FILE_DESCRIPTION(
/* description */ (''),
/* implementation_level */ '2;1');

FILE_NAME(
/* name */ 'hip 1.step',
/* time_stamp */ '2026-08-21T19:49:56+05:30',
/* author */ (''),
/* organization */ (''),
/* preprocessor_version */ 'ST-DEVELOPER v20.1',
/* originating_system */ 'Autodesk Translation Framework v15.8.0.0',
/* authorisation */ '');

FILE_SCHEMA (('AUTOMOTIVE_DESIGN { 1 0 10303 214 3 1 1 }'));
ENDSEC;

DATA;
#10=MECHANICAL_DESIGN_GEOMETRIC_PRESENTATION_REPRESENTATION('',(#13,#14,
#15),#1090);
#11=SHAPE_REPRESENTATION_RELATIONSHIP('SRR','None',#1097,#12);
#12=ADVANCED_BREP_SHAPE_REPRESENTATION('',(#16,#17,#18),#1089);
#13=STYLED_ITEM('',(#1106),#16);
#14=STYLED_ITEM('',(#1106),#17);
#15=STYLED_ITEM('',(#1106),#18);
#16=MANIFOLD_SOLID_BREP('Body1',#648);
#17=MANIFOLD_SOLID_BREP('Body2',#649);
#18=MANIFOLD_SOLID_BREP('Body3',#650);
#19=FACE_BOUND('',#91,.T.);
#20=FACE_BOUND('',#96,.T.);
#21=FACE_BOUND('',#108,.T.);
#22=FACE_BOUND('',#109,.T.);
#23=FACE_BOUND('',#114,.T.);
#24=FACE_BOUND('',#115,.T.);
#25=FACE_BOUND('',#122,.T.);
#26=FACE_BOUND('',#123,.T.);
#27=FACE_BOUND('',#129,.T.);
#28=FACE_BOUND('',#130,.T.);
#29=PLANE('',#670);
#30=PLANE('',#671);
#31=PLANE('',#675);
#32=PLANE('',#676);
#33=PLANE('',#677);
#34=PLANE('',#678);
#35=PLANE('',#682);
#36=PLANE('',#683);
#37=PLANE('',#687);
#38=PLANE('',#691);
#39=PLANE('',#692);
#40=PLANE('',#696);
#41=PLANE('',#699);
#42=PLANE('',#704);
#43=PLANE('',#705);
#44=PLANE('',#706);
#45=PLANE('',#707);
#46=PLANE('',#711);
#47=PLANE('',#712);
#48=PLANE('',#719);
#49=PLANE('',#720);
#50=PLANE('',#721);
#51=PLANE('',#722);
#52=FACE_OUTER_BOUND('',#87,.T.);
#53=FACE_OUTER_BOUND('',#88,.T.);
#54=FACE_OUTER_BOUND('',#89,.T.);
#55=FACE_OUTER_BOUND('',#90,.T.);
#56=FACE_OUTER_BOUND('',#92,.T.);
#57=FACE_OUTER_BOUND('',#93,.T.);
#58=FACE_OUTER_BOUND('',#94,.T.);
#59=FACE_OUTER_BOUND('',#95,.T.);
#60=FACE_OUTER_BOUND('',#97,.T.);
#61=FACE_OUTER_BOUND('',#98,.T.);
#62=FACE_OUTER_BOUND('',#99,.T.);
#63=FACE_OUTER_BOUND('',#100,.T.);
#64=FACE_OUTER_BOUND('',#101,.T.);
#65=FACE_OUTER_BOUND('',#102,.T.);
#66=FACE_OUTER_BOUND('',#103,.T.);
#67=FACE_OUTER_BOUND('',#104,.T.);
#68=FACE_OUTER_BOUND('',#105,.T.);
#69=FACE_OUTER_BOUND('',#106,.T.);
#70=FACE_OUTER_BOUND('',#107,.T.);
#71=FACE_OUTER_BOUND('',#110,.T.);
#72=FACE_OUTER_BOUND('',#111,.T.);
#73=FACE_OUTER_BOUND('',#112,.T.);
#74=FACE_OUTER_BOUND('',#113,.T.);
#75=FACE_OUTER_BOUND('',#116,.T.);
#76=FACE_OUTER_BOUND('',#117,.T.);
#77=FACE_OUTER_BOUND('',#118,.T.);
#78=FACE_OUTER_BOUND('',#119,.T.);
#79=FACE_OUTER_BOUND('',#120,.T.);
#80=FACE_OUTER_BOUND('',#121,.T.);
#81=FACE_OUTER_BOUND('',#124,.T.);
#82=FACE_OUTER_BOUND('',#125,.T.);
#83=FACE_OUTER_BOUND('',#126,.T.);
#84=FACE_OUTER_BOUND('',#127,.T.);
#85=FACE_OUTER_BOUND('',#128,.T.);
#86=FACE_OUTER_BOUND('',#131,.T.);
#87=EDGE_LOOP('',(#427,#428,#429,#430));
#88=EDGE_LOOP('',(#431,#432,#433,#434));
#89=EDGE_LOOP('',(#435,#436,#437,#438));
#90=EDGE_LOOP('',(#439,#440,#441,#442,#443,#444));
#91=EDGE_LOOP('',(#445));
#92=EDGE_LOOP('',(#446,#447,#448,#449));
#93=EDGE_LOOP('',(#450,#451,#452,#453,#454,#455));
#94=EDGE_LOOP('',(#456,#457,#458,#459));
#95=EDGE_LOOP('',(#460,#461,#462,#463,#464,#465,#466,#467));
#96=EDGE_LOOP('',(#468));
#97=EDGE_LOOP('',(#469,#470,#471,#472));
#98=EDGE_LOOP('',(#473,#474,#475,#476));
#99=EDGE_LOOP('',(#477,#478,#479,#480));
#100=EDGE_LOOP('',(#481,#482,#483,#484));
#101=EDGE_LOOP('',(#485,#486,#487,#488));
#102=EDGE_LOOP('',(#489,#490,#491,#492));
#103=EDGE_LOOP('',(#493,#494,#495,#496));
#104=EDGE_LOOP('',(#497,#498,#499,#500,#501,#502,#503,#504,#505,#506,#507));
#105=EDGE_LOOP('',(#508,#509,#510,#511,#512,#513,#514,#515,#516));
#106=EDGE_LOOP('',(#517,#518,#519,#520));
#107=EDGE_LOOP('',(#521,#522,#523,#524,#525));
#108=EDGE_LOOP('',(#526));
#109=EDGE_LOOP('',(#527));
#110=EDGE_LOOP('',(#528,#529,#530,#531));
#111=EDGE_LOOP('',(#532,#533,#534,#535));
#112=EDGE_LOOP('',(#536,#537,#538,#539));
#113=EDGE_LOOP('',(#540,#541,#542,#543,#544));
#114=EDGE_LOOP('',(#545));
#115=EDGE_LOOP('',(#546));
#116=EDGE_LOOP('',(#547,#548,#549,#550));
#117=EDGE_LOOP('',(#551,#552,#553,#554));
#118=EDGE_LOOP('',(#555,#556,#557,#558));
#119=EDGE_LOOP('',(#559,#560,#561,#562));
#120=EDGE_LOOP('',(#563,#564,#565,#566));
#121=EDGE_LOOP('',(#567,#568,#569,#570,#571));
#122=EDGE_LOOP('',(#572));
#123=EDGE_LOOP('',(#573));
#124=EDGE_LOOP('',(#574,#575,#576,#577));
#125=EDGE_LOOP('',(#578,#579,#580,#581));
#126=EDGE_LOOP('',(#582,#583,#584,#585));
#127=EDGE_LOOP('',(#586,#587,#588,#589));
#128=EDGE_LOOP('',(#590,#591,#592,#593,#594));
#129=EDGE_LOOP('',(#595));
#130=EDGE_LOOP('',(#596));
#131=EDGE_LOOP('',(#597,#598,#599,#600));
#132=LINE('',#911,#195);
#133=LINE('',#918,#196);
#134=LINE('',#921,#197);
#135=LINE('',#924,#198);
#136=LINE('',#926,#199);
#137=LINE('',#927,#200);
#138=LINE('',#932,#201);
#139=LINE('',#934,#202);
#140=LINE('',#935,#203);
#141=LINE('',#939,#204);
#142=LINE('',#942,#205);
#143=LINE('',#944,#206);
#144=LINE('',#946,#207);
#145=LINE('',#947,#208);
#146=LINE('',#950,#209);
#147=LINE('',#951,#210);
#148=LINE('',#954,#211);
#149=LINE('',#956,#212);
#150=LINE('',#957,#213);
#151=LINE('',#960,#214);
#152=LINE('',#962,#215);
#153=LINE('',#963,#216);
#154=LINE('',#968,#217);
#155=LINE('',#972,#218);
#156=LINE('',#974,#219);
#157=LINE('',#975,#220);
#158=LINE('',#978,#221);
#159=LINE('',#980,#222);
#160=LINE('',#981,#223);
#161=LINE('',#986,#224);
#162=LINE('',#990,#225);
#163=LINE('',#992,#226);
#164=LINE('',#993,#227);
#165=LINE('',#1004,#228);
#166=LINE('',#1007,#229);
#167=LINE('',#1010,#230);
#168=LINE('',#1012,#231);
#169=LINE('',#1014,#232);
#170=LINE('',#1015,#233);
#171=LINE('',#1022,#234);
#172=LINE('',#1023,#235);
#173=LINE('',#1027,#236);
#174=LINE('',#1031,#237);
#175=LINE('',#1034,#238);
#176=LINE('',#1036,#239);
#177=LINE('',#1037,#240);
#178=LINE('',#1039,#241);
#179=LINE('',#1040,#242);
#180=LINE('',#1048,#243);
#181=LINE('',#1051,#244);
#182=LINE('',#1054,#245);
#183=LINE('',#1056,#246);
#184=LINE('',#1057,#247);
#185=LINE('',#1060,#248);
#186=LINE('',#1062,#249);
#187=LINE('',#1063,#250);
#188=LINE('',#1070,#251);
#189=LINE('',#1074,#252);
#190=LINE('',#1078,#253);
#191=LINE('',#1079,#254);
#192=LINE('',#1082,#255);
#193=LINE('',#1083,#256);
#194=LINE('',#1085,#257);
#195=VECTOR('',#729,1.75);
#196=VECTOR('',#736,10.);
#197=VECTOR('',#739,10.);
#198=VECTOR('',#742,10.);
#199=VECTOR('',#743,10.);
#200=VECTOR('',#744,10.);
#201=VECTOR('',#749,10.);
#202=VECTOR('',#750,10.);
#203=VECTOR('',#751,10.);
#204=VECTOR('',#756,10.);
#205=VECTOR('',#759,10.);
#206=VECTOR('',#760,10.);
#207=VECTOR('',#761,10.);
#208=VECTOR('',#762,10.);
#209=VECTOR('',#765,10.);
#210=VECTOR('',#766,10.);
#211=VECTOR('',#769,10.);
#212=VECTOR('',#770,10.);
#213=VECTOR('',#771,10.);
#214=VECTOR('',#774,10.);
#215=VECTOR('',#775,10.);
#216=VECTOR('',#776,10.);
#217=VECTOR('',#781,10.);
#218=VECTOR('',#786,10.);
#219=VECTOR('',#787,10.);
#220=VECTOR('',#788,10.);
#221=VECTOR('',#791,10.);
#222=VECTOR('',#792,10.);
#223=VECTOR('',#793,10.);
#224=VECTOR('',#798,10.);
#225=VECTOR('',#803,10.);
#226=VECTOR('',#804,10.);
#227=VECTOR('',#805,10.);
#228=VECTOR('',#820,10.);
#229=VECTOR('',#823,10.);
#230=VECTOR('',#826,10.);
#231=VECTOR('',#827,10.);
#232=VECTOR('',#828,10.);
#233=VECTOR('',#829,10.);
#234=VECTOR('',#836,10.);
#235=VECTOR('',#837,10.);
#236=VECTOR('',#842,1.75);
#237=VECTOR('',#847,1.75);
#238=VECTOR('',#850,10.);
#239=VECTOR('',#851,10.);
#240=VECTOR('',#852,10.);
#241=VECTOR('',#855,10.);
#242=VECTOR('',#856,10.);
#243=VECTOR('',#865,10.);
#244=VECTOR('',#868,10.);
#245=VECTOR('',#871,10.);
#246=VECTOR('',#872,10.);
#247=VECTOR('',#873,10.);
#248=VECTOR('',#876,10.);
#249=VECTOR('',#877,10.);
#250=VECTOR('',#878,10.);
#251=VECTOR('',#885,1.75);
#252=VECTOR('',#890,1.75);
#253=VECTOR('',#895,10.);
#254=VECTOR('',#896,10.);
#255=VECTOR('',#899,10.);
#256=VECTOR('',#900,10.);
#257=VECTOR('',#903,10.);
#258=CIRCLE('',#665,1.75);
#259=CIRCLE('',#666,1.75);
#260=CIRCLE('',#668,12.5);
#261=CIRCLE('',#669,12.5);
#262=CIRCLE('',#672,12.5);
#263=CIRCLE('',#674,12.5);
#264=CIRCLE('',#680,10.);
#265=CIRCLE('',#681,10.);
#266=CIRCLE('',#685,10.);
#267=CIRCLE('',#686,10.);
#268=CIRCLE('',#689,10.);
#269=CIRCLE('',#690,10.);
#270=CIRCLE('',#694,5.);
#271=CIRCLE('',#695,5.);
#272=CIRCLE('',#697,1.75);
#273=CIRCLE('',#698,1.75);
#274=CIRCLE('',#701,1.75);
#275=CIRCLE('',#703,1.75);
#276=CIRCLE('',#709,5.);
#277=CIRCLE('',#710,5.);
#278=CIRCLE('',#713,1.75);
#279=CIRCLE('',#714,1.75);
#280=CIRCLE('',#716,1.75);
#281=CIRCLE('',#718,1.75);
#282=VERTEX_POINT('',#908);
#283=VERTEX_POINT('',#910);
#284=VERTEX_POINT('',#914);
#285=VERTEX_POINT('',#915);
#286=VERTEX_POINT('',#917);
#287=VERTEX_POINT('',#919);
#288=VERTEX_POINT('',#923);
#289=VERTEX_POINT('',#925);
#290=VERTEX_POINT('',#929);
#291=VERTEX_POINT('',#931);
#292=VERTEX_POINT('',#933);
#293=VERTEX_POINT('',#937);
#294=VERTEX_POINT('',#941);
#295=VERTEX_POINT('',#943);
#296=VERTEX_POINT('',#945);
#297=VERTEX_POINT('',#949);
#298=VERTEX_POINT('',#953);
#299=VERTEX_POINT('',#955);
#300=VERTEX_POINT('',#959);
#301=VERTEX_POINT('',#961);
#302=VERTEX_POINT('',#965);
#303=VERTEX_POINT('',#967);
#304=VERTEX_POINT('',#971);
#305=VERTEX_POINT('',#973);
#306=VERTEX_POINT('',#977);
#307=VERTEX_POINT('',#979);
#308=VERTEX_POINT('',#983);
#309=VERTEX_POINT('',#985);
#310=VERTEX_POINT('',#989);
#311=VERTEX_POINT('',#991);
#312=VERTEX_POINT('',#1000);
#313=VERTEX_POINT('',#1001);
#314=VERTEX_POINT('',#1003);
#315=VERTEX_POINT('',#1005);
#316=VERTEX_POINT('',#1009);
#317=VERTEX_POINT('',#1011);
#318=VERTEX_POINT('',#1013);
#319=VERTEX_POINT('',#1016);
#320=VERTEX_POINT('',#1018);
#321=VERTEX_POINT('',#1021);
#322=VERTEX_POINT('',#1025);
#323=VERTEX_POINT('',#1029);
#324=VERTEX_POINT('',#1033);
#325=VERTEX_POINT('',#1035);
#326=VERTEX_POINT('',#1044);
#327=VERTEX_POINT('',#1045);
#328=VERTEX_POINT('',#1047);
#329=VERTEX_POINT('',#1049);
#330=VERTEX_POINT('',#1053);
#331=VERTEX_POINT('',#1055);
#332=VERTEX_POINT('',#1059);
#333=VERTEX_POINT('',#1061);
#334=VERTEX_POINT('',#1064);
#335=VERTEX_POINT('',#1066);
#336=VERTEX_POINT('',#1069);
#337=VERTEX_POINT('',#1073);
#338=VERTEX_POINT('',#1077);
#339=VERTEX_POINT('',#1081);
#340=EDGE_CURVE('',#282,#282,#258,.T.);
#341=EDGE_CURVE('',#282,#283,#132,.T.);
#342=EDGE_CURVE('',#283,#283,#259,.T.);
#343=EDGE_CURVE('',#284,#285,#260,.T.);
#344=EDGE_CURVE('',#286,#284,#133,.T.);
#345=EDGE_CURVE('',#287,#286,#261,.T.);
#346=EDGE_CURVE('',#285,#287,#134,.T.);
#347=EDGE_CURVE('',#288,#287,#135,.T.);
#348=EDGE_CURVE('',#288,#289,#136,.T.);
#349=EDGE_CURVE('',#285,#289,#137,.T.);
#350=EDGE_CURVE('',#289,#290,#262,.T.);
#351=EDGE_CURVE('',#291,#290,#138,.T.);
#352=EDGE_CURVE('',#291,#292,#139,.T.);
#353=EDGE_CURVE('',#292,#284,#140,.T.);
#354=EDGE_CURVE('',#293,#288,#263,.T.);
#355=EDGE_CURVE('',#290,#293,#141,.T.);
#356=EDGE_CURVE('',#294,#293,#142,.T.);
#357=EDGE_CURVE('',#295,#294,#143,.T.);
#358=EDGE_CURVE('',#295,#296,#144,.T.);
#359=EDGE_CURVE('',#296,#291,#145,.T.);
#360=EDGE_CURVE('',#292,#297,#146,.T.);
#361=EDGE_CURVE('',#297,#286,#147,.T.);
#362=EDGE_CURVE('',#297,#298,#148,.T.);
#363=EDGE_CURVE('',#299,#298,#149,.T.);
#364=EDGE_CURVE('',#294,#299,#150,.T.);
#365=EDGE_CURVE('',#299,#300,#151,.T.);
#366=EDGE_CURVE('',#298,#301,#152,.T.);
#367=EDGE_CURVE('',#300,#301,#153,.T.);
#368=EDGE_CURVE('',#295,#302,#264,.T.);
#369=EDGE_CURVE('',#302,#303,#154,.T.);
#370=EDGE_CURVE('',#303,#296,#265,.T.);
#371=EDGE_CURVE('',#302,#304,#155,.T.);
#372=EDGE_CURVE('',#304,#305,#156,.T.);
#373=EDGE_CURVE('',#305,#303,#157,.T.);
#374=EDGE_CURVE('',#306,#304,#158,.T.);
#375=EDGE_CURVE('',#306,#307,#159,.T.);
#376=EDGE_CURVE('',#307,#305,#160,.T.);
#377=EDGE_CURVE('',#306,#308,#266,.T.);
#378=EDGE_CURVE('',#308,#309,#161,.T.);
#379=EDGE_CURVE('',#309,#307,#267,.T.);
#380=EDGE_CURVE('',#310,#308,#162,.T.);
#381=EDGE_CURVE('',#310,#311,#163,.T.);
#382=EDGE_CURVE('',#311,#309,#164,.T.);
#383=EDGE_CURVE('',#310,#300,#268,.T.);
#384=EDGE_CURVE('',#301,#311,#269,.T.);
#385=EDGE_CURVE('',#312,#313,#270,.T.);
#386=EDGE_CURVE('',#314,#312,#165,.T.);
#387=EDGE_CURVE('',#315,#314,#271,.T.);
#388=EDGE_CURVE('',#313,#315,#166,.T.);
#389=EDGE_CURVE('',#313,#316,#167,.T.);
#390=EDGE_CURVE('',#317,#316,#168,.T.);
#391=EDGE_CURVE('',#317,#318,#169,.T.);
#392=EDGE_CURVE('',#318,#312,#170,.T.);
#393=EDGE_CURVE('',#319,#319,#272,.T.);
#394=EDGE_CURVE('',#320,#320,#273,.T.);
#395=EDGE_CURVE('',#318,#321,#171,.T.);
#396=EDGE_CURVE('',#321,#314,#172,.T.);
#397=EDGE_CURVE('',#322,#322,#274,.T.);
#398=EDGE_CURVE('',#322,#320,#173,.T.);
#399=EDGE_CURVE('',#323,#323,#275,.T.);
#400=EDGE_CURVE('',#323,#319,#174,.T.);
#401=EDGE_CURVE('',#321,#324,#175,.T.);
#402=EDGE_CURVE('',#324,#325,#176,.T.);
#403=EDGE_CURVE('',#325,#315,#177,.T.);
#404=EDGE_CURVE('',#324,#317,#178,.T.);
#405=EDGE_CURVE('',#316,#325,#179,.T.);
#406=EDGE_CURVE('',#326,#327,#276,.T.);
#407=EDGE_CURVE('',#328,#326,#180,.T.);
#408=EDGE_CURVE('',#329,#328,#277,.T.);
#409=EDGE_CURVE('',#327,#329,#181,.T.);
#410=EDGE_CURVE('',#330,#329,#182,.T.);
#411=EDGE_CURVE('',#331,#330,#183,.T.);
#412=EDGE_CURVE('',#327,#331,#184,.T.);
#413=EDGE_CURVE('',#332,#331,#185,.T.);
#414=EDGE_CURVE('',#332,#333,#186,.T.);
#415=EDGE_CURVE('',#333,#326,#187,.T.);
#416=EDGE_CURVE('',#334,#334,#278,.T.);
#417=EDGE_CURVE('',#335,#335,#279,.T.);
#418=EDGE_CURVE('',#335,#336,#188,.T.);
#419=EDGE_CURVE('',#336,#336,#280,.T.);
#420=EDGE_CURVE('',#334,#337,#189,.T.);
#421=EDGE_CURVE('',#337,#337,#281,.T.);
#422=EDGE_CURVE('',#338,#332,#190,.T.);
#423=EDGE_CURVE('',#338,#330,#191,.T.);
#424=EDGE_CURVE('',#333,#339,#192,.T.);
#425=EDGE_CURVE('',#339,#328,#193,.T.);
#426=EDGE_CURVE('',#339,#338,#194,.T.);
#427=ORIENTED_EDGE('',*,*,#340,.T.);
#428=ORIENTED_EDGE('',*,*,#341,.T.);
#429=ORIENTED_EDGE('',*,*,#342,.T.);
#430=ORIENTED_EDGE('',*,*,#341,.F.);
#431=ORIENTED_EDGE('',*,*,#343,.F.);
#432=ORIENTED_EDGE('',*,*,#344,.F.);
#433=ORIENTED_EDGE('',*,*,#345,.F.);
#434=ORIENTED_EDGE('',*,*,#346,.F.);
#435=ORIENTED_EDGE('',*,*,#346,.T.);
#436=ORIENTED_EDGE('',*,*,#347,.F.);
#437=ORIENTED_EDGE('',*,*,#348,.T.);
#438=ORIENTED_EDGE('',*,*,#349,.F.);
#439=ORIENTED_EDGE('',*,*,#343,.T.);
#440=ORIENTED_EDGE('',*,*,#349,.T.);
#441=ORIENTED_EDGE('',*,*,#350,.T.);
#442=ORIENTED_EDGE('',*,*,#351,.F.);
#443=ORIENTED_EDGE('',*,*,#352,.T.);
#444=ORIENTED_EDGE('',*,*,#353,.T.);
#445=ORIENTED_EDGE('',*,*,#340,.F.);
#446=ORIENTED_EDGE('',*,*,#354,.F.);
#447=ORIENTED_EDGE('',*,*,#355,.F.);
#448=ORIENTED_EDGE('',*,*,#350,.F.);
#449=ORIENTED_EDGE('',*,*,#348,.F.);
#450=ORIENTED_EDGE('',*,*,#355,.T.);
#451=ORIENTED_EDGE('',*,*,#356,.F.);
#452=ORIENTED_EDGE('',*,*,#357,.F.);
#453=ORIENTED_EDGE('',*,*,#358,.T.);
#454=ORIENTED_EDGE('',*,*,#359,.T.);
#455=ORIENTED_EDGE('',*,*,#351,.T.);
#456=ORIENTED_EDGE('',*,*,#344,.T.);
#457=ORIENTED_EDGE('',*,*,#353,.F.);
#458=ORIENTED_EDGE('',*,*,#360,.T.);
#459=ORIENTED_EDGE('',*,*,#361,.T.);
#460=ORIENTED_EDGE('',*,*,#345,.T.);
#461=ORIENTED_EDGE('',*,*,#361,.F.);
#462=ORIENTED_EDGE('',*,*,#362,.T.);
#463=ORIENTED_EDGE('',*,*,#363,.F.);
#464=ORIENTED_EDGE('',*,*,#364,.F.);
#465=ORIENTED_EDGE('',*,*,#356,.T.);
#466=ORIENTED_EDGE('',*,*,#354,.T.);
#467=ORIENTED_EDGE('',*,*,#347,.T.);
#468=ORIENTED_EDGE('',*,*,#342,.F.);
#469=ORIENTED_EDGE('',*,*,#365,.F.);
#470=ORIENTED_EDGE('',*,*,#363,.T.);
#471=ORIENTED_EDGE('',*,*,#366,.T.);
#472=ORIENTED_EDGE('',*,*,#367,.F.);
#473=ORIENTED_EDGE('',*,*,#368,.T.);
#474=ORIENTED_EDGE('',*,*,#369,.T.);
#475=ORIENTED_EDGE('',*,*,#370,.T.);
#476=ORIENTED_EDGE('',*,*,#358,.F.);
#477=ORIENTED_EDGE('',*,*,#371,.T.);
#478=ORIENTED_EDGE('',*,*,#372,.T.);
#479=ORIENTED_EDGE('',*,*,#373,.T.);
#480=ORIENTED_EDGE('',*,*,#369,.F.);
#481=ORIENTED_EDGE('',*,*,#374,.F.);
#482=ORIENTED_EDGE('',*,*,#375,.T.);
#483=ORIENTED_EDGE('',*,*,#376,.T.);
#484=ORIENTED_EDGE('',*,*,#372,.F.);
#485=ORIENTED_EDGE('',*,*,#377,.T.);
#486=ORIENTED_EDGE('',*,*,#378,.T.);
#487=ORIENTED_EDGE('',*,*,#379,.T.);
#488=ORIENTED_EDGE('',*,*,#375,.F.);
#489=ORIENTED_EDGE('',*,*,#380,.F.);
#490=ORIENTED_EDGE('',*,*,#381,.T.);
#491=ORIENTED_EDGE('',*,*,#382,.T.);
#492=ORIENTED_EDGE('',*,*,#378,.F.);
#493=ORIENTED_EDGE('',*,*,#383,.T.);
#494=ORIENTED_EDGE('',*,*,#367,.T.);
#495=ORIENTED_EDGE('',*,*,#384,.T.);
#496=ORIENTED_EDGE('',*,*,#381,.F.);
#497=ORIENTED_EDGE('',*,*,#360,.F.);
#498=ORIENTED_EDGE('',*,*,#352,.F.);
#499=ORIENTED_EDGE('',*,*,#359,.F.);
#500=ORIENTED_EDGE('',*,*,#370,.F.);
#501=ORIENTED_EDGE('',*,*,#373,.F.);
#502=ORIENTED_EDGE('',*,*,#376,.F.);
#503=ORIENTED_EDGE('',*,*,#379,.F.);
#504=ORIENTED_EDGE('',*,*,#382,.F.);
#505=ORIENTED_EDGE('',*,*,#384,.F.);
#506=ORIENTED_EDGE('',*,*,#366,.F.);
#507=ORIENTED_EDGE('',*,*,#362,.F.);
#508=ORIENTED_EDGE('',*,*,#357,.T.);
#509=ORIENTED_EDGE('',*,*,#364,.T.);
#510=ORIENTED_EDGE('',*,*,#365,.T.);
#511=ORIENTED_EDGE('',*,*,#383,.F.);
#512=ORIENTED_EDGE('',*,*,#380,.T.);
#513=ORIENTED_EDGE('',*,*,#377,.F.);
#514=ORIENTED_EDGE('',*,*,#374,.T.);
#515=ORIENTED_EDGE('',*,*,#371,.F.);
#516=ORIENTED_EDGE('',*,*,#368,.F.);
#517=ORIENTED_EDGE('',*,*,#385,.F.);
#518=ORIENTED_EDGE('',*,*,#386,.F.);
#519=ORIENTED_EDGE('',*,*,#387,.F.);
#520=ORIENTED_EDGE('',*,*,#388,.F.);
#521=ORIENTED_EDGE('',*,*,#385,.T.);
#522=ORIENTED_EDGE('',*,*,#389,.T.);
#523=ORIENTED_EDGE('',*,*,#390,.F.);
#524=ORIENTED_EDGE('',*,*,#391,.T.);
#525=ORIENTED_EDGE('',*,*,#392,.T.);
#526=ORIENTED_EDGE('',*,*,#393,.F.);
#527=ORIENTED_EDGE('',*,*,#394,.F.);
#528=ORIENTED_EDGE('',*,*,#386,.T.);
#529=ORIENTED_EDGE('',*,*,#392,.F.);
#530=ORIENTED_EDGE('',*,*,#395,.T.);
#531=ORIENTED_EDGE('',*,*,#396,.T.);
#532=ORIENTED_EDGE('',*,*,#397,.T.);
#533=ORIENTED_EDGE('',*,*,#398,.T.);
#534=ORIENTED_EDGE('',*,*,#394,.T.);
#535=ORIENTED_EDGE('',*,*,#398,.F.);
#536=ORIENTED_EDGE('',*,*,#399,.T.);
#537=ORIENTED_EDGE('',*,*,#400,.T.);
#538=ORIENTED_EDGE('',*,*,#393,.T.);
#539=ORIENTED_EDGE('',*,*,#400,.F.);
#540=ORIENTED_EDGE('',*,*,#387,.T.);
#541=ORIENTED_EDGE('',*,*,#396,.F.);
#542=ORIENTED_EDGE('',*,*,#401,.T.);
#543=ORIENTED_EDGE('',*,*,#402,.T.);
#544=ORIENTED_EDGE('',*,*,#403,.T.);
#545=ORIENTED_EDGE('',*,*,#397,.F.);
#546=ORIENTED_EDGE('',*,*,#399,.F.);
#547=ORIENTED_EDGE('',*,*,#404,.T.);
#548=ORIENTED_EDGE('',*,*,#390,.T.);
#549=ORIENTED_EDGE('',*,*,#405,.T.);
#550=ORIENTED_EDGE('',*,*,#402,.F.);
#551=ORIENTED_EDGE('',*,*,#388,.T.);
#552=ORIENTED_EDGE('',*,*,#403,.F.);
#553=ORIENTED_EDGE('',*,*,#405,.F.);
#554=ORIENTED_EDGE('',*,*,#389,.F.);
#555=ORIENTED_EDGE('',*,*,#391,.F.);
#556=ORIENTED_EDGE('',*,*,#404,.F.);
#557=ORIENTED_EDGE('',*,*,#401,.F.);
#558=ORIENTED_EDGE('',*,*,#395,.F.);
#559=ORIENTED_EDGE('',*,*,#406,.F.);
#560=ORIENTED_EDGE('',*,*,#407,.F.);
#561=ORIENTED_EDGE('',*,*,#408,.F.);
#562=ORIENTED_EDGE('',*,*,#409,.F.);
#563=ORIENTED_EDGE('',*,*,#409,.T.);
#564=ORIENTED_EDGE('',*,*,#410,.F.);
#565=ORIENTED_EDGE('',*,*,#411,.F.);
#566=ORIENTED_EDGE('',*,*,#412,.F.);
#567=ORIENTED_EDGE('',*,*,#406,.T.);
#568=ORIENTED_EDGE('',*,*,#412,.T.);
#569=ORIENTED_EDGE('',*,*,#413,.F.);
#570=ORIENTED_EDGE('',*,*,#414,.T.);
#571=ORIENTED_EDGE('',*,*,#415,.T.);
#572=ORIENTED_EDGE('',*,*,#416,.F.);
#573=ORIENTED_EDGE('',*,*,#417,.F.);
#574=ORIENTED_EDGE('',*,*,#417,.T.);
#575=ORIENTED_EDGE('',*,*,#418,.T.);
#576=ORIENTED_EDGE('',*,*,#419,.T.);
#577=ORIENTED_EDGE('',*,*,#418,.F.);
#578=ORIENTED_EDGE('',*,*,#416,.T.);
#579=ORIENTED_EDGE('',*,*,#420,.T.);
#580=ORIENTED_EDGE('',*,*,#421,.T.);
#581=ORIENTED_EDGE('',*,*,#420,.F.);
#582=ORIENTED_EDGE('',*,*,#422,.T.);
#583=ORIENTED_EDGE('',*,*,#413,.T.);
#584=ORIENTED_EDGE('',*,*,#411,.T.);
#585=ORIENTED_EDGE('',*,*,#423,.F.);
#586=ORIENTED_EDGE('',*,*,#407,.T.);
#587=ORIENTED_EDGE('',*,*,#415,.F.);
#588=ORIENTED_EDGE('',*,*,#424,.T.);
#589=ORIENTED_EDGE('',*,*,#425,.T.);
#590=ORIENTED_EDGE('',*,*,#408,.T.);
#591=ORIENTED_EDGE('',*,*,#425,.F.);
#592=ORIENTED_EDGE('',*,*,#426,.T.);
#593=ORIENTED_EDGE('',*,*,#423,.T.);
#594=ORIENTED_EDGE('',*,*,#410,.T.);
#595=ORIENTED_EDGE('',*,*,#419,.F.);
#596=ORIENTED_EDGE('',*,*,#421,.F.);
#597=ORIENTED_EDGE('',*,*,#426,.F.);
#598=ORIENTED_EDGE('',*,*,#424,.F.);
#599=ORIENTED_EDGE('',*,*,#414,.F.);
#600=ORIENTED_EDGE('',*,*,#422,.F.);
#601=CYLINDRICAL_SURFACE('',#664,1.75);
#602=CYLINDRICAL_SURFACE('',#667,12.5);
#603=CYLINDRICAL_SURFACE('',#673,12.5);
#604=CYLINDRICAL_SURFACE('',#679,10.);
#605=CYLINDRICAL_SURFACE('',#684,10.);
#606=CYLINDRICAL_SURFACE('',#688,10.);
#607=CYLINDRICAL_SURFACE('',#693,5.);
#608=CYLINDRICAL_SURFACE('',#700,1.75);
#609=CYLINDRICAL_SURFACE('',#702,1.75);
#610=CYLINDRICAL_SURFACE('',#708,5.);
#611=CYLINDRICAL_SURFACE('',#715,1.75);
#612=CYLINDRICAL_SURFACE('',#717,1.75);
#613=ADVANCED_FACE('',(#52),#601,.F.);
#614=ADVANCED_FACE('',(#53),#602,.T.);
#615=ADVANCED_FACE('',(#54),#29,.F.);
#616=ADVANCED_FACE('',(#55,#19),#30,.F.);
#617=ADVANCED_FACE('',(#56),#603,.T.);
#618=ADVANCED_FACE('',(#57),#31,.F.);
#619=ADVANCED_FACE('',(#58),#32,.F.);
#620=ADVANCED_FACE('',(#59,#20),#33,.F.);
#621=ADVANCED_FACE('',(#60),#34,.F.);
#622=ADVANCED_FACE('',(#61),#604,.F.);
#623=ADVANCED_FACE('',(#62),#35,.F.);
#624=ADVANCED_FACE('',(#63),#36,.F.);
#625=ADVANCED_FACE('',(#64),#605,.F.);
#626=ADVANCED_FACE('',(#65),#37,.F.);
#627=ADVANCED_FACE('',(#66),#606,.F.);
#628=ADVANCED_FACE('',(#67),#38,.F.);
#629=ADVANCED_FACE('',(#68),#39,.T.);
#630=ADVANCED_FACE('',(#69),#607,.T.);
#631=ADVANCED_FACE('',(#70,#21,#22),#40,.F.);
#632=ADVANCED_FACE('',(#71),#41,.F.);
#633=ADVANCED_FACE('',(#72),#608,.F.);
#634=ADVANCED_FACE('',(#73),#609,.F.);
#635=ADVANCED_FACE('',(#74,#23,#24),#42,.F.);
#636=ADVANCED_FACE('',(#75),#43,.F.);
#637=ADVANCED_FACE('',(#76),#44,.F.);
#638=ADVANCED_FACE('',(#77),#45,.T.);
#639=ADVANCED_FACE('',(#78),#610,.T.);
#640=ADVANCED_FACE('',(#79),#46,.F.);
#641=ADVANCED_FACE('',(#80,#25,#26),#47,.F.);
#642=ADVANCED_FACE('',(#81),#611,.F.);
#643=ADVANCED_FACE('',(#82),#612,.F.);
#644=ADVANCED_FACE('',(#83),#48,.F.);
#645=ADVANCED_FACE('',(#84),#49,.F.);
#646=ADVANCED_FACE('',(#85,#27,#28),#50,.F.);
#647=ADVANCED_FACE('',(#86),#51,.T.);
#648=CLOSED_SHELL('',(#613,#614,#615,#616,#617,#618,#619,#620,#621,#622,
#623,#624,#625,#626,#627,#628,#629));
#649=CLOSED_SHELL('',(#630,#631,#632,#633,#634,#635,#636,#637,#638));
#650=CLOSED_SHELL('',(#639,#640,#641,#642,#643,#644,#645,#646,#647));
#651=DERIVED_UNIT_ELEMENT(#653,1.);
#652=DERIVED_UNIT_ELEMENT(#1092,-3.);
#653=(
MASS_UNIT()
NAMED_UNIT(*)
SI_UNIT(.KILO.,.GRAM.)
);
#654=DERIVED_UNIT((#651,#652));
#655=MEASURE_REPRESENTATION_ITEM('density measure',
POSITIVE_RATIO_MEASURE(7850.),#654);
#656=PROPERTY_DEFINITION_REPRESENTATION(#661,#658);
#657=PROPERTY_DEFINITION_REPRESENTATION(#662,#659);
#658=REPRESENTATION('material name',(#660),#1089);
#659=REPRESENTATION('density',(#655),#1089);
#660=DESCRIPTIVE_REPRESENTATION_ITEM('Steel','Steel');
#661=PROPERTY_DEFINITION('material property','material name',#1099);
#662=PROPERTY_DEFINITION('material property','density of part',#1099);
#663=AXIS2_PLACEMENT_3D('',#906,#723,#724);
#664=AXIS2_PLACEMENT_3D('',#907,#725,#726);
#665=AXIS2_PLACEMENT_3D('',#909,#727,#728);
#666=AXIS2_PLACEMENT_3D('',#912,#730,#731);
#667=AXIS2_PLACEMENT_3D('',#913,#732,#733);
#668=AXIS2_PLACEMENT_3D('',#916,#734,#735);
#669=AXIS2_PLACEMENT_3D('',#920,#737,#738);
#670=AXIS2_PLACEMENT_3D('',#922,#740,#741);
#671=AXIS2_PLACEMENT_3D('',#928,#745,#746);
#672=AXIS2_PLACEMENT_3D('',#930,#747,#748);
#673=AXIS2_PLACEMENT_3D('',#936,#752,#753);
#674=AXIS2_PLACEMENT_3D('',#938,#754,#755);
#675=AXIS2_PLACEMENT_3D('',#940,#757,#758);
#676=AXIS2_PLACEMENT_3D('',#948,#763,#764);
#677=AXIS2_PLACEMENT_3D('',#952,#767,#768);
#678=AXIS2_PLACEMENT_3D('',#958,#772,#773);
#679=AXIS2_PLACEMENT_3D('',#964,#777,#778);
#680=AXIS2_PLACEMENT_3D('',#966,#779,#780);
#681=AXIS2_PLACEMENT_3D('',#969,#782,#783);
#682=AXIS2_PLACEMENT_3D('',#970,#784,#785);
#683=AXIS2_PLACEMENT_3D('',#976,#789,#790);
#684=AXIS2_PLACEMENT_3D('',#982,#794,#795);
#685=AXIS2_PLACEMENT_3D('',#984,#796,#797);
#686=AXIS2_PLACEMENT_3D('',#987,#799,#800);
#687=AXIS2_PLACEMENT_3D('',#988,#801,#802);
#688=AXIS2_PLACEMENT_3D('',#994,#806,#807);
#689=AXIS2_PLACEMENT_3D('',#995,#808,#809);
#690=AXIS2_PLACEMENT_3D('',#996,#810,#811);
#691=AXIS2_PLACEMENT_3D('',#997,#812,#813);
#692=AXIS2_PLACEMENT_3D('',#998,#814,#815);
#693=AXIS2_PLACEMENT_3D('',#999,#816,#817);
#694=AXIS2_PLACEMENT_3D('',#1002,#818,#819);
#695=AXIS2_PLACEMENT_3D('',#1006,#821,#822);
#696=AXIS2_PLACEMENT_3D('',#1008,#824,#825);
#697=AXIS2_PLACEMENT_3D('',#1017,#830,#831);
#698=AXIS2_PLACEMENT_3D('',#1019,#832,#833);
#699=AXIS2_PLACEMENT_3D('',#1020,#834,#835);
#700=AXIS2_PLACEMENT_3D('',#1024,#838,#839);
#701=AXIS2_PLACEMENT_3D('',#1026,#840,#841);
#702=AXIS2_PLACEMENT_3D('',#1028,#843,#844);
#703=AXIS2_PLACEMENT_3D('',#1030,#845,#846);
#704=AXIS2_PLACEMENT_3D('',#1032,#848,#849);
#705=AXIS2_PLACEMENT_3D('',#1038,#853,#854);
#706=AXIS2_PLACEMENT_3D('',#1041,#857,#858);
#707=AXIS2_PLACEMENT_3D('',#1042,#859,#860);
#708=AXIS2_PLACEMENT_3D('',#1043,#861,#862);
#709=AXIS2_PLACEMENT_3D('',#1046,#863,#864);
#710=AXIS2_PLACEMENT_3D('',#1050,#866,#867);
#711=AXIS2_PLACEMENT_3D('',#1052,#869,#870);
#712=AXIS2_PLACEMENT_3D('',#1058,#874,#875);
#713=AXIS2_PLACEMENT_3D('',#1065,#879,#880);
#714=AXIS2_PLACEMENT_3D('',#1067,#881,#882);
#715=AXIS2_PLACEMENT_3D('',#1068,#883,#884);
#716=AXIS2_PLACEMENT_3D('',#1071,#886,#887);
#717=AXIS2_PLACEMENT_3D('',#1072,#888,#889);
#718=AXIS2_PLACEMENT_3D('',#1075,#891,#892);
#719=AXIS2_PLACEMENT_3D('',#1076,#893,#894);
#720=AXIS2_PLACEMENT_3D('',#1080,#897,#898);
#721=AXIS2_PLACEMENT_3D('',#1084,#901,#902);
#722=AXIS2_PLACEMENT_3D('',#1086,#904,#905);
#723=DIRECTION('axis',(0.,0.,1.));
#724=DIRECTION('refdir',(1.,0.,0.));
#725=DIRECTION('center_axis',(0.,-1.,0.));
#726=DIRECTION('ref_axis',(1.,0.,0.));
#727=DIRECTION('center_axis',(0.,-1.,0.));
#728=DIRECTION('ref_axis',(1.,0.,0.));
#729=DIRECTION('',(0.,1.,0.));
#730=DIRECTION('center_axis',(0.,1.,0.));
#731=DIRECTION('ref_axis',(1.,0.,0.));
#732=DIRECTION('center_axis',(0.,1.,0.));
#733=DIRECTION('ref_axis',(-0.707106781186547,0.,-0.707106781186547));
#734=DIRECTION('center_axis',(0.,-1.,0.));
#735=DIRECTION('ref_axis',(-0.707106781186547,0.,-0.707106781186547));
#736=DIRECTION('',(0.,-1.,0.));
#737=DIRECTION('center_axis',(0.,1.,0.));
#738=DIRECTION('ref_axis',(-0.707106781186547,0.,-0.707106781186547));
#739=DIRECTION('',(0.,1.,0.));
#740=DIRECTION('center_axis',(0.,0.,1.));
#741=DIRECTION('ref_axis',(1.,0.,0.));
#742=DIRECTION('',(-1.,0.,0.));
#743=DIRECTION('',(0.,-1.,0.));
#744=DIRECTION('',(1.,0.,0.));
#745=DIRECTION('center_axis',(0.,1.,0.));
#746=DIRECTION('ref_axis',(1.,0.,0.));
#747=DIRECTION('center_axis',(0.,-1.,0.));
#748=DIRECTION('ref_axis',(0.707106781186547,0.,-0.707106781186547));
#749=DIRECTION('',(0.,0.,-1.));
#750=DIRECTION('',(-1.,0.,0.));
#751=DIRECTION('',(0.,0.,-1.));
#752=DIRECTION('center_axis',(0.,-1.,0.));
#753=DIRECTION('ref_axis',(0.707106781186547,0.,-0.707106781186547));
#754=DIRECTION('center_axis',(0.,1.,0.));
#755=DIRECTION('ref_axis',(0.707106781186547,0.,-0.707106781186547));
#756=DIRECTION('',(0.,1.,0.));
#757=DIRECTION('center_axis',(-1.,0.,0.));
#758=DIRECTION('ref_axis',(0.,1.,0.));
#759=DIRECTION('',(0.,0.,-1.));
#760=DIRECTION('',(0.,1.,0.));
#761=DIRECTION('',(0.,0.,-1.));
#762=DIRECTION('',(0.,1.,0.));
#763=DIRECTION('center_axis',(1.,0.,0.));
#764=DIRECTION('ref_axis',(0.,-1.,0.));
#765=DIRECTION('',(0.,1.,0.));
#766=DIRECTION('',(0.,0.,-1.));
#767=DIRECTION('center_axis',(0.,-1.,0.));
#768=DIRECTION('ref_axis',(-1.,0.,0.));
#769=DIRECTION('',(-1.,0.,0.));
#770=DIRECTION('',(0.,0.,-1.));
#771=DIRECTION('',(-1.,0.,0.));
#772=DIRECTION('center_axis',(1.,0.,0.));
#773=DIRECTION('ref_axis',(0.,-1.,0.));
#774=DIRECTION('',(0.,-1.,0.));
#775=DIRECTION('',(0.,-1.,0.));
#776=DIRECTION('',(0.,0.,-1.));
#777=DIRECTION('center_axis',(0.,0.,1.));
#778=DIRECTION('ref_axis',(-1.,0.,0.));
#779=DIRECTION('center_axis',(0.,0.,1.));
#780=DIRECTION('ref_axis',(-1.,0.,0.));
#781=DIRECTION('',(0.,0.,-1.));
#782=DIRECTION('center_axis',(0.,0.,-1.));
#783=DIRECTION('ref_axis',(-1.,0.,0.));
#784=DIRECTION('center_axis',(0.,-1.,0.));
#785=DIRECTION('ref_axis',(-1.,0.,0.));
#786=DIRECTION('',(1.,0.,0.));
#787=DIRECTION('',(0.,0.,-1.));
#788=DIRECTION('',(-1.,0.,0.));
#789=DIRECTION('center_axis',(-1.,0.,0.));
#790=DIRECTION('ref_axis',(0.,1.,0.));
#791=DIRECTION('',(0.,1.,0.));
#792=DIRECTION('',(0.,0.,-1.));
#793=DIRECTION('',(0.,1.,0.));
#794=DIRECTION('center_axis',(0.,0.,1.));
#795=DIRECTION('ref_axis',(0.,1.,0.));
#796=DIRECTION('center_axis',(0.,0.,1.));
#797=DIRECTION('ref_axis',(0.,1.,0.));
#798=DIRECTION('',(0.,0.,-1.));
#799=DIRECTION('center_axis',(0.,0.,-1.));
#800=DIRECTION('ref_axis',(0.,1.,0.));
#801=DIRECTION('center_axis',(0.,1.,0.));
#802=DIRECTION('ref_axis',(1.,0.,0.));
#803=DIRECTION('',(1.,0.,0.));
#804=DIRECTION('',(0.,0.,-1.));
#805=DIRECTION('',(1.,0.,0.));
#806=DIRECTION('center_axis',(0.,0.,1.));
#807=DIRECTION('ref_axis',(1.,0.,0.));
#808=DIRECTION('center_axis',(0.,0.,1.));
#809=DIRECTION('ref_axis',(1.,0.,0.));
#810=DIRECTION('center_axis',(0.,0.,-1.));
#811=DIRECTION('ref_axis',(1.,0.,0.));
#812=DIRECTION('center_axis',(0.,0.,1.));
#813=DIRECTION('ref_axis',(1.,0.,0.));
#814=DIRECTION('center_axis',(0.,0.,1.));
#815=DIRECTION('ref_axis',(1.,0.,0.));
#816=DIRECTION('center_axis',(0.,-1.,0.));
#817=DIRECTION('ref_axis',(0.707106781186547,0.,-0.707106781186547));
#818=DIRECTION('center_axis',(0.,1.,0.));
#819=DIRECTION('ref_axis',(0.707106781186547,0.,-0.707106781186547));
#820=DIRECTION('',(0.,1.,0.));
#821=DIRECTION('center_axis',(0.,-1.,0.));
#822=DIRECTION('ref_axis',(0.707106781186547,0.,-0.707106781186547));
#823=DIRECTION('',(0.,-1.,0.));
#824=DIRECTION('center_axis',(0.,-1.,0.));
#825=DIRECTION('ref_axis',(-1.,0.,0.));
#826=DIRECTION('',(-1.,0.,0.));
#827=DIRECTION('',(0.,0.,-1.));
#828=DIRECTION('',(1.,0.,0.));
#829=DIRECTION('',(0.,0.,-1.));
#830=DIRECTION('center_axis',(0.,1.,0.));
#831=DIRECTION('ref_axis',(1.,0.,0.));
#832=DIRECTION('center_axis',(0.,1.,0.));
#833=DIRECTION('ref_axis',(1.,0.,0.));
#834=DIRECTION('center_axis',(-1.,0.,0.));
#835=DIRECTION('ref_axis',(0.,1.,0.));
#836=DIRECTION('',(0.,-1.,0.));
#837=DIRECTION('',(0.,0.,-1.));
#838=DIRECTION('center_axis',(0.,-1.,0.));
#839=DIRECTION('ref_axis',(1.,0.,0.));
#840=DIRECTION('center_axis',(0.,-1.,0.));
#841=DIRECTION('ref_axis',(1.,0.,0.));
#842=DIRECTION('',(0.,1.,0.));
#843=DIRECTION('center_axis',(0.,-1.,0.));
#844=DIRECTION('ref_axis',(1.,0.,0.));
#845=DIRECTION('center_axis',(0.,-1.,0.));
#846=DIRECTION('ref_axis',(1.,0.,0.));
#847=DIRECTION('',(0.,1.,0.));
#848=DIRECTION('center_axis',(0.,1.,0.));
#849=DIRECTION('ref_axis',(1.,0.,0.));
#850=DIRECTION('',(-1.,0.,0.));
#851=DIRECTION('',(0.,0.,-1.));
#852=DIRECTION('',(1.,0.,0.));
#853=DIRECTION('center_axis',(1.,0.,0.));
#854=DIRECTION('ref_axis',(0.,-1.,0.));
#855=DIRECTION('',(0.,1.,0.));
#856=DIRECTION('',(0.,-1.,0.));
#857=DIRECTION('center_axis',(0.,0.,1.));
#858=DIRECTION('ref_axis',(1.,0.,0.));
#859=DIRECTION('center_axis',(0.,0.,1.));
#860=DIRECTION('ref_axis',(1.,0.,0.));
#861=DIRECTION('center_axis',(0.,1.,0.));
#862=DIRECTION('ref_axis',(-0.707106781186547,0.,-0.707106781186547));
#863=DIRECTION('center_axis',(0.,-1.,0.));
#864=DIRECTION('ref_axis',(-0.707106781186547,0.,-0.707106781186547));
#865=DIRECTION('',(0.,-1.,0.));
#866=DIRECTION('center_axis',(0.,1.,0.));
#867=DIRECTION('ref_axis',(-0.707106781186547,0.,-0.707106781186547));
#868=DIRECTION('',(0.,1.,0.));
#869=DIRECTION('center_axis',(0.,0.,1.));
#870=DIRECTION('ref_axis',(1.,0.,0.));
#871=DIRECTION('',(-1.,0.,0.));
#872=DIRECTION('',(0.,1.,0.));
#873=DIRECTION('',(1.,0.,0.));
#874=DIRECTION('center_axis',(0.,1.,0.));
#875=DIRECTION('ref_axis',(1.,0.,0.));
#876=DIRECTION('',(0.,0.,-1.));
#877=DIRECTION('',(-1.,0.,0.));
#878=DIRECTION('',(0.,0.,-1.));
#879=DIRECTION('center_axis',(0.,-1.,0.));
#880=DIRECTION('ref_axis',(1.,0.,0.));
#881=DIRECTION('center_axis',(0.,-1.,0.));
#882=DIRECTION('ref_axis',(1.,0.,0.));
#883=DIRECTION('center_axis',(0.,-1.,0.));
#884=DIRECTION('ref_axis',(1.,0.,0.));
#885=DIRECTION('',(0.,1.,0.));
#886=DIRECTION('center_axis',(0.,1.,0.));
#887=DIRECTION('ref_axis',(1.,0.,0.));
#888=DIRECTION('center_axis',(0.,-1.,0.));
#889=DIRECTION('ref_axis',(1.,0.,0.));
#890=DIRECTION('',(0.,1.,0.));
#891=DIRECTION('center_axis',(0.,1.,0.));
#892=DIRECTION('ref_axis',(1.,0.,0.));
#893=DIRECTION('center_axis',(-1.,0.,0.));
#894=DIRECTION('ref_axis',(0.,1.,0.));
#895=DIRECTION('',(0.,-1.,0.));
#896=DIRECTION('',(0.,0.,-1.));
#897=DIRECTION('center_axis',(1.,0.,0.));
#898=DIRECTION('ref_axis',(0.,-1.,0.));
#899=DIRECTION('',(0.,1.,0.));
#900=DIRECTION('',(0.,0.,-1.));
#901=DIRECTION('center_axis',(0.,-1.,0.));
#902=DIRECTION('ref_axis',(-1.,0.,0.));
#903=DIRECTION('',(1.,0.,0.));
#904=DIRECTION('center_axis',(0.,0.,1.));
#905=DIRECTION('ref_axis',(1.,0.,0.));
#906=CARTESIAN_POINT('',(0.,0.,0.));
#907=CARTESIAN_POINT('Origin',(18.3600332270801,0.,-17.694814631896));
#908=CARTESIAN_POINT('',(16.6100332270801,45.,-17.694814631896));
#909=CARTESIAN_POINT('Origin',(18.3600332270801,45.,-17.694814631896));
#910=CARTESIAN_POINT('',(16.6100332270801,50.,-17.694814631896));
#911=CARTESIAN_POINT('',(16.6100332270801,0.,-17.694814631896));
#912=CARTESIAN_POINT('Origin',(18.3600332270801,50.,-17.694814631896));
#913=CARTESIAN_POINT('Origin',(12.5049004959692,48.75,-12.5));
#914=CARTESIAN_POINT('',(0.00490049596924891,45.,-12.5));
#915=CARTESIAN_POINT('',(12.5049004959692,45.,-25.));
#916=CARTESIAN_POINT('Origin',(12.5049004959692,45.,-12.5));
#917=CARTESIAN_POINT('',(0.00490049596924891,50.,-12.5));
#918=CARTESIAN_POINT('',(0.00490049596924891,48.75,-12.5));
#919=CARTESIAN_POINT('',(12.5049004959692,50.,-25.));
#920=CARTESIAN_POINT('Origin',(12.5049004959692,50.,-12.5));
#921=CARTESIAN_POINT('',(12.5049004959692,48.75,-25.));
#922=CARTESIAN_POINT('Origin',(17.5024502479846,47.5,-25.));
#923=CARTESIAN_POINT('',(22.5,50.,-25.));
#924=CARTESIAN_POINT('',(35.,50.,-25.));
#925=CARTESIAN_POINT('',(22.5,45.,-25.));
#926=CARTESIAN_POINT('',(22.5,36.25,-25.));
#927=CARTESIAN_POINT('',(0.00490049596924891,45.,-25.));
#928=CARTESIAN_POINT('Origin',(0.00490049596924891,45.,0.));
#929=CARTESIAN_POINT('',(35.,45.,-12.5));
#930=CARTESIAN_POINT('Origin',(22.5,45.,-12.5));
#931=CARTESIAN_POINT('',(35.,45.,-4.));
#932=CARTESIAN_POINT('',(35.,45.,0.));
#933=CARTESIAN_POINT('',(0.00490049596924891,45.,-4.));
#934=CARTESIAN_POINT('',(15.0024502479846,45.,-4.));
#935=CARTESIAN_POINT('',(0.00490049596924891,45.,0.));
#936=CARTESIAN_POINT('Origin',(22.5,36.25,-12.5));
#937=CARTESIAN_POINT('',(35.,50.,-12.5));
#938=CARTESIAN_POINT('Origin',(22.5,50.,-12.5));
#939=CARTESIAN_POINT('',(35.,36.25,-12.5));
#940=CARTESIAN_POINT('Origin',(35.,25.,0.));
#941=CARTESIAN_POINT('',(35.,50.,0.));
#942=CARTESIAN_POINT('',(35.,50.,0.));
#943=CARTESIAN_POINT('',(35.,25.,0.));
#944=CARTESIAN_POINT('',(35.,25.,0.));
#945=CARTESIAN_POINT('',(35.,25.,-4.));
#946=CARTESIAN_POINT('',(35.,25.,0.));
#947=CARTESIAN_POINT('',(35.,25.,-4.));
#948=CARTESIAN_POINT('Origin',(0.00490049596924891,50.,0.));
#949=CARTESIAN_POINT('',(0.00490049596924891,50.,-4.));
#950=CARTESIAN_POINT('',(0.00490049596924891,37.5,-4.));
#951=CARTESIAN_POINT('',(0.00490049596924891,50.,0.));
#952=CARTESIAN_POINT('Origin',(35.,50.,0.));
#953=CARTESIAN_POINT('',(0.,50.,-4.));
#954=CARTESIAN_POINT('',(60.,50.,-4.));
#955=CARTESIAN_POINT('',(0.,50.,0.));
#956=CARTESIAN_POINT('',(0.,50.,0.));
#957=CARTESIAN_POINT('',(60.,50.,0.));
#958=CARTESIAN_POINT('Origin',(0.,50.,0.));
#959=CARTESIAN_POINT('',(6.12323399573677E-16,10.,0.));
#960=CARTESIAN_POINT('',(0.,50.,0.));
#961=CARTESIAN_POINT('',(1.11022302462516E-15,10.,-4.));
#962=CARTESIAN_POINT('',(0.,50.,-4.));
#963=CARTESIAN_POINT('',(6.12323399573677E-16,10.,0.));
#964=CARTESIAN_POINT('Origin',(45.,25.,0.));
#965=CARTESIAN_POINT('',(45.,15.,0.));
#966=CARTESIAN_POINT('Origin',(45.,25.,0.));
#967=CARTESIAN_POINT('',(45.,15.,-4.));
#968=CARTESIAN_POINT('',(45.,15.,0.));
#969=CARTESIAN_POINT('Origin',(45.,25.,-4.));
#970=CARTESIAN_POINT('Origin',(60.,15.,0.));
#971=CARTESIAN_POINT('',(60.,15.,0.));
#972=CARTESIAN_POINT('',(45.,15.,0.));
#973=CARTESIAN_POINT('',(60.,15.,-4.));
#974=CARTESIAN_POINT('',(60.,15.,0.));
#975=CARTESIAN_POINT('',(45.,15.,-4.));
#976=CARTESIAN_POINT('Origin',(60.,10.,0.));
#977=CARTESIAN_POINT('',(60.,10.,0.));
#978=CARTESIAN_POINT('',(60.,0.,0.));
#979=CARTESIAN_POINT('',(60.,10.,-4.));
#980=CARTESIAN_POINT('',(60.,10.,0.));
#981=CARTESIAN_POINT('',(60.,0.,-4.));
#982=CARTESIAN_POINT('Origin',(60.,0.,0.));
#983=CARTESIAN_POINT('',(50.,6.12323399573677E-16,0.));
#984=CARTESIAN_POINT('Origin',(60.,0.,0.));
#985=CARTESIAN_POINT('',(50.,6.12323399573677E-16,-4.));
#986=CARTESIAN_POINT('',(50.,6.12323399573677E-16,0.));
#987=CARTESIAN_POINT('Origin',(60.,0.,-4.));
#988=CARTESIAN_POINT('Origin',(10.,0.,0.));
#989=CARTESIAN_POINT('',(10.,0.,0.));
#990=CARTESIAN_POINT('',(0.,0.,0.));
#991=CARTESIAN_POINT('',(10.,0.,-4.));
#992=CARTESIAN_POINT('',(10.,0.,0.));
#993=CARTESIAN_POINT('',(0.,0.,-4.));
#994=CARTESIAN_POINT('Origin',(0.,0.,0.));
#995=CARTESIAN_POINT('Origin',(0.,0.,0.));
#996=CARTESIAN_POINT('Origin',(0.,0.,-4.));
#997=CARTESIAN_POINT('Origin',(30.,25.,-4.));
#998=CARTESIAN_POINT('Origin',(30.,25.,0.));
#999=CARTESIAN_POINT('Origin',(55.0000008940697,11.2500001676381,-20.));
#1000=CARTESIAN_POINT('',(60.0000008940697,15.0000002235174,-20.));
#1001=CARTESIAN_POINT('',(55.0000008940697,15.0000002235174,-25.));
#1002=CARTESIAN_POINT('Origin',(55.0000008940697,15.0000002235174,-20.));
#1003=CARTESIAN_POINT('',(60.0000008940697,10.0000001490116,-20.));
#1004=CARTESIAN_POINT('',(60.0000008940697,11.2500001676381,-20.));
#1005=CARTESIAN_POINT('',(55.0000008940697,10.0000001490116,-25.));
#1006=CARTESIAN_POINT('Origin',(55.0000008940697,10.0000001490116,-20.));
#1007=CARTESIAN_POINT('',(55.0000008940697,11.2500001676381,-25.));
#1008=CARTESIAN_POINT('Origin',(60.0000008940697,15.0000002235174,0.));
#1009=CARTESIAN_POINT('',(50.0000007450581,15.0000002235174,-25.));
#1010=CARTESIAN_POINT('',(50.0000007450581,15.0000002235174,-25.));
#1011=CARTESIAN_POINT('',(50.0000007450581,15.0000002235174,0.));
#1012=CARTESIAN_POINT('',(50.0000007450581,15.0000002235174,0.));
#1013=CARTESIAN_POINT('',(60.0000008940697,15.0000002235174,0.));
#1014=CARTESIAN_POINT('',(50.0000007450581,15.0000002235174,0.));
#1015=CARTESIAN_POINT('',(60.0000008940697,15.0000002235174,0.));
#1016=CARTESIAN_POINT('',(53.25,15.0000002235174,-10.));
#1017=CARTESIAN_POINT('Origin',(55.,15.0000002235174,-10.));
#1018=CARTESIAN_POINT('',(53.25,15.0000002235174,-20.));
#1019=CARTESIAN_POINT('Origin',(55.,15.0000002235174,-20.));
#1020=CARTESIAN_POINT('Origin',(60.0000008940697,10.0000001490116,0.));
#1021=CARTESIAN_POINT('',(60.0000008940697,10.0000001490116,0.));
#1022=CARTESIAN_POINT('',(60.0000008940697,15.0000002235174,0.));
#1023=CARTESIAN_POINT('',(60.0000008940697,10.0000001490116,0.));
#1024=CARTESIAN_POINT('Origin',(55.,0.,-20.));
#1025=CARTESIAN_POINT('',(53.25,10.0000001490116,-20.));
#1026=CARTESIAN_POINT('Origin',(55.,10.0000001490116,-20.));
#1027=CARTESIAN_POINT('',(53.25,0.,-20.));
#1028=CARTESIAN_POINT('Origin',(55.,0.,-10.));
#1029=CARTESIAN_POINT('',(53.25,10.0000001490116,-10.));
#1030=CARTESIAN_POINT('Origin',(55.,10.0000001490116,-10.));
#1031=CARTESIAN_POINT('',(53.25,0.,-10.));
#1032=CARTESIAN_POINT('Origin',(50.0000007450581,10.0000001490116,0.));
#1033=CARTESIAN_POINT('',(50.0000007450581,10.0000001490116,0.));
#1034=CARTESIAN_POINT('',(60.0000008940697,10.0000001490116,0.));
#1035=CARTESIAN_POINT('',(50.0000007450581,10.0000001490116,-25.));
#1036=CARTESIAN_POINT('',(50.0000007450581,10.0000001490116,0.));
#1037=CARTESIAN_POINT('',(60.0000008940697,10.0000001490116,-25.));
#1038=CARTESIAN_POINT('Origin',(50.0000007450581,15.0000002235174,0.));
#1039=CARTESIAN_POINT('',(50.0000007450581,10.0000001490116,0.));
#1040=CARTESIAN_POINT('',(50.0000007450581,10.0000001490116,-25.));
#1041=CARTESIAN_POINT('Origin',(55.0000008195639,12.5000001862645,-25.));
#1042=CARTESIAN_POINT('Origin',(55.0000008195639,12.5000001862645,0.));
#1043=CARTESIAN_POINT('Origin',(5.00000074505806,13.750000204891,-20.));
#1044=CARTESIAN_POINT('',(7.45058059692383E-7,10.0000001490116,-20.));
#1045=CARTESIAN_POINT('',(5.00000074505806,10.0000001490116,-25.));
#1046=CARTESIAN_POINT('Origin',(5.00000074505806,10.0000001490116,-20.));
#1047=CARTESIAN_POINT('',(7.45058059692383E-7,15.0000002235174,-20.));
#1048=CARTESIAN_POINT('',(7.45058059692383E-7,13.750000204891,-20.));
#1049=CARTESIAN_POINT('',(5.00000074505806,15.0000002235174,-25.));
#1050=CARTESIAN_POINT('Origin',(5.00000074505806,15.0000002235174,-20.));
#1051=CARTESIAN_POINT('',(5.00000074505806,13.750000204891,-25.));
#1052=CARTESIAN_POINT('Origin',(5.00000081956387,12.5000001862645,-25.));
#1053=CARTESIAN_POINT('',(10.0000008940697,15.0000002235174,-25.));
#1054=CARTESIAN_POINT('',(7.45058059692383E-7,15.0000002235174,-25.));
#1055=CARTESIAN_POINT('',(10.0000008940697,10.0000001490116,-25.));
#1056=CARTESIAN_POINT('',(10.0000008940697,15.0000002235174,-25.));
#1057=CARTESIAN_POINT('',(10.0000008940697,10.0000001490116,-25.));
#1058=CARTESIAN_POINT('Origin',(7.45058059692383E-7,10.0000001490116,0.));
#1059=CARTESIAN_POINT('',(10.0000008940697,10.0000001490116,0.));
#1060=CARTESIAN_POINT('',(10.0000008940697,10.0000001490116,0.));
#1061=CARTESIAN_POINT('',(7.45058059692383E-7,10.0000001490116,0.));
#1062=CARTESIAN_POINT('',(10.0000008940697,10.0000001490116,0.));
#1063=CARTESIAN_POINT('',(7.45058059692383E-7,10.0000001490116,0.));
#1064=CARTESIAN_POINT('',(3.25,10.0000001490116,-10.));
#1065=CARTESIAN_POINT('Origin',(5.,10.0000001490116,-10.));
#1066=CARTESIAN_POINT('',(3.25,10.0000001490116,-20.));
#1067=CARTESIAN_POINT('Origin',(5.,10.0000001490116,-20.));
#1068=CARTESIAN_POINT('Origin',(5.,0.,-20.));
#1069=CARTESIAN_POINT('',(3.25,15.0000002235174,-20.));
#1070=CARTESIAN_POINT('',(3.25,0.,-20.));
#1071=CARTESIAN_POINT('Origin',(5.,15.0000002235174,-20.));
#1072=CARTESIAN_POINT('Origin',(5.,0.,-10.));
#1073=CARTESIAN_POINT('',(3.25,15.0000002235174,-10.));
#1074=CARTESIAN_POINT('',(3.25,0.,-10.));
#1075=CARTESIAN_POINT('Origin',(5.,15.0000002235174,-10.));
#1076=CARTESIAN_POINT('Origin',(10.0000008940697,10.0000001490116,0.));
#1077=CARTESIAN_POINT('',(10.0000008940697,15.0000002235174,0.));
#1078=CARTESIAN_POINT('',(10.0000008940697,15.0000002235174,0.));
#1079=CARTESIAN_POINT('',(10.0000008940697,15.0000002235174,0.));
#1080=CARTESIAN_POINT('Origin',(7.45058059692383E-7,15.0000002235174,0.));
#1081=CARTESIAN_POINT('',(7.45058059692383E-7,15.0000002235174,0.));
#1082=CARTESIAN_POINT('',(7.45058059692383E-7,10.0000001490116,0.));
#1083=CARTESIAN_POINT('',(7.45058059692383E-7,15.0000002235174,0.));
#1084=CARTESIAN_POINT('Origin',(10.0000008940697,15.0000002235174,0.));
#1085=CARTESIAN_POINT('',(7.45058059692383E-7,15.0000002235174,0.));
#1086=CARTESIAN_POINT('Origin',(5.00000081956387,12.5000001862645,0.));
#1087=UNCERTAINTY_MEASURE_WITH_UNIT(LENGTH_MEASURE(0.01),#1091,
'DISTANCE_ACCURACY_VALUE',
'Maximum model space distance between geometric entities at asserted c
onnectivities');
#1088=UNCERTAINTY_MEASURE_WITH_UNIT(LENGTH_MEASURE(0.01),#1091,
'DISTANCE_ACCURACY_VALUE',
'Maximum model space distance between geometric entities at asserted c
onnectivities');
#1089=(
GEOMETRIC_REPRESENTATION_CONTEXT(3)
GLOBAL_UNCERTAINTY_ASSIGNED_CONTEXT((#1087))
GLOBAL_UNIT_ASSIGNED_CONTEXT((#1091,#1093,#1094))
REPRESENTATION_CONTEXT('','3D')
);
#1090=(
GEOMETRIC_REPRESENTATION_CONTEXT(3)
GLOBAL_UNCERTAINTY_ASSIGNED_CONTEXT((#1088))
GLOBAL_UNIT_ASSIGNED_CONTEXT((#1091,#1093,#1094))
REPRESENTATION_CONTEXT('','3D')
);
#1091=(
LENGTH_UNIT()
NAMED_UNIT(*)
SI_UNIT(.MILLI.,.METRE.)
);
#1092=(
LENGTH_UNIT()
NAMED_UNIT(*)
SI_UNIT($,.METRE.)
);
#1093=(
NAMED_UNIT(*)
PLANE_ANGLE_UNIT()
SI_UNIT($,.RADIAN.)
);
#1094=(
NAMED_UNIT(*)
SI_UNIT($,.STERADIAN.)
SOLID_ANGLE_UNIT()
);
#1095=SHAPE_DEFINITION_REPRESENTATION(#1096,#1097);
#1096=PRODUCT_DEFINITION_SHAPE('',$,#1099);
#1097=SHAPE_REPRESENTATION('',(#663),#1089);
#1098=PRODUCT_DEFINITION_CONTEXT('part definition',#1103,'design');
#1099=PRODUCT_DEFINITION('hip 1','hip 1',#1100,#1098);
#1100=PRODUCT_DEFINITION_FORMATION('',$,#1105);
#1101=PRODUCT_RELATED_PRODUCT_CATEGORY('hip 1','hip 1',(#1105));
#1102=APPLICATION_PROTOCOL_DEFINITION('international standard',
'automotive_design',2009,#1103);
#1103=APPLICATION_CONTEXT(
'Core Data for Automotive Mechanical Design Process');
#1104=PRODUCT_CONTEXT('part definition',#1103,'mechanical');
#1105=PRODUCT('hip 1','hip 1',$,(#1104));
#1106=PRESENTATION_STYLE_ASSIGNMENT((#1107));
#1107=SURFACE_STYLE_USAGE(.BOTH.,#1108);
#1108=SURFACE_SIDE_STYLE('',(#1109));
#1109=SURFACE_STYLE_FILL_AREA(#1110);
#1110=FILL_AREA_STYLE('Steel - Satin',(#1111));
#1111=FILL_AREA_STYLE_COLOUR('Steel - Satin',#1112);
#1112=COLOUR_RGB('Steel - Satin',0.627450980392157,0.627450980392157,0.627450980392157);
ENDSEC;
END-ISO-10303-21;
