ISO-10303-21;
HEADER;
/* Generated by software containing ST-Developer
 * from STEP Tools, Inc. (www.steptools.com) 
 */

FILE_DESCRIPTION(
/* description */ (''),
/* implementation_level */ '2;1');

FILE_NAME(
/* name */ 'knee 1.step',
/* time_stamp */ '2026-08-21T19:49:47+05:30',
/* author */ (''),
/* organization */ (''),
/* preprocessor_version */ 'ST-DEVELOPER v20.1',
/* originating_system */ 'Autodesk Translation Framework v15.8.0.0',
/* authorisation */ '');

FILE_SCHEMA (('AUTOMOTIVE_DESIGN { 1 0 10303 214 3 1 1 }'));
ENDSEC;

DATA;
#10=MECHANICAL_DESIGN_GEOMETRIC_PRESENTATION_REPRESENTATION('',(#13,#14,
#15),#1331);
#11=SHAPE_REPRESENTATION_RELATIONSHIP('SRR','None',#1338,#12);
#12=ADVANCED_BREP_SHAPE_REPRESENTATION('',(#16,#17,#18),#1330);
#13=STYLED_ITEM('',(#1347),#16);
#14=STYLED_ITEM('',(#1347),#17);
#15=STYLED_ITEM('',(#1347),#18);
#16=MANIFOLD_SOLID_BREP('Body1',#793);
#17=MANIFOLD_SOLID_BREP('Body2',#794);
#18=MANIFOLD_SOLID_BREP('Body3',#795);
#19=FACE_BOUND('',#102,.T.);
#20=FACE_BOUND('',#110,.T.);
#21=FACE_BOUND('',#119,.T.);
#22=FACE_BOUND('',#123,.T.);
#23=FACE_BOUND('',#132,.T.);
#24=FACE_BOUND('',#133,.T.);
#25=FACE_BOUND('',#135,.T.);
#26=FACE_BOUND('',#136,.T.);
#27=FACE_BOUND('',#145,.T.);
#28=FACE_BOUND('',#146,.T.);
#29=FACE_BOUND('',#148,.T.);
#30=FACE_BOUND('',#149,.T.);
#31=PLANE('',#815);
#32=PLANE('',#819);
#33=PLANE('',#826);
#34=PLANE('',#827);
#35=PLANE('',#833);
#36=PLANE('',#834);
#37=PLANE('',#837);
#38=PLANE('',#838);
#39=PLANE('',#841);
#40=PLANE('',#844);
#41=PLANE('',#846);
#42=PLANE('',#847);
#43=PLANE('',#848);
#44=PLANE('',#850);
#45=PLANE('',#860);
#46=PLANE('',#861);
#47=PLANE('',#862);
#48=PLANE('',#863);
#49=PLANE('',#864);
#50=PLANE('',#865);
#51=PLANE('',#875);
#52=PLANE('',#876);
#53=PLANE('',#877);
#54=PLANE('',#878);
#55=PLANE('',#879);
#56=PLANE('',#880);
#57=FACE_OUTER_BOUND('',#99,.T.);
#58=FACE_OUTER_BOUND('',#100,.T.);
#59=FACE_OUTER_BOUND('',#101,.T.);
#60=FACE_OUTER_BOUND('',#103,.T.);
#61=FACE_OUTER_BOUND('',#104,.T.);
#62=FACE_OUTER_BOUND('',#105,.T.);
#63=FACE_OUTER_BOUND('',#106,.T.);
#64=FACE_OUTER_BOUND('',#107,.T.);
#65=FACE_OUTER_BOUND('',#108,.T.);
#66=FACE_OUTER_BOUND('',#109,.T.);
#67=FACE_OUTER_BOUND('',#111,.T.);
#68=FACE_OUTER_BOUND('',#112,.T.);
#69=FACE_OUTER_BOUND('',#113,.T.);
#70=FACE_OUTER_BOUND('',#114,.T.);
#71=FACE_OUTER_BOUND('',#115,.T.);
#72=FACE_OUTER_BOUND('',#116,.T.);
#73=FACE_OUTER_BOUND('',#117,.T.);
#74=FACE_OUTER_BOUND('',#118,.T.);
#75=FACE_OUTER_BOUND('',#120,.T.);
#76=FACE_OUTER_BOUND('',#121,.T.);
#77=FACE_OUTER_BOUND('',#122,.T.);
#78=FACE_OUTER_BOUND('',#124,.T.);
#79=FACE_OUTER_BOUND('',#125,.T.);
#80=FACE_OUTER_BOUND('',#126,.T.);
#81=FACE_OUTER_BOUND('',#127,.T.);
#82=FACE_OUTER_BOUND('',#128,.T.);
#83=FACE_OUTER_BOUND('',#129,.T.);
#84=FACE_OUTER_BOUND('',#130,.T.);
#85=FACE_OUTER_BOUND('',#131,.T.);
#86=FACE_OUTER_BOUND('',#134,.T.);
#87=FACE_OUTER_BOUND('',#137,.T.);
#88=FACE_OUTER_BOUND('',#138,.T.);
#89=FACE_OUTER_BOUND('',#139,.T.);
#90=FACE_OUTER_BOUND('',#140,.T.);
#91=FACE_OUTER_BOUND('',#141,.T.);
#92=FACE_OUTER_BOUND('',#142,.T.);
#93=FACE_OUTER_BOUND('',#143,.T.);
#94=FACE_OUTER_BOUND('',#144,.T.);
#95=FACE_OUTER_BOUND('',#147,.T.);
#96=FACE_OUTER_BOUND('',#150,.T.);
#97=FACE_OUTER_BOUND('',#151,.T.);
#98=FACE_OUTER_BOUND('',#152,.T.);
#99=EDGE_LOOP('',(#519,#520,#521,#522));
#100=EDGE_LOOP('',(#523,#524,#525,#526));
#101=EDGE_LOOP('',(#527,#528,#529,#530));
#102=EDGE_LOOP('',(#531));
#103=EDGE_LOOP('',(#532,#533,#534,#535));
#104=EDGE_LOOP('',(#536,#537,#538,#539,#540,#541,#542,#543,#544,#545));
#105=EDGE_LOOP('',(#546,#547,#548,#549));
#106=EDGE_LOOP('',(#550,#551,#552,#553));
#107=EDGE_LOOP('',(#554,#555,#556,#557,#558,#559));
#108=EDGE_LOOP('',(#560,#561,#562,#563,#564,#565,#566,#567,#568,#569,#570,
#571,#572,#573,#574,#575,#576));
#109=EDGE_LOOP('',(#577,#578,#579,#580,#581,#582,#583));
#110=EDGE_LOOP('',(#584));
#111=EDGE_LOOP('',(#585,#586,#587,#588));
#112=EDGE_LOOP('',(#589,#590,#591,#592));
#113=EDGE_LOOP('',(#593,#594,#595,#596));
#114=EDGE_LOOP('',(#597,#598,#599,#600));
#115=EDGE_LOOP('',(#601,#602,#603,#604));
#116=EDGE_LOOP('',(#605,#606,#607,#608));
#117=EDGE_LOOP('',(#609,#610,#611,#612));
#118=EDGE_LOOP('',(#613,#614,#615,#616,#617));
#119=EDGE_LOOP('',(#618));
#120=EDGE_LOOP('',(#619,#620,#621,#622));
#121=EDGE_LOOP('',(#623,#624,#625,#626,#627));
#122=EDGE_LOOP('',(#628,#629,#630,#631));
#123=EDGE_LOOP('',(#632));
#124=EDGE_LOOP('',(#633,#634,#635,#636,#637));
#125=EDGE_LOOP('',(#638,#639,#640,#641));
#126=EDGE_LOOP('',(#642,#643,#644,#645,#646,#647,#648,#649,#650));
#127=EDGE_LOOP('',(#651,#652,#653,#654));
#128=EDGE_LOOP('',(#655,#656,#657,#658));
#129=EDGE_LOOP('',(#659,#660,#661,#662));
#130=EDGE_LOOP('',(#663,#664,#665,#666));
#131=EDGE_LOOP('',(#667,#668,#669,#670,#671));
#132=EDGE_LOOP('',(#672));
#133=EDGE_LOOP('',(#673));
#134=EDGE_LOOP('',(#674,#675,#676,#677,#678));
#135=EDGE_LOOP('',(#679));
#136=EDGE_LOOP('',(#680));
#137=EDGE_LOOP('',(#681,#682,#683,#684));
#138=EDGE_LOOP('',(#685,#686,#687,#688));
#139=EDGE_LOOP('',(#689,#690,#691,#692));
#140=EDGE_LOOP('',(#693,#694,#695,#696));
#141=EDGE_LOOP('',(#697,#698,#699,#700));
#142=EDGE_LOOP('',(#701,#702,#703,#704));
#143=EDGE_LOOP('',(#705,#706,#707,#708));
#144=EDGE_LOOP('',(#709,#710,#711,#712,#713));
#145=EDGE_LOOP('',(#714));
#146=EDGE_LOOP('',(#715));
#147=EDGE_LOOP('',(#716,#717,#718,#719,#720));
#148=EDGE_LOOP('',(#721));
#149=EDGE_LOOP('',(#722));
#150=EDGE_LOOP('',(#723,#724,#725,#726));
#151=EDGE_LOOP('',(#727,#728,#729,#730));
#152=EDGE_LOOP('',(#731,#732,#733,#734));
#153=LINE('',#1110,#231);
#154=LINE('',#1116,#232);
#155=LINE('',#1123,#233);
#156=LINE('',#1125,#234);
#157=LINE('',#1126,#235);
#158=LINE('',#1131,#236);
#159=LINE('',#1132,#237);
#160=LINE('',#1135,#238);
#161=LINE('',#1137,#239);
#162=LINE('',#1141,#240);
#163=LINE('',#1143,#241);
#164=LINE('',#1145,#242);
#165=LINE('',#1148,#243);
#166=LINE('',#1153,#244);
#167=LINE('',#1154,#245);
#168=LINE('',#1159,#246);
#169=LINE('',#1160,#247);
#170=LINE('',#1164,#248);
#171=LINE('',#1166,#249);
#172=LINE('',#1168,#250);
#173=LINE('',#1169,#251);
#174=LINE('',#1170,#252);
#175=LINE('',#1173,#253);
#176=LINE('',#1177,#254);
#177=LINE('',#1179,#255);
#178=LINE('',#1183,#256);
#179=LINE('',#1185,#257);
#180=LINE('',#1189,#258);
#181=LINE('',#1192,#259);
#182=LINE('',#1196,#260);
#183=LINE('',#1197,#261);
#184=LINE('',#1199,#262);
#185=LINE('',#1201,#263);
#186=LINE('',#1202,#264);
#187=LINE('',#1205,#265);
#188=LINE('',#1206,#266);
#189=LINE('',#1210,#267);
#190=LINE('',#1213,#268);
#191=LINE('',#1214,#269);
#192=LINE('',#1217,#270);
#193=LINE('',#1218,#271);
#194=LINE('',#1222,#272);
#195=LINE('',#1225,#273);
#196=LINE('',#1226,#274);
#197=LINE('',#1230,#275);
#198=LINE('',#1232,#276);
#199=LINE('',#1234,#277);
#200=LINE('',#1237,#278);
#201=LINE('',#1244,#279);
#202=LINE('',#1250,#280);
#203=LINE('',#1257,#281);
#204=LINE('',#1260,#282);
#205=LINE('',#1263,#283);
#206=LINE('',#1265,#284);
#207=LINE('',#1266,#285);
#208=LINE('',#1269,#286);
#209=LINE('',#1271,#287);
#210=LINE('',#1272,#288);
#211=LINE('',#1275,#289);
#212=LINE('',#1277,#290);
#213=LINE('',#1278,#291);
#214=LINE('',#1280,#292);
#215=LINE('',#1282,#293);
#216=LINE('',#1288,#294);
#217=LINE('',#1294,#295);
#218=LINE('',#1301,#296);
#219=LINE('',#1304,#297);
#220=LINE('',#1307,#298);
#221=LINE('',#1309,#299);
#222=LINE('',#1310,#300);
#223=LINE('',#1313,#301);
#224=LINE('',#1315,#302);
#225=LINE('',#1316,#303);
#226=LINE('',#1319,#304);
#227=LINE('',#1321,#305);
#228=LINE('',#1322,#306);
#229=LINE('',#1324,#307);
#230=LINE('',#1326,#308);
#231=VECTOR('',#887,2.5);
#232=VECTOR('',#894,7.5);
#233=VECTOR('',#901,10.);
#234=VECTOR('',#902,10.);
#235=VECTOR('',#903,10.);
#236=VECTOR('',#908,10.);
#237=VECTOR('',#909,10.);
#238=VECTOR('',#912,10.);
#239=VECTOR('',#913,10.);
#240=VECTOR('',#916,10.);
#241=VECTOR('',#917,10.);
#242=VECTOR('',#918,10.);
#243=VECTOR('',#921,10.);
#244=VECTOR('',#926,10.);
#245=VECTOR('',#927,10.);
#246=VECTOR('',#932,10.);
#247=VECTOR('',#933,10.);
#248=VECTOR('',#936,10.);
#249=VECTOR('',#937,10.);
#250=VECTOR('',#938,10.);
#251=VECTOR('',#939,10.);
#252=VECTOR('',#940,10.);
#253=VECTOR('',#943,10.);
#254=VECTOR('',#946,10.);
#255=VECTOR('',#947,10.);
#256=VECTOR('',#950,10.);
#257=VECTOR('',#951,10.);
#258=VECTOR('',#954,10.);
#259=VECTOR('',#957,10.);
#260=VECTOR('',#960,10.);
#261=VECTOR('',#961,10.);
#262=VECTOR('',#964,10.);
#263=VECTOR('',#965,10.);
#264=VECTOR('',#966,10.);
#265=VECTOR('',#969,10.);
#266=VECTOR('',#970,10.);
#267=VECTOR('',#975,10.);
#268=VECTOR('',#978,10.);
#269=VECTOR('',#979,10.);
#270=VECTOR('',#982,10.);
#271=VECTOR('',#983,10.);
#272=VECTOR('',#988,10.);
#273=VECTOR('',#991,10.);
#274=VECTOR('',#992,10.);
#275=VECTOR('',#999,10.);
#276=VECTOR('',#1002,10.);
#277=VECTOR('',#1005,10.);
#278=VECTOR('',#1010,10.);
#279=VECTOR('',#1019,1.75);
#280=VECTOR('',#1026,1.75);
#281=VECTOR('',#1033,10.);
#282=VECTOR('',#1036,10.);
#283=VECTOR('',#1039,10.);
#284=VECTOR('',#1040,10.);
#285=VECTOR('',#1041,10.);
#286=VECTOR('',#1044,10.);
#287=VECTOR('',#1045,10.);
#288=VECTOR('',#1046,10.);
#289=VECTOR('',#1049,10.);
#290=VECTOR('',#1050,10.);
#291=VECTOR('',#1051,10.);
#292=VECTOR('',#1054,10.);
#293=VECTOR('',#1057,10.);
#294=VECTOR('',#1064,1.75);
#295=VECTOR('',#1071,1.75);
#296=VECTOR('',#1078,10.);
#297=VECTOR('',#1081,10.);
#298=VECTOR('',#1084,10.);
#299=VECTOR('',#1085,10.);
#300=VECTOR('',#1086,10.);
#301=VECTOR('',#1089,10.);
#302=VECTOR('',#1090,10.);
#303=VECTOR('',#1091,10.);
#304=VECTOR('',#1094,10.);
#305=VECTOR('',#1095,10.);
#306=VECTOR('',#1096,10.);
#307=VECTOR('',#1099,10.);
#308=VECTOR('',#1102,10.);
#309=CIRCLE('',#810,2.5);
#310=CIRCLE('',#811,2.5);
#311=CIRCLE('',#813,7.5);
#312=CIRCLE('',#814,7.5);
#313=CIRCLE('',#816,10.);
#314=CIRCLE('',#818,10.);
#315=CIRCLE('',#820,5.00000007450581);
#316=CIRCLE('',#821,5.00000007450581);
#317=CIRCLE('',#823,5.);
#318=CIRCLE('',#825,5.);
#319=CIRCLE('',#828,5.);
#320=CIRCLE('',#829,10.);
#321=CIRCLE('',#830,10.0000001490116);
#322=CIRCLE('',#831,10.);
#323=CIRCLE('',#832,5.);
#324=CIRCLE('',#836,10.);
#325=CIRCLE('',#840,10.0000001490116);
#326=CIRCLE('',#843,10.);
#327=CIRCLE('',#852,1.75);
#328=CIRCLE('',#853,1.75);
#329=CIRCLE('',#855,1.75);
#330=CIRCLE('',#856,1.75);
#331=CIRCLE('',#858,4.);
#332=CIRCLE('',#859,4.);
#333=CIRCLE('',#867,1.75);
#334=CIRCLE('',#868,1.75);
#335=CIRCLE('',#870,1.75);
#336=CIRCLE('',#871,1.75);
#337=CIRCLE('',#873,4.);
#338=CIRCLE('',#874,4.);
#339=VERTEX_POINT('',#1107);
#340=VERTEX_POINT('',#1109);
#341=VERTEX_POINT('',#1113);
#342=VERTEX_POINT('',#1115);
#343=VERTEX_POINT('',#1119);
#344=VERTEX_POINT('',#1120);
#345=VERTEX_POINT('',#1122);
#346=VERTEX_POINT('',#1124);
#347=VERTEX_POINT('',#1128);
#348=VERTEX_POINT('',#1129);
#349=VERTEX_POINT('',#1134);
#350=VERTEX_POINT('',#1136);
#351=VERTEX_POINT('',#1138);
#352=VERTEX_POINT('',#1140);
#353=VERTEX_POINT('',#1142);
#354=VERTEX_POINT('',#1144);
#355=VERTEX_POINT('',#1146);
#356=VERTEX_POINT('',#1150);
#357=VERTEX_POINT('',#1151);
#358=VERTEX_POINT('',#1156);
#359=VERTEX_POINT('',#1157);
#360=VERTEX_POINT('',#1162);
#361=VERTEX_POINT('',#1163);
#362=VERTEX_POINT('',#1165);
#363=VERTEX_POINT('',#1167);
#364=VERTEX_POINT('',#1172);
#365=VERTEX_POINT('',#1174);
#366=VERTEX_POINT('',#1176);
#367=VERTEX_POINT('',#1178);
#368=VERTEX_POINT('',#1180);
#369=VERTEX_POINT('',#1182);
#370=VERTEX_POINT('',#1184);
#371=VERTEX_POINT('',#1186);
#372=VERTEX_POINT('',#1188);
#373=VERTEX_POINT('',#1191);
#374=VERTEX_POINT('',#1193);
#375=VERTEX_POINT('',#1195);
#376=VERTEX_POINT('',#1200);
#377=VERTEX_POINT('',#1204);
#378=VERTEX_POINT('',#1208);
#379=VERTEX_POINT('',#1212);
#380=VERTEX_POINT('',#1216);
#381=VERTEX_POINT('',#1220);
#382=VERTEX_POINT('',#1224);
#383=VERTEX_POINT('',#1241);
#384=VERTEX_POINT('',#1243);
#385=VERTEX_POINT('',#1247);
#386=VERTEX_POINT('',#1249);
#387=VERTEX_POINT('',#1253);
#388=VERTEX_POINT('',#1254);
#389=VERTEX_POINT('',#1256);
#390=VERTEX_POINT('',#1258);
#391=VERTEX_POINT('',#1262);
#392=VERTEX_POINT('',#1264);
#393=VERTEX_POINT('',#1268);
#394=VERTEX_POINT('',#1270);
#395=VERTEX_POINT('',#1274);
#396=VERTEX_POINT('',#1276);
#397=VERTEX_POINT('',#1285);
#398=VERTEX_POINT('',#1287);
#399=VERTEX_POINT('',#1291);
#400=VERTEX_POINT('',#1293);
#401=VERTEX_POINT('',#1297);
#402=VERTEX_POINT('',#1298);
#403=VERTEX_POINT('',#1300);
#404=VERTEX_POINT('',#1302);
#405=VERTEX_POINT('',#1306);
#406=VERTEX_POINT('',#1308);
#407=VERTEX_POINT('',#1312);
#408=VERTEX_POINT('',#1314);
#409=VERTEX_POINT('',#1318);
#410=VERTEX_POINT('',#1320);
#411=EDGE_CURVE('',#339,#339,#309,.T.);
#412=EDGE_CURVE('',#339,#340,#153,.T.);
#413=EDGE_CURVE('',#340,#340,#310,.T.);
#414=EDGE_CURVE('',#341,#341,#311,.T.);
#415=EDGE_CURVE('',#341,#342,#154,.T.);
#416=EDGE_CURVE('',#342,#342,#312,.T.);
#417=EDGE_CURVE('',#343,#344,#313,.T.);
#418=EDGE_CURVE('',#345,#343,#155,.T.);
#419=EDGE_CURVE('',#346,#345,#156,.T.);
#420=EDGE_CURVE('',#346,#344,#157,.T.);
#421=EDGE_CURVE('',#347,#348,#314,.T.);
#422=EDGE_CURVE('',#348,#343,#158,.T.);
#423=EDGE_CURVE('',#344,#347,#159,.T.);
#424=EDGE_CURVE('',#348,#349,#160,.T.);
#425=EDGE_CURVE('',#349,#350,#161,.T.);
#426=EDGE_CURVE('',#350,#351,#315,.T.);
#427=EDGE_CURVE('',#351,#352,#162,.T.);
#428=EDGE_CURVE('',#352,#353,#163,.T.);
#429=EDGE_CURVE('',#353,#354,#164,.T.);
#430=EDGE_CURVE('',#354,#355,#316,.T.);
#431=EDGE_CURVE('',#355,#345,#165,.T.);
#432=EDGE_CURVE('',#356,#357,#317,.T.);
#433=EDGE_CURVE('',#357,#351,#166,.T.);
#434=EDGE_CURVE('',#356,#350,#167,.T.);
#435=EDGE_CURVE('',#358,#359,#318,.T.);
#436=EDGE_CURVE('',#359,#355,#168,.T.);
#437=EDGE_CURVE('',#358,#354,#169,.T.);
#438=EDGE_CURVE('',#360,#361,#170,.T.);
#439=EDGE_CURVE('',#360,#362,#171,.T.);
#440=EDGE_CURVE('',#363,#362,#172,.T.);
#441=EDGE_CURVE('',#363,#353,#173,.T.);
#442=EDGE_CURVE('',#361,#352,#174,.T.);
#443=EDGE_CURVE('',#364,#346,#175,.T.);
#444=EDGE_CURVE('',#365,#364,#319,.T.);
#445=EDGE_CURVE('',#366,#365,#176,.T.);
#446=EDGE_CURVE('',#367,#366,#177,.T.);
#447=EDGE_CURVE('',#367,#368,#320,.T.);
#448=EDGE_CURVE('',#368,#369,#178,.T.);
#449=EDGE_CURVE('',#369,#370,#179,.T.);
#450=EDGE_CURVE('',#370,#371,#321,.T.);
#451=EDGE_CURVE('',#371,#372,#180,.T.);
#452=EDGE_CURVE('',#372,#360,#322,.T.);
#453=EDGE_CURVE('',#373,#361,#181,.T.);
#454=EDGE_CURVE('',#373,#374,#323,.T.);
#455=EDGE_CURVE('',#375,#374,#182,.T.);
#456=EDGE_CURVE('',#347,#375,#183,.T.);
#457=EDGE_CURVE('',#365,#358,#184,.T.);
#458=EDGE_CURVE('',#376,#363,#185,.T.);
#459=EDGE_CURVE('',#366,#376,#186,.T.);
#460=EDGE_CURVE('',#377,#376,#187,.T.);
#461=EDGE_CURVE('',#367,#377,#188,.T.);
#462=EDGE_CURVE('',#378,#377,#324,.T.);
#463=EDGE_CURVE('',#368,#378,#189,.T.);
#464=EDGE_CURVE('',#379,#378,#190,.T.);
#465=EDGE_CURVE('',#369,#379,#191,.T.);
#466=EDGE_CURVE('',#380,#379,#192,.T.);
#467=EDGE_CURVE('',#370,#380,#193,.T.);
#468=EDGE_CURVE('',#381,#380,#325,.T.);
#469=EDGE_CURVE('',#371,#381,#194,.T.);
#470=EDGE_CURVE('',#382,#381,#195,.T.);
#471=EDGE_CURVE('',#372,#382,#196,.T.);
#472=EDGE_CURVE('',#362,#382,#326,.T.);
#473=EDGE_CURVE('',#373,#357,#197,.T.);
#474=EDGE_CURVE('',#374,#356,#198,.T.);
#475=EDGE_CURVE('',#375,#349,#199,.T.);
#476=EDGE_CURVE('',#364,#359,#200,.T.);
#477=EDGE_CURVE('',#383,#383,#327,.T.);
#478=EDGE_CURVE('',#383,#384,#201,.T.);
#479=EDGE_CURVE('',#384,#384,#328,.T.);
#480=EDGE_CURVE('',#385,#385,#329,.T.);
#481=EDGE_CURVE('',#385,#386,#202,.T.);
#482=EDGE_CURVE('',#386,#386,#330,.T.);
#483=EDGE_CURVE('',#387,#388,#331,.T.);
#484=EDGE_CURVE('',#388,#389,#203,.T.);
#485=EDGE_CURVE('',#389,#390,#332,.T.);
#486=EDGE_CURVE('',#390,#387,#204,.T.);
#487=EDGE_CURVE('',#388,#391,#205,.T.);
#488=EDGE_CURVE('',#391,#392,#206,.T.);
#489=EDGE_CURVE('',#392,#389,#207,.T.);
#490=EDGE_CURVE('',#393,#387,#208,.T.);
#491=EDGE_CURVE('',#393,#394,#209,.T.);
#492=EDGE_CURVE('',#394,#391,#210,.T.);
#493=EDGE_CURVE('',#395,#392,#211,.T.);
#494=EDGE_CURVE('',#395,#396,#212,.T.);
#495=EDGE_CURVE('',#396,#390,#213,.T.);
#496=EDGE_CURVE('',#394,#395,#214,.T.);
#497=EDGE_CURVE('',#396,#393,#215,.T.);
#498=EDGE_CURVE('',#397,#397,#333,.T.);
#499=EDGE_CURVE('',#397,#398,#216,.T.);
#500=EDGE_CURVE('',#398,#398,#334,.T.);
#501=EDGE_CURVE('',#399,#399,#335,.T.);
#502=EDGE_CURVE('',#399,#400,#217,.T.);
#503=EDGE_CURVE('',#400,#400,#336,.T.);
#504=EDGE_CURVE('',#401,#402,#337,.T.);
#505=EDGE_CURVE('',#402,#403,#218,.T.);
#506=EDGE_CURVE('',#403,#404,#338,.T.);
#507=EDGE_CURVE('',#404,#401,#219,.T.);
#508=EDGE_CURVE('',#402,#405,#220,.T.);
#509=EDGE_CURVE('',#405,#406,#221,.T.);
#510=EDGE_CURVE('',#406,#403,#222,.T.);
#511=EDGE_CURVE('',#407,#401,#223,.T.);
#512=EDGE_CURVE('',#407,#408,#224,.T.);
#513=EDGE_CURVE('',#408,#405,#225,.T.);
#514=EDGE_CURVE('',#409,#406,#226,.T.);
#515=EDGE_CURVE('',#409,#410,#227,.T.);
#516=EDGE_CURVE('',#410,#404,#228,.T.);
#517=EDGE_CURVE('',#408,#409,#229,.T.);
#518=EDGE_CURVE('',#410,#407,#230,.T.);
#519=ORIENTED_EDGE('',*,*,#411,.F.);
#520=ORIENTED_EDGE('',*,*,#412,.T.);
#521=ORIENTED_EDGE('',*,*,#413,.F.);
#522=ORIENTED_EDGE('',*,*,#412,.F.);
#523=ORIENTED_EDGE('',*,*,#414,.F.);
#524=ORIENTED_EDGE('',*,*,#415,.T.);
#525=ORIENTED_EDGE('',*,*,#416,.F.);
#526=ORIENTED_EDGE('',*,*,#415,.F.);
#527=ORIENTED_EDGE('',*,*,#417,.F.);
#528=ORIENTED_EDGE('',*,*,#418,.F.);
#529=ORIENTED_EDGE('',*,*,#419,.F.);
#530=ORIENTED_EDGE('',*,*,#420,.T.);
#531=ORIENTED_EDGE('',*,*,#414,.T.);
#532=ORIENTED_EDGE('',*,*,#421,.T.);
#533=ORIENTED_EDGE('',*,*,#422,.T.);
#534=ORIENTED_EDGE('',*,*,#417,.T.);
#535=ORIENTED_EDGE('',*,*,#423,.T.);
#536=ORIENTED_EDGE('',*,*,#422,.F.);
#537=ORIENTED_EDGE('',*,*,#424,.T.);
#538=ORIENTED_EDGE('',*,*,#425,.T.);
#539=ORIENTED_EDGE('',*,*,#426,.T.);
#540=ORIENTED_EDGE('',*,*,#427,.T.);
#541=ORIENTED_EDGE('',*,*,#428,.T.);
#542=ORIENTED_EDGE('',*,*,#429,.T.);
#543=ORIENTED_EDGE('',*,*,#430,.T.);
#544=ORIENTED_EDGE('',*,*,#431,.T.);
#545=ORIENTED_EDGE('',*,*,#418,.T.);
#546=ORIENTED_EDGE('',*,*,#432,.T.);
#547=ORIENTED_EDGE('',*,*,#433,.T.);
#548=ORIENTED_EDGE('',*,*,#426,.F.);
#549=ORIENTED_EDGE('',*,*,#434,.F.);
#550=ORIENTED_EDGE('',*,*,#435,.T.);
#551=ORIENTED_EDGE('',*,*,#436,.T.);
#552=ORIENTED_EDGE('',*,*,#430,.F.);
#553=ORIENTED_EDGE('',*,*,#437,.F.);
#554=ORIENTED_EDGE('',*,*,#438,.F.);
#555=ORIENTED_EDGE('',*,*,#439,.T.);
#556=ORIENTED_EDGE('',*,*,#440,.F.);
#557=ORIENTED_EDGE('',*,*,#441,.T.);
#558=ORIENTED_EDGE('',*,*,#428,.F.);
#559=ORIENTED_EDGE('',*,*,#442,.F.);
#560=ORIENTED_EDGE('',*,*,#423,.F.);
#561=ORIENTED_EDGE('',*,*,#420,.F.);
#562=ORIENTED_EDGE('',*,*,#443,.F.);
#563=ORIENTED_EDGE('',*,*,#444,.F.);
#564=ORIENTED_EDGE('',*,*,#445,.F.);
#565=ORIENTED_EDGE('',*,*,#446,.F.);
#566=ORIENTED_EDGE('',*,*,#447,.T.);
#567=ORIENTED_EDGE('',*,*,#448,.T.);
#568=ORIENTED_EDGE('',*,*,#449,.T.);
#569=ORIENTED_EDGE('',*,*,#450,.T.);
#570=ORIENTED_EDGE('',*,*,#451,.T.);
#571=ORIENTED_EDGE('',*,*,#452,.T.);
#572=ORIENTED_EDGE('',*,*,#438,.T.);
#573=ORIENTED_EDGE('',*,*,#453,.F.);
#574=ORIENTED_EDGE('',*,*,#454,.T.);
#575=ORIENTED_EDGE('',*,*,#455,.F.);
#576=ORIENTED_EDGE('',*,*,#456,.F.);
#577=ORIENTED_EDGE('',*,*,#445,.T.);
#578=ORIENTED_EDGE('',*,*,#457,.T.);
#579=ORIENTED_EDGE('',*,*,#437,.T.);
#580=ORIENTED_EDGE('',*,*,#429,.F.);
#581=ORIENTED_EDGE('',*,*,#441,.F.);
#582=ORIENTED_EDGE('',*,*,#458,.F.);
#583=ORIENTED_EDGE('',*,*,#459,.F.);
#584=ORIENTED_EDGE('',*,*,#411,.T.);
#585=ORIENTED_EDGE('',*,*,#446,.T.);
#586=ORIENTED_EDGE('',*,*,#459,.T.);
#587=ORIENTED_EDGE('',*,*,#460,.F.);
#588=ORIENTED_EDGE('',*,*,#461,.F.);
#589=ORIENTED_EDGE('',*,*,#447,.F.);
#590=ORIENTED_EDGE('',*,*,#461,.T.);
#591=ORIENTED_EDGE('',*,*,#462,.F.);
#592=ORIENTED_EDGE('',*,*,#463,.F.);
#593=ORIENTED_EDGE('',*,*,#448,.F.);
#594=ORIENTED_EDGE('',*,*,#463,.T.);
#595=ORIENTED_EDGE('',*,*,#464,.F.);
#596=ORIENTED_EDGE('',*,*,#465,.F.);
#597=ORIENTED_EDGE('',*,*,#449,.F.);
#598=ORIENTED_EDGE('',*,*,#465,.T.);
#599=ORIENTED_EDGE('',*,*,#466,.F.);
#600=ORIENTED_EDGE('',*,*,#467,.F.);
#601=ORIENTED_EDGE('',*,*,#450,.F.);
#602=ORIENTED_EDGE('',*,*,#467,.T.);
#603=ORIENTED_EDGE('',*,*,#468,.F.);
#604=ORIENTED_EDGE('',*,*,#469,.F.);
#605=ORIENTED_EDGE('',*,*,#451,.F.);
#606=ORIENTED_EDGE('',*,*,#469,.T.);
#607=ORIENTED_EDGE('',*,*,#470,.F.);
#608=ORIENTED_EDGE('',*,*,#471,.F.);
#609=ORIENTED_EDGE('',*,*,#452,.F.);
#610=ORIENTED_EDGE('',*,*,#471,.T.);
#611=ORIENTED_EDGE('',*,*,#472,.F.);
#612=ORIENTED_EDGE('',*,*,#439,.F.);
#613=ORIENTED_EDGE('',*,*,#453,.T.);
#614=ORIENTED_EDGE('',*,*,#442,.T.);
#615=ORIENTED_EDGE('',*,*,#427,.F.);
#616=ORIENTED_EDGE('',*,*,#433,.F.);
#617=ORIENTED_EDGE('',*,*,#473,.F.);
#618=ORIENTED_EDGE('',*,*,#413,.T.);
#619=ORIENTED_EDGE('',*,*,#454,.F.);
#620=ORIENTED_EDGE('',*,*,#473,.T.);
#621=ORIENTED_EDGE('',*,*,#432,.F.);
#622=ORIENTED_EDGE('',*,*,#474,.F.);
#623=ORIENTED_EDGE('',*,*,#455,.T.);
#624=ORIENTED_EDGE('',*,*,#474,.T.);
#625=ORIENTED_EDGE('',*,*,#434,.T.);
#626=ORIENTED_EDGE('',*,*,#425,.F.);
#627=ORIENTED_EDGE('',*,*,#475,.F.);
#628=ORIENTED_EDGE('',*,*,#421,.F.);
#629=ORIENTED_EDGE('',*,*,#456,.T.);
#630=ORIENTED_EDGE('',*,*,#475,.T.);
#631=ORIENTED_EDGE('',*,*,#424,.F.);
#632=ORIENTED_EDGE('',*,*,#416,.T.);
#633=ORIENTED_EDGE('',*,*,#443,.T.);
#634=ORIENTED_EDGE('',*,*,#419,.T.);
#635=ORIENTED_EDGE('',*,*,#431,.F.);
#636=ORIENTED_EDGE('',*,*,#436,.F.);
#637=ORIENTED_EDGE('',*,*,#476,.F.);
#638=ORIENTED_EDGE('',*,*,#444,.T.);
#639=ORIENTED_EDGE('',*,*,#476,.T.);
#640=ORIENTED_EDGE('',*,*,#435,.F.);
#641=ORIENTED_EDGE('',*,*,#457,.F.);
#642=ORIENTED_EDGE('',*,*,#458,.T.);
#643=ORIENTED_EDGE('',*,*,#440,.T.);
#644=ORIENTED_EDGE('',*,*,#472,.T.);
#645=ORIENTED_EDGE('',*,*,#470,.T.);
#646=ORIENTED_EDGE('',*,*,#468,.T.);
#647=ORIENTED_EDGE('',*,*,#466,.T.);
#648=ORIENTED_EDGE('',*,*,#464,.T.);
#649=ORIENTED_EDGE('',*,*,#462,.T.);
#650=ORIENTED_EDGE('',*,*,#460,.T.);
#651=ORIENTED_EDGE('',*,*,#477,.F.);
#652=ORIENTED_EDGE('',*,*,#478,.T.);
#653=ORIENTED_EDGE('',*,*,#479,.F.);
#654=ORIENTED_EDGE('',*,*,#478,.F.);
#655=ORIENTED_EDGE('',*,*,#480,.F.);
#656=ORIENTED_EDGE('',*,*,#481,.T.);
#657=ORIENTED_EDGE('',*,*,#482,.F.);
#658=ORIENTED_EDGE('',*,*,#481,.F.);
#659=ORIENTED_EDGE('',*,*,#483,.T.);
#660=ORIENTED_EDGE('',*,*,#484,.T.);
#661=ORIENTED_EDGE('',*,*,#485,.T.);
#662=ORIENTED_EDGE('',*,*,#486,.T.);
#663=ORIENTED_EDGE('',*,*,#484,.F.);
#664=ORIENTED_EDGE('',*,*,#487,.T.);
#665=ORIENTED_EDGE('',*,*,#488,.T.);
#666=ORIENTED_EDGE('',*,*,#489,.T.);
#667=ORIENTED_EDGE('',*,*,#483,.F.);
#668=ORIENTED_EDGE('',*,*,#490,.F.);
#669=ORIENTED_EDGE('',*,*,#491,.T.);
#670=ORIENTED_EDGE('',*,*,#492,.T.);
#671=ORIENTED_EDGE('',*,*,#487,.F.);
#672=ORIENTED_EDGE('',*,*,#477,.T.);
#673=ORIENTED_EDGE('',*,*,#480,.T.);
#674=ORIENTED_EDGE('',*,*,#485,.F.);
#675=ORIENTED_EDGE('',*,*,#489,.F.);
#676=ORIENTED_EDGE('',*,*,#493,.F.);
#677=ORIENTED_EDGE('',*,*,#494,.T.);
#678=ORIENTED_EDGE('',*,*,#495,.T.);
#679=ORIENTED_EDGE('',*,*,#479,.T.);
#680=ORIENTED_EDGE('',*,*,#482,.T.);
#681=ORIENTED_EDGE('',*,*,#496,.T.);
#682=ORIENTED_EDGE('',*,*,#493,.T.);
#683=ORIENTED_EDGE('',*,*,#488,.F.);
#684=ORIENTED_EDGE('',*,*,#492,.F.);
#685=ORIENTED_EDGE('',*,*,#486,.F.);
#686=ORIENTED_EDGE('',*,*,#495,.F.);
#687=ORIENTED_EDGE('',*,*,#497,.T.);
#688=ORIENTED_EDGE('',*,*,#490,.T.);
#689=ORIENTED_EDGE('',*,*,#497,.F.);
#690=ORIENTED_EDGE('',*,*,#494,.F.);
#691=ORIENTED_EDGE('',*,*,#496,.F.);
#692=ORIENTED_EDGE('',*,*,#491,.F.);
#693=ORIENTED_EDGE('',*,*,#498,.F.);
#694=ORIENTED_EDGE('',*,*,#499,.T.);
#695=ORIENTED_EDGE('',*,*,#500,.F.);
#696=ORIENTED_EDGE('',*,*,#499,.F.);
#697=ORIENTED_EDGE('',*,*,#501,.F.);
#698=ORIENTED_EDGE('',*,*,#502,.T.);
#699=ORIENTED_EDGE('',*,*,#503,.F.);
#700=ORIENTED_EDGE('',*,*,#502,.F.);
#701=ORIENTED_EDGE('',*,*,#504,.T.);
#702=ORIENTED_EDGE('',*,*,#505,.T.);
#703=ORIENTED_EDGE('',*,*,#506,.T.);
#704=ORIENTED_EDGE('',*,*,#507,.T.);
#705=ORIENTED_EDGE('',*,*,#505,.F.);
#706=ORIENTED_EDGE('',*,*,#508,.T.);
#707=ORIENTED_EDGE('',*,*,#509,.T.);
#708=ORIENTED_EDGE('',*,*,#510,.T.);
#709=ORIENTED_EDGE('',*,*,#504,.F.);
#710=ORIENTED_EDGE('',*,*,#511,.F.);
#711=ORIENTED_EDGE('',*,*,#512,.T.);
#712=ORIENTED_EDGE('',*,*,#513,.T.);
#713=ORIENTED_EDGE('',*,*,#508,.F.);
#714=ORIENTED_EDGE('',*,*,#498,.T.);
#715=ORIENTED_EDGE('',*,*,#501,.T.);
#716=ORIENTED_EDGE('',*,*,#506,.F.);
#717=ORIENTED_EDGE('',*,*,#510,.F.);
#718=ORIENTED_EDGE('',*,*,#514,.F.);
#719=ORIENTED_EDGE('',*,*,#515,.T.);
#720=ORIENTED_EDGE('',*,*,#516,.T.);
#721=ORIENTED_EDGE('',*,*,#500,.T.);
#722=ORIENTED_EDGE('',*,*,#503,.T.);
#723=ORIENTED_EDGE('',*,*,#517,.T.);
#724=ORIENTED_EDGE('',*,*,#514,.T.);
#725=ORIENTED_EDGE('',*,*,#509,.F.);
#726=ORIENTED_EDGE('',*,*,#513,.F.);
#727=ORIENTED_EDGE('',*,*,#507,.F.);
#728=ORIENTED_EDGE('',*,*,#516,.F.);
#729=ORIENTED_EDGE('',*,*,#518,.T.);
#730=ORIENTED_EDGE('',*,*,#511,.T.);
#731=ORIENTED_EDGE('',*,*,#518,.F.);
#732=ORIENTED_EDGE('',*,*,#515,.F.);
#733=ORIENTED_EDGE('',*,*,#517,.F.);
#734=ORIENTED_EDGE('',*,*,#512,.F.);
#735=CYLINDRICAL_SURFACE('',#809,2.5);
#736=CYLINDRICAL_SURFACE('',#812,7.5);
#737=CYLINDRICAL_SURFACE('',#817,10.);
#738=CYLINDRICAL_SURFACE('',#822,5.00000007450581);
#739=CYLINDRICAL_SURFACE('',#824,5.00000007450581);
#740=CYLINDRICAL_SURFACE('',#835,10.);
#741=CYLINDRICAL_SURFACE('',#839,10.0000001490116);
#742=CYLINDRICAL_SURFACE('',#842,10.);
#743=CYLINDRICAL_SURFACE('',#845,5.);
#744=CYLINDRICAL_SURFACE('',#849,5.);
#745=CYLINDRICAL_SURFACE('',#851,1.75);
#746=CYLINDRICAL_SURFACE('',#854,1.75);
#747=CYLINDRICAL_SURFACE('',#857,4.);
#748=CYLINDRICAL_SURFACE('',#866,1.75);
#749=CYLINDRICAL_SURFACE('',#869,1.75);
#750=CYLINDRICAL_SURFACE('',#872,4.);
#751=ADVANCED_FACE('',(#57),#735,.F.);
#752=ADVANCED_FACE('',(#58),#736,.F.);
#753=ADVANCED_FACE('',(#59,#19),#31,.T.);
#754=ADVANCED_FACE('',(#60),#737,.T.);
#755=ADVANCED_FACE('',(#61),#32,.T.);
#756=ADVANCED_FACE('',(#62),#738,.F.);
#757=ADVANCED_FACE('',(#63),#739,.T.);
#758=ADVANCED_FACE('',(#64),#33,.T.);
#759=ADVANCED_FACE('',(#65),#34,.F.);
#760=ADVANCED_FACE('',(#66,#20),#35,.T.);
#761=ADVANCED_FACE('',(#67),#36,.T.);
#762=ADVANCED_FACE('',(#68),#740,.F.);
#763=ADVANCED_FACE('',(#69),#37,.T.);
#764=ADVANCED_FACE('',(#70),#38,.T.);
#765=ADVANCED_FACE('',(#71),#741,.F.);
#766=ADVANCED_FACE('',(#72),#39,.T.);
#767=ADVANCED_FACE('',(#73),#742,.F.);
#768=ADVANCED_FACE('',(#74,#21),#40,.T.);
#769=ADVANCED_FACE('',(#75),#743,.F.);
#770=ADVANCED_FACE('',(#76),#41,.T.);
#771=ADVANCED_FACE('',(#77,#22),#42,.T.);
#772=ADVANCED_FACE('',(#78),#43,.T.);
#773=ADVANCED_FACE('',(#79),#744,.T.);
#774=ADVANCED_FACE('',(#80),#44,.T.);
#775=ADVANCED_FACE('',(#81),#745,.F.);
#776=ADVANCED_FACE('',(#82),#746,.F.);
#777=ADVANCED_FACE('',(#83),#747,.T.);
#778=ADVANCED_FACE('',(#84),#45,.T.);
#779=ADVANCED_FACE('',(#85,#23,#24),#46,.T.);
#780=ADVANCED_FACE('',(#86,#25,#26),#47,.T.);
#781=ADVANCED_FACE('',(#87),#48,.T.);
#782=ADVANCED_FACE('',(#88),#49,.T.);
#783=ADVANCED_FACE('',(#89),#50,.F.);
#784=ADVANCED_FACE('',(#90),#748,.F.);
#785=ADVANCED_FACE('',(#91),#749,.F.);
#786=ADVANCED_FACE('',(#92),#750,.T.);
#787=ADVANCED_FACE('',(#93),#51,.T.);
#788=ADVANCED_FACE('',(#94,#27,#28),#52,.T.);
#789=ADVANCED_FACE('',(#95,#29,#30),#53,.T.);
#790=ADVANCED_FACE('',(#96),#54,.T.);
#791=ADVANCED_FACE('',(#97),#55,.T.);
#792=ADVANCED_FACE('',(#98),#56,.F.);
#793=CLOSED_SHELL('',(#751,#752,#753,#754,#755,#756,#757,#758,#759,#760,
#761,#762,#763,#764,#765,#766,#767,#768,#769,#770,#771,#772,#773,#774));
#794=CLOSED_SHELL('',(#775,#776,#777,#778,#779,#780,#781,#782,#783));
#795=CLOSED_SHELL('',(#784,#785,#786,#787,#788,#789,#790,#791,#792));
#796=DERIVED_UNIT_ELEMENT(#798,1.);
#797=DERIVED_UNIT_ELEMENT(#1333,-3.);
#798=(
MASS_UNIT()
NAMED_UNIT(*)
SI_UNIT(.KILO.,.GRAM.)
);
#799=DERIVED_UNIT((#796,#797));
#800=MEASURE_REPRESENTATION_ITEM('density measure',
POSITIVE_RATIO_MEASURE(7850.),#799);
#801=PROPERTY_DEFINITION_REPRESENTATION(#806,#803);
#802=PROPERTY_DEFINITION_REPRESENTATION(#807,#804);
#803=REPRESENTATION('material name',(#805),#1330);
#804=REPRESENTATION('density',(#800),#1330);
#805=DESCRIPTIVE_REPRESENTATION_ITEM('Steel','Steel');
#806=PROPERTY_DEFINITION('material property','material name',#1340);
#807=PROPERTY_DEFINITION('material property','density of part',#1340);
#808=AXIS2_PLACEMENT_3D('',#1105,#881,#882);
#809=AXIS2_PLACEMENT_3D('',#1106,#883,#884);
#810=AXIS2_PLACEMENT_3D('',#1108,#885,#886);
#811=AXIS2_PLACEMENT_3D('',#1111,#888,#889);
#812=AXIS2_PLACEMENT_3D('',#1112,#890,#891);
#813=AXIS2_PLACEMENT_3D('',#1114,#892,#893);
#814=AXIS2_PLACEMENT_3D('',#1117,#895,#896);
#815=AXIS2_PLACEMENT_3D('',#1118,#897,#898);
#816=AXIS2_PLACEMENT_3D('',#1121,#899,#900);
#817=AXIS2_PLACEMENT_3D('',#1127,#904,#905);
#818=AXIS2_PLACEMENT_3D('',#1130,#906,#907);
#819=AXIS2_PLACEMENT_3D('',#1133,#910,#911);
#820=AXIS2_PLACEMENT_3D('',#1139,#914,#915);
#821=AXIS2_PLACEMENT_3D('',#1147,#919,#920);
#822=AXIS2_PLACEMENT_3D('',#1149,#922,#923);
#823=AXIS2_PLACEMENT_3D('',#1152,#924,#925);
#824=AXIS2_PLACEMENT_3D('',#1155,#928,#929);
#825=AXIS2_PLACEMENT_3D('',#1158,#930,#931);
#826=AXIS2_PLACEMENT_3D('',#1161,#934,#935);
#827=AXIS2_PLACEMENT_3D('',#1171,#941,#942);
#828=AXIS2_PLACEMENT_3D('',#1175,#944,#945);
#829=AXIS2_PLACEMENT_3D('',#1181,#948,#949);
#830=AXIS2_PLACEMENT_3D('',#1187,#952,#953);
#831=AXIS2_PLACEMENT_3D('',#1190,#955,#956);
#832=AXIS2_PLACEMENT_3D('',#1194,#958,#959);
#833=AXIS2_PLACEMENT_3D('',#1198,#962,#963);
#834=AXIS2_PLACEMENT_3D('',#1203,#967,#968);
#835=AXIS2_PLACEMENT_3D('',#1207,#971,#972);
#836=AXIS2_PLACEMENT_3D('',#1209,#973,#974);
#837=AXIS2_PLACEMENT_3D('',#1211,#976,#977);
#838=AXIS2_PLACEMENT_3D('',#1215,#980,#981);
#839=AXIS2_PLACEMENT_3D('',#1219,#984,#985);
#840=AXIS2_PLACEMENT_3D('',#1221,#986,#987);
#841=AXIS2_PLACEMENT_3D('',#1223,#989,#990);
#842=AXIS2_PLACEMENT_3D('',#1227,#993,#994);
#843=AXIS2_PLACEMENT_3D('',#1228,#995,#996);
#844=AXIS2_PLACEMENT_3D('',#1229,#997,#998);
#845=AXIS2_PLACEMENT_3D('',#1231,#1000,#1001);
#846=AXIS2_PLACEMENT_3D('',#1233,#1003,#1004);
#847=AXIS2_PLACEMENT_3D('',#1235,#1006,#1007);
#848=AXIS2_PLACEMENT_3D('',#1236,#1008,#1009);
#849=AXIS2_PLACEMENT_3D('',#1238,#1011,#1012);
#850=AXIS2_PLACEMENT_3D('',#1239,#1013,#1014);
#851=AXIS2_PLACEMENT_3D('',#1240,#1015,#1016);
#852=AXIS2_PLACEMENT_3D('',#1242,#1017,#1018);
#853=AXIS2_PLACEMENT_3D('',#1245,#1020,#1021);
#854=AXIS2_PLACEMENT_3D('',#1246,#1022,#1023);
#855=AXIS2_PLACEMENT_3D('',#1248,#1024,#1025);
#856=AXIS2_PLACEMENT_3D('',#1251,#1027,#1028);
#857=AXIS2_PLACEMENT_3D('',#1252,#1029,#1030);
#858=AXIS2_PLACEMENT_3D('',#1255,#1031,#1032);
#859=AXIS2_PLACEMENT_3D('',#1259,#1034,#1035);
#860=AXIS2_PLACEMENT_3D('',#1261,#1037,#1038);
#861=AXIS2_PLACEMENT_3D('',#1267,#1042,#1043);
#862=AXIS2_PLACEMENT_3D('',#1273,#1047,#1048);
#863=AXIS2_PLACEMENT_3D('',#1279,#1052,#1053);
#864=AXIS2_PLACEMENT_3D('',#1281,#1055,#1056);
#865=AXIS2_PLACEMENT_3D('',#1283,#1058,#1059);
#866=AXIS2_PLACEMENT_3D('',#1284,#1060,#1061);
#867=AXIS2_PLACEMENT_3D('',#1286,#1062,#1063);
#868=AXIS2_PLACEMENT_3D('',#1289,#1065,#1066);
#869=AXIS2_PLACEMENT_3D('',#1290,#1067,#1068);
#870=AXIS2_PLACEMENT_3D('',#1292,#1069,#1070);
#871=AXIS2_PLACEMENT_3D('',#1295,#1072,#1073);
#872=AXIS2_PLACEMENT_3D('',#1296,#1074,#1075);
#873=AXIS2_PLACEMENT_3D('',#1299,#1076,#1077);
#874=AXIS2_PLACEMENT_3D('',#1303,#1079,#1080);
#875=AXIS2_PLACEMENT_3D('',#1305,#1082,#1083);
#876=AXIS2_PLACEMENT_3D('',#1311,#1087,#1088);
#877=AXIS2_PLACEMENT_3D('',#1317,#1092,#1093);
#878=AXIS2_PLACEMENT_3D('',#1323,#1097,#1098);
#879=AXIS2_PLACEMENT_3D('',#1325,#1100,#1101);
#880=AXIS2_PLACEMENT_3D('',#1327,#1103,#1104);
#881=DIRECTION('axis',(0.,0.,1.));
#882=DIRECTION('refdir',(1.,0.,0.));
#883=DIRECTION('center_axis',(-5.77016701449412E-17,1.,-1.14423774521994E-17));
#884=DIRECTION('ref_axis',(1.,5.77016701449412E-17,1.38777878078137E-17));
#885=DIRECTION('center_axis',(0.,1.,0.));
#886=DIRECTION('ref_axis',(1.,5.77016701449412E-17,1.38777878078137E-17));
#887=DIRECTION('',(-5.77016701449412E-17,1.,-1.14423774521994E-17));
#888=DIRECTION('center_axis',(0.,-1.,0.));
#889=DIRECTION('ref_axis',(1.,5.77016701449412E-17,1.38777878078137E-17));
#890=DIRECTION('center_axis',(0.,1.,0.));
#891=DIRECTION('ref_axis',(1.,0.,0.));
#892=DIRECTION('center_axis',(0.,1.,0.));
#893=DIRECTION('ref_axis',(1.,0.,0.));
#894=DIRECTION('',(0.,1.,0.));
#895=DIRECTION('center_axis',(0.,-1.,0.));
#896=DIRECTION('ref_axis',(1.,0.,0.));
#897=DIRECTION('center_axis',(0.,-1.,0.));
#898=DIRECTION('ref_axis',(1.,0.,0.));
#899=DIRECTION('center_axis',(0.,1.,0.));
#900=DIRECTION('ref_axis',(0.707106781186547,0.,0.707106781186547));
#901=DIRECTION('',(1.,0.,0.));
#902=DIRECTION('',(0.,0.,1.));
#903=DIRECTION('',(1.,0.,0.));
#904=DIRECTION('center_axis',(0.,1.,0.));
#905=DIRECTION('ref_axis',(0.707106781186547,0.,0.707106781186547));
#906=DIRECTION('center_axis',(0.,-1.,0.));
#907=DIRECTION('ref_axis',(0.707106781186547,0.,0.707106781186547));
#908=DIRECTION('',(0.,-1.,0.));
#909=DIRECTION('',(0.,1.,0.));
#910=DIRECTION('center_axis',(0.,0.,1.));
#911=DIRECTION('ref_axis',(1.,0.,0.));
#912=DIRECTION('',(-1.,0.,0.));
#913=DIRECTION('',(0.,-1.,0.));
#914=DIRECTION('center_axis',(0.,0.,-1.));
#915=DIRECTION('ref_axis',(0.,-1.,0.));
#916=DIRECTION('',(-1.,0.,0.));
#917=DIRECTION('',(0.,-1.,0.));
#918=DIRECTION('',(1.,0.,0.));
#919=DIRECTION('center_axis',(0.,0.,1.));
#920=DIRECTION('ref_axis',(0.,-1.,0.));
#921=DIRECTION('',(0.,1.,0.));
#922=DIRECTION('center_axis',(0.,0.,1.));
#923=DIRECTION('ref_axis',(0.,-1.,0.));
#924=DIRECTION('center_axis',(0.,0.,-1.));
#925=DIRECTION('ref_axis',(0.,-1.,0.));
#926=DIRECTION('',(0.,0.,1.));
#927=DIRECTION('',(0.,0.,1.));
#928=DIRECTION('center_axis',(0.,0.,1.));
#929=DIRECTION('ref_axis',(0.,-1.,0.));
#930=DIRECTION('center_axis',(0.,0.,1.));
#931=DIRECTION('ref_axis',(0.,-1.,0.));
#932=DIRECTION('',(0.,0.,1.));
#933=DIRECTION('',(0.,0.,1.));
#934=DIRECTION('center_axis',(-1.,0.,0.));
#935=DIRECTION('ref_axis',(0.,-1.,0.));
#936=DIRECTION('',(0.,1.,0.));
#937=DIRECTION('',(0.,0.,1.));
#938=DIRECTION('',(0.,-1.,0.));
#939=DIRECTION('',(0.,0.,1.));
#940=DIRECTION('',(0.,0.,1.));
#941=DIRECTION('center_axis',(0.,0.,1.));
#942=DIRECTION('ref_axis',(1.,0.,0.));
#943=DIRECTION('',(0.,1.,0.));
#944=DIRECTION('center_axis',(0.,0.,1.));
#945=DIRECTION('ref_axis',(0.,-1.,0.));
#946=DIRECTION('',(1.,0.,0.));
#947=DIRECTION('',(0.,1.,0.));
#948=DIRECTION('center_axis',(0.,0.,1.));
#949=DIRECTION('ref_axis',(-1.,0.,0.));
#950=DIRECTION('',(1.,0.,0.));
#951=DIRECTION('',(-2.46519032881566E-33,-1.,0.));
#952=DIRECTION('center_axis',(0.,0.,1.));
#953=DIRECTION('ref_axis',(-6.12323399573677E-17,1.,0.));
#954=DIRECTION('',(-1.,4.1086505480261E-33,0.));
#955=DIRECTION('center_axis',(0.,0.,1.));
#956=DIRECTION('ref_axis',(1.,-2.46519032881566E-32,0.));
#957=DIRECTION('',(-1.,0.,0.));
#958=DIRECTION('center_axis',(0.,0.,1.));
#959=DIRECTION('ref_axis',(0.,-1.,0.));
#960=DIRECTION('',(0.,-1.,0.));
#961=DIRECTION('',(-1.,0.,0.));
#962=DIRECTION('center_axis',(0.,-1.,0.));
#963=DIRECTION('ref_axis',(1.,0.,0.));
#964=DIRECTION('',(0.,0.,1.));
#965=DIRECTION('',(-1.,0.,0.));
#966=DIRECTION('',(0.,0.,1.));
#967=DIRECTION('center_axis',(1.,0.,0.));
#968=DIRECTION('ref_axis',(0.,1.,0.));
#969=DIRECTION('',(0.,1.,0.));
#970=DIRECTION('',(0.,0.,1.));
#971=DIRECTION('center_axis',(0.,0.,1.));
#972=DIRECTION('ref_axis',(-1.,0.,0.));
#973=DIRECTION('center_axis',(0.,0.,-1.));
#974=DIRECTION('ref_axis',(-1.,0.,0.));
#975=DIRECTION('',(0.,0.,1.));
#976=DIRECTION('center_axis',(0.,1.,0.));
#977=DIRECTION('ref_axis',(-1.,0.,0.));
#978=DIRECTION('',(-1.,0.,0.));
#979=DIRECTION('',(0.,0.,1.));
#980=DIRECTION('center_axis',(1.,-2.46519032881566E-33,0.));
#981=DIRECTION('ref_axis',(2.46519032881566E-33,1.,0.));
#982=DIRECTION('',(2.46519032881566E-33,1.,0.));
#983=DIRECTION('',(0.,0.,1.));
#984=DIRECTION('center_axis',(0.,0.,1.));
#985=DIRECTION('ref_axis',(-6.12323399573677E-17,1.,0.));
#986=DIRECTION('center_axis',(0.,0.,-1.));
#987=DIRECTION('ref_axis',(-6.12323399573677E-17,1.,0.));
#988=DIRECTION('',(0.,0.,1.));
#989=DIRECTION('center_axis',(-4.1086505480261E-33,-1.,0.));
#990=DIRECTION('ref_axis',(1.,-4.1086505480261E-33,0.));
#991=DIRECTION('',(1.,-4.1086505480261E-33,0.));
#992=DIRECTION('',(0.,0.,1.));
#993=DIRECTION('center_axis',(0.,0.,1.));
#994=DIRECTION('ref_axis',(1.,-2.46519032881566E-32,0.));
#995=DIRECTION('center_axis',(0.,0.,-1.));
#996=DIRECTION('ref_axis',(1.,-2.46519032881566E-32,0.));
#997=DIRECTION('center_axis',(0.,1.,0.));
#998=DIRECTION('ref_axis',(-1.,0.,0.));
#999=DIRECTION('',(0.,0.,1.));
#1000=DIRECTION('center_axis',(0.,0.,1.));
#1001=DIRECTION('ref_axis',(0.,-1.,0.));
#1002=DIRECTION('',(0.,0.,1.));
#1003=DIRECTION('center_axis',(-1.,0.,0.));
#1004=DIRECTION('ref_axis',(0.,-1.,0.));
#1005=DIRECTION('',(0.,0.,1.));
#1006=DIRECTION('center_axis',(0.,1.,0.));
#1007=DIRECTION('ref_axis',(-1.,0.,0.));
#1008=DIRECTION('center_axis',(1.,0.,0.));
#1009=DIRECTION('ref_axis',(0.,1.,0.));
#1010=DIRECTION('',(0.,0.,1.));
#1011=DIRECTION('center_axis',(0.,0.,1.));
#1012=DIRECTION('ref_axis',(0.,-1.,0.));
#1013=DIRECTION('center_axis',(0.,0.,1.));
#1014=DIRECTION('ref_axis',(1.,0.,0.));
#1015=DIRECTION('center_axis',(0.,1.,0.));
#1016=DIRECTION('ref_axis',(1.,0.,0.));
#1017=DIRECTION('center_axis',(0.,1.,0.));
#1018=DIRECTION('ref_axis',(1.,0.,0.));
#1019=DIRECTION('',(0.,1.,0.));
#1020=DIRECTION('center_axis',(0.,-1.,0.));
#1021=DIRECTION('ref_axis',(1.,0.,0.));
#1022=DIRECTION('center_axis',(0.,1.,0.));
#1023=DIRECTION('ref_axis',(1.,0.,0.));
#1024=DIRECTION('center_axis',(0.,1.,0.));
#1025=DIRECTION('ref_axis',(1.,0.,0.));
#1026=DIRECTION('',(0.,1.,0.));
#1027=DIRECTION('center_axis',(0.,-1.,0.));
#1028=DIRECTION('ref_axis',(1.,0.,0.));
#1029=DIRECTION('center_axis',(0.,-1.,0.));
#1030=DIRECTION('ref_axis',(-0.707106781186548,0.,0.707106781186548));
#1031=DIRECTION('center_axis',(0.,1.,0.));
#1032=DIRECTION('ref_axis',(-0.707106781186548,0.,0.707106781186548));
#1033=DIRECTION('',(0.,1.,0.));
#1034=DIRECTION('center_axis',(0.,-1.,0.));
#1035=DIRECTION('ref_axis',(-0.707106781186548,0.,0.707106781186548));
#1036=DIRECTION('',(0.,-1.,0.));
#1037=DIRECTION('center_axis',(1.11022090704279E-16,0.,1.));
#1038=DIRECTION('ref_axis',(1.,0.,-1.11022090704279E-16));
#1039=DIRECTION('',(1.,0.,0.));
#1040=DIRECTION('',(0.,1.,0.));
#1041=DIRECTION('',(-1.,0.,0.));
#1042=DIRECTION('center_axis',(0.,-1.,0.));
#1043=DIRECTION('ref_axis',(1.,0.,0.));
#1044=DIRECTION('',(1.11022090704279E-16,0.,1.));
#1045=DIRECTION('',(1.,0.,0.));
#1046=DIRECTION('',(1.11022090704279E-16,0.,1.));
#1047=DIRECTION('center_axis',(0.,1.,0.));
#1048=DIRECTION('ref_axis',(-1.,0.,0.));
#1049=DIRECTION('',(1.11022090704279E-16,0.,1.));
#1050=DIRECTION('',(-1.,0.,0.));
#1051=DIRECTION('',(1.11022090704279E-16,0.,1.));
#1052=DIRECTION('center_axis',(1.,0.,-1.11022090704279E-16));
#1053=DIRECTION('ref_axis',(0.,1.,0.));
#1054=DIRECTION('',(0.,1.,0.));
#1055=DIRECTION('center_axis',(-1.,0.,1.11022090704279E-16));
#1056=DIRECTION('ref_axis',(0.,-1.,0.));
#1057=DIRECTION('',(0.,-1.,0.));
#1058=DIRECTION('center_axis',(0.,0.,1.));
#1059=DIRECTION('ref_axis',(1.,0.,0.));
#1060=DIRECTION('center_axis',(-1.22464679914735E-16,-1.,0.));
#1061=DIRECTION('ref_axis',(-1.,1.22464679914735E-16,0.));
#1062=DIRECTION('center_axis',(-1.22464679914735E-16,-1.,0.));
#1063=DIRECTION('ref_axis',(-1.,1.22464679914735E-16,0.));
#1064=DIRECTION('',(-1.22464679914735E-16,-1.,0.));
#1065=DIRECTION('center_axis',(1.22464679914735E-16,1.,0.));
#1066=DIRECTION('ref_axis',(-1.,1.22464679914735E-16,0.));
#1067=DIRECTION('center_axis',(-1.22464679914735E-16,-1.,0.));
#1068=DIRECTION('ref_axis',(-1.,1.22464679914735E-16,0.));
#1069=DIRECTION('center_axis',(-1.22464679914735E-16,-1.,0.));
#1070=DIRECTION('ref_axis',(-1.,1.22464679914735E-16,0.));
#1071=DIRECTION('',(-1.22464679914735E-16,-1.,0.));
#1072=DIRECTION('center_axis',(1.22464679914735E-16,1.,0.));
#1073=DIRECTION('ref_axis',(-1.,1.22464679914735E-16,0.));
#1074=DIRECTION('center_axis',(1.22464679914735E-16,1.,0.));
#1075=DIRECTION('ref_axis',(0.707106781186548,-8.65956056235494E-17,0.707106781186548));
#1076=DIRECTION('center_axis',(-1.22464679914735E-16,-1.,0.));
#1077=DIRECTION('ref_axis',(0.707106781186548,-8.65956056235494E-17,0.707106781186548));
#1078=DIRECTION('',(-1.22464679914735E-16,-1.,0.));
#1079=DIRECTION('center_axis',(1.22464679914735E-16,1.,0.));
#1080=DIRECTION('ref_axis',(0.707106781186548,-8.65956056235494E-17,0.707106781186548));
#1081=DIRECTION('',(1.22464679914735E-16,1.,0.));
#1082=DIRECTION('center_axis',(-1.11022090704279E-16,1.35962848015642E-32,
1.));
#1083=DIRECTION('ref_axis',(-1.,1.22464679914735E-16,-1.11022090704279E-16));
#1084=DIRECTION('',(-1.,1.22464679914735E-16,0.));
#1085=DIRECTION('',(-1.22464679914735E-16,-1.,0.));
#1086=DIRECTION('',(1.,-1.22464679914735E-16,0.));
#1087=DIRECTION('center_axis',(1.22464679914735E-16,1.,0.));
#1088=DIRECTION('ref_axis',(-1.,1.22464679914735E-16,0.));
#1089=DIRECTION('',(-1.11022090704279E-16,1.35962848015642E-32,1.));
#1090=DIRECTION('',(-1.,1.22464679914735E-16,0.));
#1091=DIRECTION('',(-1.11022090704279E-16,1.35962848015642E-32,1.));
#1092=DIRECTION('center_axis',(-1.22464679914735E-16,-1.,0.));
#1093=DIRECTION('ref_axis',(1.,-1.22464679914735E-16,0.));
#1094=DIRECTION('',(-1.11022090704279E-16,1.35962848015642E-32,1.));
#1095=DIRECTION('',(1.,-1.22464679914735E-16,0.));
#1096=DIRECTION('',(-1.11022090704279E-16,1.35962848015642E-32,1.));
#1097=DIRECTION('center_axis',(-1.,1.22464679914735E-16,-1.11022090704279E-16));
#1098=DIRECTION('ref_axis',(-1.22464679914735E-16,-1.,0.));
#1099=DIRECTION('',(-1.22464679914735E-16,-1.,0.));
#1100=DIRECTION('center_axis',(1.,-1.22464679914735E-16,1.11022090704279E-16));
#1101=DIRECTION('ref_axis',(1.22464679914735E-16,1.,0.));
#1102=DIRECTION('',(1.22464679914735E-16,1.,0.));
#1103=DIRECTION('center_axis',(0.,0.,1.));
#1104=DIRECTION('ref_axis',(-1.,1.22464679914735E-16,0.));
#1105=CARTESIAN_POINT('',(0.,0.,0.));
#1106=CARTESIAN_POINT('Origin',(-40.1771733213318,30.,22.4851380864205));
#1107=CARTESIAN_POINT('',(-42.6771733213318,45.,22.4851380864205));
#1108=CARTESIAN_POINT('Origin',(-40.1771733213318,45.,22.4851380864205));
#1109=CARTESIAN_POINT('',(-42.6771733213318,50.,22.4851380864205));
#1110=CARTESIAN_POINT('',(-42.6771733213318,30.,22.4851380864205));
#1111=CARTESIAN_POINT('Origin',(-40.1771733213318,50.,22.4851380864205));
#1112=CARTESIAN_POINT('Origin',(40.,0.,23.));
#1113=CARTESIAN_POINT('',(32.5,55.,23.));
#1114=CARTESIAN_POINT('Origin',(40.,55.,23.));
#1115=CARTESIAN_POINT('',(32.5,60.,23.));
#1116=CARTESIAN_POINT('',(32.5,0.,23.));
#1117=CARTESIAN_POINT('Origin',(40.,60.,23.));
#1118=CARTESIAN_POINT('Origin',(15.,55.,13.));
#1119=CARTESIAN_POINT('',(40.,55.0000008195639,33.));
#1120=CARTESIAN_POINT('',(40.,55.,13.));
#1121=CARTESIAN_POINT('Origin',(40.,55.,23.));
#1122=CARTESIAN_POINT('',(15.0000002235174,55.0000008195639,33.));
#1123=CARTESIAN_POINT('',(15.0000002235174,55.0000008195639,33.));
#1124=CARTESIAN_POINT('',(15.,55.,13.));
#1125=CARTESIAN_POINT('',(15.,55.,13.));
#1126=CARTESIAN_POINT('',(15.,55.,13.));
#1127=CARTESIAN_POINT('Origin',(40.,53.7500003911555,23.));
#1128=CARTESIAN_POINT('',(40.,60.,13.));
#1129=CARTESIAN_POINT('',(40.,60.0000008940697,33.));
#1130=CARTESIAN_POINT('Origin',(40.,60.,23.));
#1131=CARTESIAN_POINT('',(40.,53.7500003911555,33.));
#1132=CARTESIAN_POINT('',(40.,42.5,13.));
#1133=CARTESIAN_POINT('Origin',(-5.00000007450581,52.500000782311,33.));
#1134=CARTESIAN_POINT('',(10.0000001490116,60.0000008940697,33.));
#1135=CARTESIAN_POINT('',(50.0000007450581,60.0000008940697,33.));
#1136=CARTESIAN_POINT('',(10.0000001490116,55.0000008195639,33.));
#1137=CARTESIAN_POINT('',(10.0000001490116,60.0000008940697,33.));
#1138=CARTESIAN_POINT('',(5.00000007450581,50.0000007450581,33.));
#1139=CARTESIAN_POINT('Origin',(5.00000007450581,55.0000008195639,33.));
#1140=CARTESIAN_POINT('',(-60.0000008940697,50.0000007450581,33.));
#1141=CARTESIAN_POINT('',(-60.0000008940697,50.0000007450581,33.));
#1142=CARTESIAN_POINT('',(-60.0000008940697,45.0000006705523,33.));
#1143=CARTESIAN_POINT('',(-60.0000008940697,45.0000006705523,33.));
#1144=CARTESIAN_POINT('',(10.0000001490116,45.0000006705523,33.));
#1145=CARTESIAN_POINT('',(10.0000001490116,45.0000006705523,33.));
#1146=CARTESIAN_POINT('',(15.0000002235174,50.0000007450581,33.));
#1147=CARTESIAN_POINT('Origin',(10.0000001490116,50.0000007450581,33.));
#1148=CARTESIAN_POINT('',(15.0000002235174,50.0000007450581,33.));
#1149=CARTESIAN_POINT('Origin',(5.00000007450581,55.0000008195639,13.));
#1150=CARTESIAN_POINT('',(10.,55.,17.));
#1151=CARTESIAN_POINT('',(5.,50.,17.));
#1152=CARTESIAN_POINT('Origin',(5.,55.,17.));
#1153=CARTESIAN_POINT('',(5.00000007450581,50.0000007450581,13.));
#1154=CARTESIAN_POINT('',(10.0000001490116,55.0000008195639,13.));
#1155=CARTESIAN_POINT('Origin',(10.0000001490116,50.0000007450581,13.));
#1156=CARTESIAN_POINT('',(10.,45.,17.));
#1157=CARTESIAN_POINT('',(15.,50.,17.));
#1158=CARTESIAN_POINT('Origin',(10.,50.,17.));
#1159=CARTESIAN_POINT('',(15.0000002235174,50.0000007450581,13.));
#1160=CARTESIAN_POINT('',(10.0000001490116,45.0000006705523,13.));
#1161=CARTESIAN_POINT('Origin',(-60.,50.,13.));
#1162=CARTESIAN_POINT('',(-60.,10.,13.));
#1163=CARTESIAN_POINT('',(-60.,50.,13.));
#1164=CARTESIAN_POINT('',(-60.,2.46519032881566E-31,13.));
#1165=CARTESIAN_POINT('',(-60.,10.,17.));
#1166=CARTESIAN_POINT('',(-60.,10.,13.));
#1167=CARTESIAN_POINT('',(-60.0000008940697,45.0000006705523,17.));
#1168=CARTESIAN_POINT('',(-60.,2.46519032881566E-31,17.));
#1169=CARTESIAN_POINT('',(-60.0000008940697,45.0000006705523,13.));
#1170=CARTESIAN_POINT('',(-60.,50.,13.));
#1171=CARTESIAN_POINT('Origin',(-5.,30.,13.));
#1172=CARTESIAN_POINT('',(15.,50.,13.));
#1173=CARTESIAN_POINT('',(15.,50.,13.));
#1174=CARTESIAN_POINT('',(10.,45.,13.));
#1175=CARTESIAN_POINT('Origin',(10.,50.,13.));
#1176=CARTESIAN_POINT('',(-25.,45.,13.));
#1177=CARTESIAN_POINT('',(0.,45.,13.));
#1178=CARTESIAN_POINT('',(-25.,30.,13.));
#1179=CARTESIAN_POINT('',(-25.,30.,13.));
#1180=CARTESIAN_POINT('',(-15.,20.,13.));
#1181=CARTESIAN_POINT('Origin',(-15.,30.,13.));
#1182=CARTESIAN_POINT('',(0.,20.,13.));
#1183=CARTESIAN_POINT('',(-15.,20.,13.));
#1184=CARTESIAN_POINT('',(-6.12323408698006E-16,10.0000001490116,13.));
#1185=CARTESIAN_POINT('',(1.23259516440783E-31,50.,13.));
#1186=CARTESIAN_POINT('',(-10.0000001490116,0.,13.));
#1187=CARTESIAN_POINT('Origin',(0.,0.,13.));
#1188=CARTESIAN_POINT('',(-50.,0.,13.));
#1189=CARTESIAN_POINT('',(0.,0.,13.));
#1190=CARTESIAN_POINT('Origin',(-60.,2.46519032881566E-31,13.));
#1191=CARTESIAN_POINT('',(5.,50.,13.));
#1192=CARTESIAN_POINT('',(10.,50.,13.));
#1193=CARTESIAN_POINT('',(10.,55.,13.));
#1194=CARTESIAN_POINT('Origin',(5.,55.,13.));
#1195=CARTESIAN_POINT('',(10.,60.,13.));
#1196=CARTESIAN_POINT('',(10.,60.,13.));
#1197=CARTESIAN_POINT('',(50.,60.,13.));
#1198=CARTESIAN_POINT('Origin',(-25.,45.,13.));
#1199=CARTESIAN_POINT('',(10.,45.,13.));
#1200=CARTESIAN_POINT('',(-25.,45.,17.));
#1201=CARTESIAN_POINT('',(-32.5000004470348,45.0000006705523,17.));
#1202=CARTESIAN_POINT('',(-25.,45.,13.));
#1203=CARTESIAN_POINT('Origin',(-25.,30.,13.));
#1204=CARTESIAN_POINT('',(-25.,30.,17.));
#1205=CARTESIAN_POINT('',(-25.,30.,17.));
#1206=CARTESIAN_POINT('',(-25.,30.,13.));
#1207=CARTESIAN_POINT('Origin',(-15.,30.,13.));
#1208=CARTESIAN_POINT('',(-15.,20.,17.));
#1209=CARTESIAN_POINT('Origin',(-15.,30.,17.));
#1210=CARTESIAN_POINT('',(-15.,20.,13.));
#1211=CARTESIAN_POINT('Origin',(0.,20.,13.));
#1212=CARTESIAN_POINT('',(0.,20.,17.));
#1213=CARTESIAN_POINT('',(-15.,20.,17.));
#1214=CARTESIAN_POINT('',(0.,20.,13.));
#1215=CARTESIAN_POINT('Origin',(2.46519036554986E-32,10.0000001490116,13.));
#1216=CARTESIAN_POINT('',(0.,10.0000001490116,17.));
#1217=CARTESIAN_POINT('',(1.23259516440783E-31,50.,17.));
#1218=CARTESIAN_POINT('',(-6.12323408698006E-16,10.0000001490116,13.));
#1219=CARTESIAN_POINT('Origin',(0.,0.,13.));
#1220=CARTESIAN_POINT('',(-10.0000001490116,0.,17.));
#1221=CARTESIAN_POINT('Origin',(0.,0.,17.));
#1222=CARTESIAN_POINT('',(-10.0000001490116,0.,13.));
#1223=CARTESIAN_POINT('Origin',(-50.,2.05432527401305E-31,13.));
#1224=CARTESIAN_POINT('',(-50.,0.,17.));
#1225=CARTESIAN_POINT('',(0.,0.,17.));
#1226=CARTESIAN_POINT('',(-50.,0.,13.));
#1227=CARTESIAN_POINT('Origin',(-60.,2.46519032881566E-31,13.));
#1228=CARTESIAN_POINT('Origin',(-60.,2.46519032881566E-31,17.));
#1229=CARTESIAN_POINT('Origin',(5.,50.,13.));
#1230=CARTESIAN_POINT('',(5.,50.,13.));
#1231=CARTESIAN_POINT('Origin',(5.,55.,13.));
#1232=CARTESIAN_POINT('',(10.,55.,13.));
#1233=CARTESIAN_POINT('Origin',(10.,60.,13.));
#1234=CARTESIAN_POINT('',(10.,60.,13.));
#1235=CARTESIAN_POINT('Origin',(50.,60.,13.));
#1236=CARTESIAN_POINT('Origin',(15.,50.,13.));
#1237=CARTESIAN_POINT('',(15.,50.,13.));
#1238=CARTESIAN_POINT('Origin',(10.,50.,13.));
#1239=CARTESIAN_POINT('Origin',(-5.,30.,17.));
#1240=CARTESIAN_POINT('Origin',(-55.0000008195639,0.,28.0000004172325));
#1241=CARTESIAN_POINT('',(-56.7500008195639,10.,28.0000004172325));
#1242=CARTESIAN_POINT('Origin',(-55.0000008195639,10.,28.0000004172325));
#1243=CARTESIAN_POINT('',(-56.7500008195639,15.,28.0000004172325));
#1244=CARTESIAN_POINT('',(-56.7500008195639,0.,28.0000004172325));
#1245=CARTESIAN_POINT('Origin',(-55.0000008195639,15.,28.0000004172325));
#1246=CARTESIAN_POINT('Origin',(-55.0000008195639,0.,22.0000003278255));
#1247=CARTESIAN_POINT('',(-56.7500008195639,10.,22.0000003278255));
#1248=CARTESIAN_POINT('Origin',(-55.0000008195639,10.,22.0000003278255));
#1249=CARTESIAN_POINT('',(-56.7500008195639,15.,22.0000003278255));
#1250=CARTESIAN_POINT('',(-56.7500008195639,0.,22.0000003278255));
#1251=CARTESIAN_POINT('Origin',(-55.0000008195639,15.,22.0000003278255));
#1252=CARTESIAN_POINT('Origin',(-56.,13.75,29.));
#1253=CARTESIAN_POINT('',(-60.,10.,29.));
#1254=CARTESIAN_POINT('',(-56.,10.,33.));
#1255=CARTESIAN_POINT('Origin',(-56.,10.,29.));
#1256=CARTESIAN_POINT('',(-56.,15.,33.));
#1257=CARTESIAN_POINT('',(-56.,13.75,33.));
#1258=CARTESIAN_POINT('',(-60.,15.,29.));
#1259=CARTESIAN_POINT('Origin',(-56.,15.,29.));
#1260=CARTESIAN_POINT('',(-60.,13.75,29.));
#1261=CARTESIAN_POINT('Origin',(-55.,12.5,33.));
#1262=CARTESIAN_POINT('',(-50.,10.,33.));
#1263=CARTESIAN_POINT('',(-60.,10.,33.));
#1264=CARTESIAN_POINT('',(-50.,15.,33.));
#1265=CARTESIAN_POINT('',(-50.,10.,33.));
#1266=CARTESIAN_POINT('',(-50.,15.,33.));
#1267=CARTESIAN_POINT('Origin',(-60.,10.,13.));
#1268=CARTESIAN_POINT('',(-60.,10.,13.));
#1269=CARTESIAN_POINT('',(-60.,10.,13.));
#1270=CARTESIAN_POINT('',(-50.,10.,13.));
#1271=CARTESIAN_POINT('',(-60.,10.,13.));
#1272=CARTESIAN_POINT('',(-50.,10.,13.));
#1273=CARTESIAN_POINT('Origin',(-50.,15.,13.));
#1274=CARTESIAN_POINT('',(-50.,15.,13.));
#1275=CARTESIAN_POINT('',(-50.,15.,13.));
#1276=CARTESIAN_POINT('',(-60.,15.,13.));
#1277=CARTESIAN_POINT('',(-50.,15.,13.));
#1278=CARTESIAN_POINT('',(-60.,15.,13.));
#1279=CARTESIAN_POINT('Origin',(-50.,10.,13.));
#1280=CARTESIAN_POINT('',(-50.,10.,13.));
#1281=CARTESIAN_POINT('Origin',(-60.,15.,13.));
#1282=CARTESIAN_POINT('',(-60.,15.,13.));
#1283=CARTESIAN_POINT('Origin',(-55.,12.5,13.));
#1284=CARTESIAN_POINT('Origin',(-4.99999918043611,25.,28.0000004172325));
#1285=CARTESIAN_POINT('',(-3.24999918043611,15.,28.0000004172325));
#1286=CARTESIAN_POINT('Origin',(-4.99999918043611,15.,28.0000004172325));
#1287=CARTESIAN_POINT('',(-3.24999918043611,10.,28.0000004172325));
#1288=CARTESIAN_POINT('',(-3.24999918043611,25.,28.0000004172325));
#1289=CARTESIAN_POINT('Origin',(-4.99999918043611,10.,28.0000004172325));
#1290=CARTESIAN_POINT('Origin',(-4.99999918043611,25.,22.0000003278255));
#1291=CARTESIAN_POINT('',(-3.24999918043611,15.,22.0000003278255));
#1292=CARTESIAN_POINT('Origin',(-4.99999918043611,15.,22.0000003278255));
#1293=CARTESIAN_POINT('',(-3.24999918043611,10.,22.0000003278255));
#1294=CARTESIAN_POINT('',(-3.24999918043611,25.,22.0000003278255));
#1295=CARTESIAN_POINT('Origin',(-4.99999918043611,10.,22.0000003278255));
#1296=CARTESIAN_POINT('Origin',(-3.99999999999998,11.25,29.));
#1297=CARTESIAN_POINT('',(2.55351295663786E-14,15.,29.));
#1298=CARTESIAN_POINT('',(-3.99999999999998,15.,33.));
#1299=CARTESIAN_POINT('Origin',(-3.99999999999998,15.,29.));
#1300=CARTESIAN_POINT('',(-3.99999999999998,10.,33.));
#1301=CARTESIAN_POINT('',(-3.99999999999998,11.25,33.));
#1302=CARTESIAN_POINT('',(2.44249065417534E-14,10.,29.));
#1303=CARTESIAN_POINT('Origin',(-3.99999999999998,10.,29.));
#1304=CARTESIAN_POINT('',(2.44249065417534E-14,11.25,29.));
#1305=CARTESIAN_POINT('Origin',(-4.99999999999998,12.5,33.));
#1306=CARTESIAN_POINT('',(-9.99999999999998,15.,33.));
#1307=CARTESIAN_POINT('',(2.55351295663786E-14,15.,33.));
#1308=CARTESIAN_POINT('',(-9.99999999999998,10.,33.));
#1309=CARTESIAN_POINT('',(-9.99999999999998,15.,33.));
#1310=CARTESIAN_POINT('',(-9.99999999999998,10.,33.));
#1311=CARTESIAN_POINT('Origin',(2.55351295663786E-14,15.,13.));
#1312=CARTESIAN_POINT('',(2.55351295663786E-14,15.,13.));
#1313=CARTESIAN_POINT('',(2.55351295663786E-14,15.,13.));
#1314=CARTESIAN_POINT('',(-9.99999999999998,15.,13.));
#1315=CARTESIAN_POINT('',(2.55351295663786E-14,15.,13.));
#1316=CARTESIAN_POINT('',(-9.99999999999998,15.,13.));
#1317=CARTESIAN_POINT('Origin',(-9.99999999999998,10.,13.));
#1318=CARTESIAN_POINT('',(-9.99999999999998,10.,13.));
#1319=CARTESIAN_POINT('',(-9.99999999999998,10.,13.));
#1320=CARTESIAN_POINT('',(2.44249065417534E-14,10.,13.));
#1321=CARTESIAN_POINT('',(-9.99999999999998,10.,13.));
#1322=CARTESIAN_POINT('',(2.44249065417534E-14,10.,13.));
#1323=CARTESIAN_POINT('Origin',(-9.99999999999998,15.,13.));
#1324=CARTESIAN_POINT('',(-9.99999999999998,15.,13.));
#1325=CARTESIAN_POINT('Origin',(2.44249065417534E-14,10.,13.));
#1326=CARTESIAN_POINT('',(2.44249065417534E-14,10.,13.));
#1327=CARTESIAN_POINT('Origin',(-4.99999999999998,12.5,13.));
#1328=UNCERTAINTY_MEASURE_WITH_UNIT(LENGTH_MEASURE(0.01),#1332,
'DISTANCE_ACCURACY_VALUE',
'Maximum model space distance between geometric entities at asserted c
onnectivities');
#1329=UNCERTAINTY_MEASURE_WITH_UNIT(LENGTH_MEASURE(0.01),#1332,
'DISTANCE_ACCURACY_VALUE',
'Maximum model space distance between geometric entities at asserted c
onnectivities');
#1330=(
GEOMETRIC_REPRESENTATION_CONTEXT(3)
GLOBAL_UNCERTAINTY_ASSIGNED_CONTEXT((#1328))
GLOBAL_UNIT_ASSIGNED_CONTEXT((#1332,#1334,#1335))
REPRESENTATION_CONTEXT('','3D')
);
#1331=(
GEOMETRIC_REPRESENTATION_CONTEXT(3)
GLOBAL_UNCERTAINTY_ASSIGNED_CONTEXT((#1329))
GLOBAL_UNIT_ASSIGNED_CONTEXT((#1332,#1334,#1335))
REPRESENTATION_CONTEXT('','3D')
);
#1332=(
LENGTH_UNIT()
NAMED_UNIT(*)
SI_UNIT(.MILLI.,.METRE.)
);
#1333=(
LENGTH_UNIT()
NAMED_UNIT(*)
SI_UNIT($,.METRE.)
);
#1334=(
NAMED_UNIT(*)
PLANE_ANGLE_UNIT()
SI_UNIT($,.RADIAN.)
);
#1335=(
NAMED_UNIT(*)
SI_UNIT($,.STERADIAN.)
SOLID_ANGLE_UNIT()
);
#1336=SHAPE_DEFINITION_REPRESENTATION(#1337,#1338);
#1337=PRODUCT_DEFINITION_SHAPE('',$,#1340);
#1338=SHAPE_REPRESENTATION('',(#808),#1330);
#1339=PRODUCT_DEFINITION_CONTEXT('part definition',#1344,'design');
#1340=PRODUCT_DEFINITION('knee 1','knee 1',#1341,#1339);
#1341=PRODUCT_DEFINITION_FORMATION('',$,#1346);
#1342=PRODUCT_RELATED_PRODUCT_CATEGORY('knee 1','knee 1',(#1346));
#1343=APPLICATION_PROTOCOL_DEFINITION('international standard',
'automotive_design',2009,#1344);
#1344=APPLICATION_CONTEXT(
'Core Data for Automotive Mechanical Design Process');
#1345=PRODUCT_CONTEXT('part definition',#1344,'mechanical');
#1346=PRODUCT('knee 1','knee 1',$,(#1345));
#1347=PRESENTATION_STYLE_ASSIGNMENT((#1348));
#1348=SURFACE_STYLE_USAGE(.BOTH.,#1349);
#1349=SURFACE_SIDE_STYLE('',(#1350));
#1350=SURFACE_STYLE_FILL_AREA(#1351);
#1351=FILL_AREA_STYLE('Steel - Satin',(#1352));
#1352=FILL_AREA_STYLE_COLOUR('Steel - Satin',#1353);
#1353=COLOUR_RGB('Steel - Satin',0.627450980392157,0.627450980392157,0.627450980392157);
ENDSEC;
END-ISO-10303-21;
